<svg width="24" height="24" viewBox="0 0 24 24" fill="none" xmlns="http://www.w3.org/2000/svg">
<path d="M11.3438 9.23438V13.4531C11.3438 13.8414 11.6586 14.1562 12.0469 14.1562H20.4844C20.8727 14.1562 21.1875 13.8414 21.1875 13.4531V9.23438C21.1875 8.84606 20.8727 8.53125 20.4844 8.53125H12.0469C11.6586 8.53125 11.3438 8.84606 11.3438 9.23438ZM17.6719 19.7812H14.8594C14.4711 19.7812 14.1562 20.0961 14.1562 20.4844V23.2969C14.1562 23.6852 14.4711 24 14.8594 24H17.6719C18.0602 24 18.375 23.6852 18.375 23.2969V20.4844C18.375 20.0961 18.0602 19.7812 17.6719 19.7812ZM14.4219 0.703125C14.4219 0.314812 14.1071 0 13.7188 0H11.6094V2.8125H14.4219V0.703125ZM10.2031 0H0.703125C0.314812 0 0 0.314812 0 0.703125V2.8125H10.2031V0Z" fill="white"/>
<path d="M14.4219 16.2656V15.5625H12.0469C10.8838 15.5625 9.9375 14.6163 9.9375 13.4531V9.23438C9.9375 8.07122 10.8838 7.125 12.0469 7.125H14.4219V4.21875H0V16.2656C0 16.6539 0.314812 16.9688 0.703125 16.9688H13.7188C14.1071 16.9688 14.4219 16.6539 14.4219 16.2656ZM7.12355 14.1094H2.8125C2.42419 14.1094 2.10938 13.7946 2.10938 13.4062C2.10938 13.0179 2.42419 12.7031 2.8125 12.7031H7.12355C7.51186 12.7031 7.82667 13.0179 7.82667 13.4062C7.82667 13.7946 7.51186 14.1094 7.12355 14.1094ZM7.12355 11.2969H2.8125C2.42419 11.2969 2.10938 10.9821 2.10938 10.5938C2.10938 10.2054 2.42419 9.89062 2.8125 9.89062H7.12355C7.51186 9.89062 7.82667 10.2054 7.82667 10.5938C7.82667 10.9821 7.51186 11.2969 7.12355 11.2969ZM7.12355 8.48438H2.8125C2.42419 8.48438 2.10938 8.16956 2.10938 7.78125C2.10938 7.39294 2.42419 7.07812 2.8125 7.07812H7.12355C7.51186 7.07812 7.82667 7.39294 7.82667 7.78125C7.82667 8.16956 7.51186 8.48438 7.12355 8.48438ZM22.5938 10.7616V14.8594C22.5938 15.2471 22.2784 15.5625 21.8906 15.5625H17.6719C16.5087 15.5625 15.5625 16.5087 15.5625 17.6719V18.375H16.9688V17.6719C16.9688 17.2841 17.2841 16.9688 17.6719 16.9688H21.8906C23.0538 16.9688 24 16.0225 24 14.8594V12.75C24 11.8334 23.4121 11.0519 22.5938 10.7616Z" fill="white"/>
</svg>
