<svg width="58" height="58" viewBox="0 0 58 58" fill="none" xmlns="http://www.w3.org/2000/svg">
<path d="M53.4922 31.4413V25.5279C53.4922 24.9415 53.2038 24.393 52.7208 24.0605C52.2377 23.7281 51.6223 23.6546 51.0748 23.8642L37.2964 29.1323H29.4453C27.6252 29.1323 26.1206 30.5046 25.9092 32.2685C23.4038 32.482 21.4297 34.5881 21.4297 37.1479C21.4297 39.7077 23.4038 41.8138 25.9092 42.0272C26.096 43.5857 27.2923 44.8375 28.8239 45.1081L33.0761 55.5453C33.4823 56.5425 34.4408 57.187 35.5178 57.187H37.4991C37.93 57.1873 38.3543 57.0818 38.7349 56.8799C39.1155 56.678 39.4408 56.3857 39.6822 56.0289C39.924 55.6723 40.0746 55.2619 40.1208 54.8335C40.1671 54.4052 40.1075 53.972 39.9473 53.5721L36.5866 45.1636H37.2964L51.0749 50.4318C51.3446 50.535 51.6354 50.5711 51.9222 50.5368C52.2089 50.5026 52.483 50.3991 52.7209 50.2354C52.9588 50.0716 53.1533 49.8525 53.2877 49.5969C53.422 49.3413 53.4922 49.0568 53.4922 48.768V42.8544C55.7693 42.4344 57.5 40.4354 57.5 38.0386V36.2573C57.5 33.8604 55.7693 31.8614 53.4922 31.4413ZM23.2109 37.1479C23.2109 35.5803 24.3742 34.2797 25.8828 34.0629V40.2315C24.3743 40.0148 23.2109 38.7155 23.2109 37.1479ZM27.6641 41.6011V32.6948C27.6641 31.7127 28.4632 30.9136 29.4453 30.9136H36.5703V43.3823H29.4453C28.4632 43.3823 27.6641 42.5832 27.6641 41.6011ZM38.2933 54.233C38.4003 54.5008 38.369 54.7913 38.2074 55.03C38.0456 55.2688 37.7875 55.4058 37.4991 55.4058H35.5178C35.3477 55.4062 35.1814 55.3557 35.0402 55.2608C34.899 55.1659 34.7895 55.0309 34.7257 54.8732L30.7699 45.1636H34.6684L38.2933 54.233ZM51.7109 48.768L38.3516 43.66V30.6359L51.7109 25.528V48.768ZM55.7188 38.0386C55.7188 39.448 54.7784 40.6418 53.4922 41.0258V33.2704C54.7784 33.6545 55.7188 34.8479 55.7188 36.2573V38.0386Z" fill="white"/>
<path d="M41.9141 25.5698C42.1503 25.5698 42.3768 25.476 42.5438 25.309C42.7109 25.1419 42.8047 24.9154 42.8047 24.6792V3.6531C42.8047 1.74193 41.2499 0.187012 39.3387 0.187012H9.75515C7.84387 0.187012 6.28906 1.74182 6.28906 3.6531V41.1558C6.28906 42.1379 7.08818 42.937 8.07031 42.937H20.5391C20.7753 42.937 21.0018 42.8432 21.1688 42.6762C21.3359 42.5091 21.4297 42.2826 21.4297 42.0464C21.4297 41.8102 21.3359 41.5836 21.1688 41.4166C21.0018 41.2496 20.7753 41.1558 20.5391 41.1558H8.07031V11.7651H41.0234V24.6792C41.0234 24.9154 41.1173 25.1419 41.2843 25.309C41.4513 25.476 41.6779 25.5698 41.9141 25.5698ZM8.07031 9.98389V3.6531C8.07031 2.72407 8.82612 1.96826 9.75515 1.96826H39.3387C40.2677 1.96826 41.0234 2.72407 41.0234 3.6531V9.98389H8.07031Z" fill="white"/>
<path d="M37.0156 4.64014C36.279 4.64014 35.6797 5.23942 35.6797 5.97607C35.6797 6.71273 36.279 7.31201 37.0156 7.31201C37.7523 7.31201 38.3516 6.71273 38.3516 5.97607C38.3516 5.23942 37.7523 4.64014 37.0156 4.64014ZM37.0156 6.42139C36.77 6.42139 36.5703 6.22166 36.5703 5.97607C36.5703 5.73048 36.77 5.53076 37.0156 5.53076C37.2612 5.53076 37.4609 5.73048 37.4609 5.97607C37.4609 6.22166 37.2612 6.42139 37.0156 6.42139ZM31.2266 4.64014C30.4899 4.64014 29.8906 5.23942 29.8906 5.97607C29.8906 6.71273 30.4899 7.31201 31.2266 7.31201C31.9632 7.31201 32.5625 6.71273 32.5625 5.97607C32.5625 5.23942 31.9632 4.64014 31.2266 4.64014ZM31.2266 6.42139C30.981 6.42139 30.7812 6.22166 30.7812 5.97607C30.7812 5.73048 30.981 5.53076 31.2266 5.53076C31.4722 5.53076 31.6719 5.73048 31.6719 5.97607C31.6719 6.22166 31.4722 6.42139 31.2266 6.42139ZM25.8828 5.08545H11.6328C11.3966 5.08545 11.1701 5.17928 11.003 5.34631C10.836 5.51333 10.7422 5.73987 10.7422 5.97607C10.7422 6.21228 10.836 6.43882 11.003 6.60584C11.1701 6.77287 11.3966 6.8667 11.6328 6.8667H25.8828C26.119 6.8667 26.3456 6.77287 26.5126 6.60584C26.6796 6.43882 26.7734 6.21228 26.7734 5.97607C26.7734 5.73987 26.6796 5.51333 26.5126 5.34631C26.3456 5.17928 26.119 5.08545 25.8828 5.08545ZM21.6438 16.1419C21.5278 16.0757 21.3985 16.0363 21.2654 16.0268C20.4931 15.9712 19.6569 16.2696 19.0827 16.8043C18.5861 17.2666 18.3126 17.876 18.3126 18.5203V28.1662C18.3126 28.9691 18.7272 29.6891 19.4216 30.092C19.771 30.2948 20.1549 30.3962 20.5389 30.3962C20.9181 30.3962 21.2975 30.2973 21.6438 30.0994L30.084 25.2765C30.6846 24.9334 31.073 24.3604 31.178 23.6632C31.3071 22.8064 30.9759 21.8591 30.2921 21.1293C30.2313 21.0644 30.1611 21.0089 30.0839 20.9648L21.6438 16.1419ZM29.4166 23.3979C29.3859 23.6022 29.2783 23.6853 29.2002 23.7299L20.7599 28.5529C20.559 28.6676 20.3822 28.59 20.3155 28.5513C20.2488 28.5126 20.0938 28.3977 20.0938 28.1662V18.5203C20.0938 18.465 20.0938 18.2966 20.2964 18.1079C20.4689 17.9472 20.7274 17.8346 20.9687 17.8076L29.0728 22.4385C29.3757 22.804 29.4512 23.1683 29.4166 23.3979ZM4.0625 48.7261H16.0859V55.4058H12.5234C12.2872 55.4058 12.0607 55.4996 11.8937 55.6666C11.7266 55.8336 11.6328 56.0602 11.6328 56.2964C11.6328 56.5326 11.7266 56.7591 11.8937 56.9262C12.0607 57.0932 12.2872 57.187 12.5234 57.187H29.8906C30.1268 57.187 30.3534 57.0932 30.5204 56.9262C30.6874 56.7591 30.7812 56.5326 30.7812 56.2964C30.7812 56.0602 30.6874 55.8336 30.5204 55.6666C30.3534 55.4996 30.1268 55.4058 29.8906 55.4058H17.8672V48.7261H26.7734C27.0096 48.7261 27.2362 48.6322 27.4032 48.4652C27.5702 48.2982 27.6641 48.0717 27.6641 47.8354C27.6641 47.5992 27.5702 47.3727 27.4032 47.2057C27.2362 47.0387 27.0096 46.9448 26.7734 46.9448H4.0625C3.08036 46.9448 2.28125 46.1457 2.28125 45.1636V13.5464C2.28125 12.5642 3.08036 11.7651 4.0625 11.7651C4.29871 11.7651 4.52524 11.6713 4.69227 11.5043C4.85929 11.3373 4.95312 11.1107 4.95312 10.8745C4.95312 10.6383 4.85929 10.4118 4.69227 10.2447C4.52524 10.0777 4.29871 9.98389 4.0625 9.98389C2.09812 9.98389 0.5 11.582 0.5 13.5464V45.1636C0.5 47.1278 2.09812 48.7261 4.0625 48.7261ZM47.7031 23.3433C47.9393 23.3433 48.1659 23.2494 48.3329 23.0824C48.4999 22.9154 48.5938 22.6888 48.5938 22.4526V13.5464C48.5938 11.582 46.9956 9.98389 45.0312 9.98389C44.795 9.98389 44.5685 10.0777 44.4015 10.2447C44.2345 10.4118 44.1406 10.6383 44.1406 10.8745C44.1406 11.1107 44.2345 11.3373 44.4015 11.5043C44.5685 11.6713 44.795 11.7651 45.0312 11.7651C46.0134 11.7651 46.8125 12.5642 46.8125 13.5464V22.4526C46.8125 22.6888 46.9063 22.9154 47.0734 23.0824C47.2404 23.2494 47.4669 23.3433 47.7031 23.3433Z" fill="white"/>
</svg>
