<svg width="22" height="22" viewBox="0 0 22 22" fill="none" xmlns="http://www.w3.org/2000/svg">
<path d="M7.02742 10.6232H5.27056C4.30166 10.6232 3.51371 11.4111 3.51371 12.38V14.1369C3.51371 15.1058 4.30166 15.8937 5.27056 15.8937H7.02742C7.99632 15.8937 8.78427 15.1058 8.78427 14.1369V12.38C8.78427 11.4111 7.99632 10.6232 7.02742 10.6232ZM5.27056 14.1369V12.38H7.02742V14.1369H5.27056ZM16.6901 1.83889H15.8117V0.960458C15.8117 0.475567 15.419 0.0820312 14.9333 0.0820312C14.4475 0.0820312 14.0548 0.475567 14.0548 0.960458V1.83889H7.02742V0.960458C7.02742 0.475567 6.63476 0.0820312 6.14899 0.0820312C5.66322 0.0820312 5.27056 0.475567 5.27056 0.960458V1.83889H4.39214C1.97031 1.83889 0 3.8092 0 6.23102V16.7721C0 19.194 1.97031 21.1643 4.39214 21.1643H16.6901C19.1119 21.1643 21.0823 19.194 21.0823 16.7721V6.23102C21.0823 3.8092 19.1119 1.83889 16.6901 1.83889ZM4.39214 3.59574H16.6901C18.143 3.59574 19.3254 4.7781 19.3254 6.23102V7.10945H1.75685V6.23102C1.75685 4.7781 2.93922 3.59574 4.39214 3.59574ZM16.6901 19.4074H4.39214C2.93922 19.4074 1.75685 18.2251 1.75685 16.7721V8.8663H19.3254V16.7721C19.3254 18.2251 18.143 19.4074 16.6901 19.4074Z" fill="white"/>
</svg>
