<svg width="22" height="22" viewBox="0 0 22 22" fill="none" xmlns="http://www.w3.org/2000/svg">
<path d="M6.62476 1.66699C6.25544 1.66699 5.95606 1.96638 5.95606 2.33569V4.40867C4.41804 4.74302 3.28125 6.08043 3.28125 7.68534C3.28125 9.29022 4.41804 10.6276 5.95606 10.962V19.722C5.95606 20.0912 6.25544 20.3907 6.62476 20.3907C6.99407 20.3907 7.29346 20.0912 7.29346 19.722V10.962C8.8315 10.6276 9.9683 9.29022 9.9683 7.68534C9.9683 6.08043 8.8315 4.74302 7.29346 4.40867V2.33569C7.29346 1.96638 6.99407 1.66699 6.62476 1.66699ZM8.63089 7.68534C8.63089 8.82213 7.76158 9.69144 6.62476 9.69144C5.48797 9.69144 4.61865 8.82213 4.61865 7.68534C4.61865 6.54852 5.48797 5.6792 6.62476 5.6792C7.76158 5.6792 8.63089 6.54852 8.63089 7.68534Z" fill="#7F7F7F"/>
<path d="M15.9841 20.3907C16.3534 20.3907 16.6528 20.0912 16.6528 19.722V17.649C18.1909 17.3146 19.3276 15.9772 19.3276 14.3724C19.3276 12.7675 18.1909 11.4301 16.6528 11.0957V2.33569C16.6528 1.96638 16.3534 1.66699 15.9841 1.66699C15.6148 1.66699 15.3154 1.96638 15.3154 2.33569V11.0957C13.7774 11.4301 12.6406 12.7675 12.6406 14.3724C12.6406 15.9772 13.7774 17.3146 15.3154 17.649V19.722C15.3154 20.0912 15.6148 20.3907 15.9841 20.3907ZM13.978 14.3724C13.978 13.2356 14.8473 12.3663 15.9841 12.3663C17.1209 12.3663 17.9902 13.2356 17.9902 14.3724C17.9902 15.5092 17.1209 16.3785 15.9841 16.3785C14.8473 16.3785 13.978 15.5092 13.978 14.3724Z" fill="#7F7F7F"/>
</svg>
