<svg width="23" height="23" viewBox="0 0 23 23" fill="none" xmlns="http://www.w3.org/2000/svg">
<path d="M12.3889 16.5612C12.3889 17.1151 11.9398 17.5642 11.3859 17.5642C10.8319 17.5642 10.3828 17.1151 10.3828 16.5612C10.3828 16.0072 10.8319 15.5581 11.3859 15.5581C11.9398 15.5581 12.3889 16.0072 12.3889 16.5612Z" fill="#7F7F7F"/>
<path d="M9.37647 9.53979C9.37647 8.43188 10.2746 7.53368 11.3826 7.53368C12.4905 7.53368 13.3887 8.43188 13.3887 9.53979V9.60425C13.3887 10.6766 12.5194 11.5459 11.447 11.5459C11.0421 11.5459 10.7139 11.8742 10.7139 12.2791V13.552C10.7139 13.9213 11.0132 14.2207 11.3826 14.2207C11.7519 14.2207 12.0513 13.9213 12.0513 13.552V12.8277C13.5736 12.5442 14.7261 11.2088 14.7261 9.60425V9.53979C14.7261 7.69323 13.2291 6.19629 11.3826 6.19629C9.53602 6.19629 8.03906 7.69323 8.03906 9.53979C8.03906 9.90911 8.33844 10.2085 8.70776 10.2085C9.07709 10.2085 9.37647 9.90911 9.37647 9.53979Z" fill="#7F7F7F"/>
<path fill-rule="evenodd" clip-rule="evenodd" d="M6.18411 3.76184C7.72365 2.73315 9.5337 2.18408 11.3853 2.18408C13.8682 2.18408 16.2494 3.17042 18.0051 4.9261C19.7608 6.68178 20.7471 9.06301 20.7471 11.5459C20.7471 13.3975 20.198 15.2075 19.1694 16.7471C18.1406 18.2866 16.6785 19.4865 14.9679 20.1951C13.2572 20.9037 11.3749 21.0891 9.55884 20.7278C7.74285 20.3666 6.07474 19.475 4.76546 18.1657C3.45618 16.8565 2.56456 15.1883 2.20332 13.3723C1.8421 11.5563 2.0275 9.67393 2.73607 7.96333C3.44464 6.25265 4.64457 4.79053 6.18411 3.76184ZM6.92714 18.218C8.24678 19.0997 9.79817 19.5703 11.3853 19.5703C13.5135 19.5703 15.5545 18.7249 17.0594 17.22C18.5643 15.7152 19.4097 13.6741 19.4097 11.5459C19.4097 9.9588 18.9391 8.40741 18.0573 7.08778C17.1756 5.76817 15.9223 4.73966 14.4561 4.13231C12.9898 3.52496 11.3764 3.36605 9.81977 3.67568C8.26323 3.9853 6.83338 4.74955 5.71114 5.87179C4.58891 6.99402 3.82466 8.42386 3.51503 9.9804C3.20541 11.537 3.36432 13.1504 3.97167 14.6167C4.57902 16.083 5.60753 17.3363 6.92714 18.218Z" fill="#7F7F7F"/>
</svg>
