<svg width="58" height="58" viewBox="0 0 58 58" fill="none" xmlns="http://www.w3.org/2000/svg">
<path d="M21.9067 8.12131C22.4133 8.12131 22.8567 7.67699 22.8567 7.16919C22.8567 6.6614 22.4133 6.21708 21.9067 6.21708C21.4 6.21708 20.9567 6.6614 20.9567 7.16919C20.9567 7.74046 21.3367 8.12131 21.9067 8.12131ZM15.0033 8.12131C15.51 8.12131 15.9533 7.67699 15.9533 7.16919C15.9533 6.6614 15.51 6.21708 15.0033 6.21708C14.4967 6.21708 14.0533 6.6614 14.0533 7.16919C14.0533 7.74046 14.4967 8.12131 15.0033 8.12131ZM8.1 8.12131C8.60667 8.12131 9.05 7.67699 9.05 7.16919C9.05 6.6614 8.60667 6.21708 8.1 6.21708C7.59333 6.21708 7.15 6.6614 7.15 7.16919C7.15 7.74046 7.59333 8.12131 8.1 8.12131Z" fill="white"/>
<path d="M54.46 0.187012H3.54C1.83 0.187012 0.5 1.51997 0.5 3.17031V48.3006C0.5 49.9509 1.83 51.3474 3.54 51.3474H23.8067V56.2349C23.8067 56.5523 23.9333 56.8062 24.1867 56.9966C24.3767 57.1235 24.5667 57.187 24.7567 57.187H25.01L33.4967 54.9654C33.94 54.8385 34.1933 54.4576 34.1933 54.0133V51.3474H54.46C56.1067 51.3474 57.5 50.0144 57.5 48.3006V3.17031C57.5 1.51997 56.17 0.187012 54.46 0.187012ZM3.54 2.09124H54.5233C55.1567 2.09124 55.6633 2.59904 55.6633 3.23378V7.86741H28.5567C28.3033 7.86741 28.05 7.93089 27.9233 8.12131L23.49 12.3106H2.4V3.17031C2.4 2.59904 2.90667 2.09124 3.54 2.09124ZM44.2633 30.6547L32.8633 41.3819H25.1367L13.7367 30.6547H44.2633ZM29 21.0066C28.1133 21.0066 27.4167 20.3084 27.4167 19.4198C27.4167 18.5311 28.1133 17.8329 29 17.8329C29.8867 17.8329 30.5833 18.5311 30.5833 19.4198C30.5833 20.3084 29.8867 21.0066 29 21.0066ZM32.2933 53.2516L25.7067 54.9654V43.2861H32.2933V53.2516ZM54.46 49.4431H34.1933V42.7148L47.3667 30.4008C47.62 30.1469 47.7467 29.7026 47.62 29.3852C47.4933 29.0044 47.1133 28.814 46.7333 28.814H38.12V24.6881L42.49 23.4821C43.1233 24.4977 44.2 25.1959 45.4667 25.1959C47.3667 25.1959 48.95 23.6091 48.95 21.7048C48.95 19.8006 47.3667 18.2137 45.4667 18.2137C43.5667 18.2137 41.9833 19.7371 41.9833 21.6414L36.9167 23.0378C36.4733 23.1647 36.22 23.5456 36.22 23.9264V28.7505H29.95V22.7839C31.4067 22.3396 32.4833 21.0066 32.4833 19.4198C32.4833 17.5155 30.9 15.9287 29 15.9287C27.1 15.9287 25.5167 17.5155 25.5167 19.4198C25.5167 21.0066 26.5933 22.3396 28.05 22.7839V28.7505H21.78V23.9264C21.78 23.4821 21.4633 23.1013 21.0833 23.0378L16.0167 21.6414C16.0167 19.7371 14.4333 18.2137 12.5333 18.2137C10.6333 18.2137 9.05 19.8006 9.05 21.7048C9.05 23.6091 10.6333 25.1959 12.5333 25.1959C13.8 25.1959 14.94 24.4977 15.51 23.4821L19.88 24.6881V28.814H11.33C10.95 28.814 10.57 29.0679 10.4433 29.3852C10.3167 29.7661 10.38 30.1469 10.6967 30.4008L23.8067 42.7148V49.3797H3.54C2.90667 49.3797 2.4 48.8719 2.4 48.2371V14.2149H23.87C24.1233 14.2149 24.3767 14.1514 24.5033 13.961L28.9367 9.77164H55.6V48.3641C55.6 48.9353 55.0933 49.4431 54.46 49.4431ZM43.8833 21.6414C43.8833 20.7527 44.58 20.0545 45.4667 20.0545C46.3533 20.0545 47.05 20.7527 47.05 21.6414C47.05 22.53 46.3533 23.2282 45.4667 23.2282C44.58 23.2282 43.8833 22.53 43.8833 21.6414ZM12.5333 23.2282C11.6467 23.2282 10.95 22.53 10.95 21.6414C10.95 20.7527 11.6467 20.0545 12.5333 20.0545C13.42 20.0545 14.1167 20.7527 14.1167 21.6414C14.1167 22.53 13.42 23.2282 12.5333 23.2282Z" fill="white"/>
</svg>
