<svg width="18" height="13" viewBox="0 0 18 13" fill="none" xmlns="http://www.w3.org/2000/svg">
<path fill-rule="evenodd" clip-rule="evenodd" d="M1.78581 6.04835C1.78581 6.7032 2.33104 7.23621 3.00174 7.23621C3.67208 7.23621 4.21768 6.70357 4.21768 6.04835C4.21768 5.8207 4.15158 5.60801 4.0373 5.42706L6.26639 3.45375C6.47066 3.60552 6.72498 3.69599 7.00095 3.69599C7.3617 3.69599 7.68622 3.54131 7.90917 3.29688L9.86079 4.44278C9.81022 4.57511 9.78442 4.71524 9.78461 4.85648C9.78461 5.51134 10.3298 6.04434 11.0005 6.04434C11.6709 6.04434 12.2165 5.5117 12.2165 4.85648C12.2165 4.62118 12.1459 4.40192 12.0249 4.21732L14.2827 2.14624C14.4907 2.29552 14.7421 2.37593 15.0001 2.37571C15.6705 2.37571 16.2161 1.84307 16.2161 1.18785C16.2161 0.533002 15.6705 0 15.0001 0C14.3298 0 13.7842 0.532638 13.7842 1.18785C13.7842 1.42316 13.8548 1.64242 13.9758 1.82702L11.7179 3.8981C11.51 3.74882 11.2586 3.66841 11.0005 3.66863C10.6398 3.66863 10.3153 3.82331 10.0923 4.06774L8.14071 2.92184C8.19 2.79306 8.21689 2.6537 8.21689 2.50814C8.21689 1.85329 7.67129 1.32028 7.00095 1.32028C6.33062 1.32028 5.78502 1.85292 5.78502 2.50814C5.78475 2.7276 5.84722 2.94278 5.96539 3.12943L3.73631 5.10237C3.53203 4.95061 3.27734 4.86013 3.00174 4.86013C2.33141 4.8605 1.78581 5.3935 1.78581 6.04835ZM4.25129 8.56634C4.3749 8.56634 4.47535 8.66448 4.47535 8.78523V12.5626H5.52697V6.06185C5.52697 5.9411 5.62743 5.84296 5.75104 5.84296H8.2505C8.37448 5.84296 8.47456 5.9411 8.47456 6.06185V12.5626H9.52618V7.78417C9.52618 7.66341 9.62664 7.56527 9.75025 7.56527H12.2497C12.3733 7.56527 12.4738 7.66341 12.4738 7.78417V12.5626H13.5254V4.68684C13.5254 4.56572 13.6259 4.46795 13.7495 4.46795H16.2489C16.3725 4.46795 16.473 4.56609 16.473 4.68684V12.5622H17.7759C17.8999 12.5622 18 12.6604 18 12.7811C18 12.9019 17.8999 13 17.7759 13H0.224066C0.100456 13 0 12.9019 0 12.7811C0 12.6604 0.100456 12.5622 0.224066 12.5622H1.52739V8.78523C1.52739 8.66448 1.62784 8.56634 1.75145 8.56634H4.25129Z" fill="white"/>
</svg>
