<svg width="15" height="19" viewBox="0 0 15 19" fill="none" xmlns="http://www.w3.org/2000/svg">
<path d="M1.90093 15.2586C2.05648 15.2586 2.19259 15.2392 2.30926 15.2003L5.45926 14.5586C5.80926 14.5198 6.12037 14.3642 6.39259 14.092L13.9759 6.39198C14.5593 5.80865 14.8509 5.0892 14.8509 4.23365C14.8509 3.37809 14.5593 2.6392 13.9759 2.01698L13.3343 1.37531C12.712 0.791977 11.9731 0.500311 11.1176 0.500311C10.262 0.500311 9.54259 0.791977 8.95926 1.37531L1.37593 9.01698C1.1037 9.2892 0.948148 9.60031 0.909259 9.95031L0.150926 13.1003C0.0731481 13.6059 0.17037 14.0628 0.442593 14.4711C0.714815 14.8795 1.1037 15.1225 1.60926 15.2003C1.68704 15.2392 1.78426 15.2586 1.90093 15.2586ZM2.54259 10.3003L10.1259 2.65864C10.3981 2.38642 10.7287 2.25031 11.1176 2.25031C11.5065 2.25031 11.837 2.38642 12.1093 2.65864L12.7509 3.30031C13.0231 3.53364 13.1787 3.83503 13.2176 4.20448C13.2565 4.57392 13.1398 4.89476 12.8676 5.16698C12.8676 5.20587 12.8676 5.24476 12.8676 5.28364L5.16759 12.9836L1.90093 13.567L2.54259 10.3003ZM13.9176 16.367H1.02593C0.792593 16.367 0.598148 16.435 0.442593 16.5711C0.287037 16.7073 0.189815 16.8725 0.150926 17.067V17.1836C0.150926 17.4559 0.228704 17.6698 0.384259 17.8253C0.539815 17.9809 0.753704 18.0586 1.02593 18.0586H13.8593C14.0926 18.0975 14.2968 18.0392 14.4718 17.8836C14.6468 17.7281 14.7537 17.5336 14.7926 17.3003C14.8315 17.067 14.7731 16.8725 14.6176 16.717C14.462 16.5614 14.2676 16.4642 14.0343 16.4253C13.9954 16.3864 13.9565 16.367 13.9176 16.367Z" fill="white"/>
</svg>
