<svg width="58" height="58" viewBox="0 0 58 58" fill="none" xmlns="http://www.w3.org/2000/svg">
<path d="M57.5 24.0902H55.4341L52.3551 25.7104C52.0086 25.5191 51.6481 25.357 51.2593 25.2597L47.3862 24.2904V23.8501C49.0996 22.6542 50.1452 20.6786 50.1452 18.5741V16.9671C50.1452 13.3956 47.3466 10.4068 43.9072 10.3026C43.7325 10.2981 43.5606 10.3044 43.3878 10.3129L44.392 7.962L39.5236 3.09505L36.6539 4.96294C35.5681 4.35091 34.4127 3.87163 33.2125 3.53542L32.5037 0.187012H25.4973L24.7884 3.53634C23.5882 3.87235 22.4328 4.3516 21.3471 4.96375L18.4773 3.09585L13.6129 7.96027L14.6 10.3129C14.5623 10.3112 14.5265 10.3044 14.4888 10.3035C12.7282 10.2523 11.0699 10.8947 9.81031 12.1175C8.54884 13.3395 7.85484 14.9794 7.85484 16.7354V18.5741C7.85484 20.6786 8.89946 22.6533 10.6129 23.8491V24.2904L8.08652 24.922L3.50721 22.2515H0.5V41.3017L9.5445 44.316H11.306L11.5259 43.5457L14.2984 45.2098C14.3438 46.7173 15.5526 47.9301 17.0587 47.9831C17.1116 49.4828 18.3171 50.6883 19.8168 50.7412C19.8697 52.2409 21.0752 53.4464 22.5749 53.4992C22.6296 55.0341 23.8865 56.2677 25.4339 56.2677C26.0085 56.2677 26.5719 56.0885 27.0455 55.7694L27.8598 56.4885C28.3709 56.9387 29.0286 57.187 29.7097 57.187H29.8798C31.4097 57.187 32.6545 55.9502 32.6739 54.4254C34.1871 54.4061 35.4126 53.1806 35.4319 51.6673C36.9461 51.648 38.1724 50.4207 38.19 48.9065C39.7181 48.8706 40.9516 47.6223 40.9516 46.0856C40.9516 45.9932 40.947 45.902 40.9377 45.81L57.5 37.5295V24.0902ZM48.3064 16.9671V18.5741C48.3064 20.206 47.4248 21.7304 46.0054 22.5523L45.5457 22.8181L45.5492 25.7274L50.1425 26.8747L40.0323 32.1961V29.7196C40.0323 28.4836 39.533 27.352 38.7156 26.5156L41.871 25.7274V22.8158L41.4122 22.5505C39.9936 21.7304 39.1129 20.2058 39.1129 18.5741V16.7354C39.1129 15.4816 39.6086 14.3091 40.5094 13.4361C41.4095 12.5633 42.6036 12.0929 43.8519 12.1413C46.3079 12.2149 48.3064 14.3799 48.3064 16.9671ZM30.3862 31.4733L26.2245 30.1433C24.3278 29.5353 22.2749 29.4448 20.3335 29.8748L19.8064 29.9916V29.7194C19.8064 28.4519 20.666 27.3511 21.8952 27.0431L27.1613 25.7274V22.8158L26.7025 22.5505C25.284 21.7304 24.4032 20.2058 24.4032 18.5741V16.7354C24.4032 15.4816 24.8989 14.3091 25.7997 13.4361C26.6998 12.5633 27.9016 12.0929 29.1423 12.1413C31.5982 12.2149 33.5968 14.3799 33.5968 16.9671V18.5741C33.5968 20.206 32.7151 21.7304 31.2957 22.5523L30.8361 22.8181L30.8395 25.7274L36.1048 27.0432C36.7017 27.1922 37.2316 27.5365 37.6101 28.0215C37.9886 28.5065 38.194 29.1041 38.1935 29.7193V33.1643L37.9664 33.2838H37.403L31.7508 31.6686C31.3055 31.5425 30.8468 31.4908 30.3862 31.4733ZM20.0125 13.9468C21.7389 10.6016 25.214 8.46121 29 8.46121C32.7502 8.46121 36.2103 10.5728 37.9498 13.8728C37.5052 14.7615 37.2739 15.7416 37.2742 16.7354V18.5741C37.2742 20.6785 38.3188 22.6533 40.0323 23.8491V24.2904L36.3548 25.2112L32.6765 24.2904V23.8501C34.3899 22.6542 35.4355 20.6785 35.4355 18.5741V16.9671C35.4355 13.3955 32.637 10.4068 29.1975 10.3026C27.4378 10.251 25.7787 10.8938 24.5191 12.1167C23.2585 13.3394 22.5645 14.9793 22.5645 16.7354V18.5741C22.5645 20.6785 23.6091 22.6533 25.3226 23.8491V24.2904L21.6452 25.2112L17.9668 24.2904V23.8501C19.6803 22.6542 20.7258 20.6785 20.7258 18.5741V16.9671C20.7258 15.8852 20.4654 14.8581 20.0125 13.9468ZM15.7843 8.38674L18.7215 5.44951L21.3067 7.13193L21.8013 6.82855C23.0409 6.06893 24.3804 5.51272 25.7823 5.1775L26.3479 5.04189L26.9875 2.02572H31.0134L31.6512 5.04098L32.2168 5.17612C33.6188 5.51192 34.9583 6.06812 36.1976 6.82763L36.6924 7.13101L39.2777 5.44859L42.2111 8.38306L41.1684 10.8246C40.4586 11.13 39.8005 11.5595 39.2277 12.1148C39.19 12.1516 39.1576 12.1911 39.1208 12.2288C36.9551 8.78585 33.1258 6.6225 29 6.6225C24.8445 6.6225 21.0046 8.80596 18.844 12.2841C18.2658 11.6789 17.5781 11.1887 16.8159 10.8462L15.7843 8.38674ZM12.4516 25.7274V22.8158L11.9929 22.5505C10.5743 21.7304 9.69355 20.2058 9.69355 18.5741V16.7354C9.69355 15.4816 10.1892 14.3091 11.09 13.4361C11.9901 12.5633 13.1869 12.0929 14.4326 12.1413C16.8885 12.2149 18.8871 14.3799 18.8871 16.9671V18.5741C18.8871 20.206 18.0054 21.7304 16.5861 22.5523L16.1264 22.8181L16.1298 25.7274L19.2844 26.5157C18.467 27.3519 17.9677 28.4836 17.9677 29.7193V30.4003L15.1002 31.0378L15.1746 30.7774L15.2097 29.0783L10.3611 26.2498L12.4516 25.7274ZM2.33871 24.0902H3.00892L9.6208 27.9468L6.28458 41.2912L2.33871 39.9755V24.0902ZM9.8426 42.4773L8.03308 41.8745L11.2741 28.9116L13.371 30.1342V30.3968L9.91982 42.4773H9.8426ZM16.129 45.124C16.1297 44.8508 16.2381 44.5888 16.4307 44.395L18.0468 42.779C18.2406 42.5864 18.5024 42.478 18.7756 42.4773C19.344 42.4773 19.8063 42.9397 19.8063 43.508C19.8057 43.7813 19.6973 44.0433 19.5047 44.2371L17.8886 45.8531C17.6948 46.0456 17.433 46.154 17.1599 46.1548C16.5915 46.1548 16.1291 45.6924 16.1291 45.124H16.129ZM18.8871 47.8821C18.8877 47.6089 18.9961 47.3469 19.1888 47.1531L20.8049 45.5371C20.9986 45.3445 21.2605 45.2361 21.5337 45.2354C22.1021 45.2354 22.5644 45.6977 22.5644 46.2661C22.5638 46.5394 22.4554 46.8013 22.2627 46.9952L20.6466 48.6112C20.4529 48.8037 20.1911 48.9121 19.9179 48.9128C19.3495 48.9128 18.8872 48.4505 18.8872 47.8821H18.8871ZM21.6452 50.6402C21.6458 50.3669 21.7542 50.1049 21.9468 49.9111L23.5629 48.2951C23.7567 48.1026 24.0186 47.9942 24.2918 47.9935C24.8601 47.9935 25.3225 48.4558 25.3225 49.0242C25.3218 49.2974 25.2134 49.5594 25.0208 49.7532L23.4047 51.3692C23.211 51.5618 22.9491 51.6701 22.676 51.6709C22.1076 51.6709 21.6453 51.2086 21.6453 50.6402H21.6452ZM25.4339 54.4289C24.8655 54.4289 24.4032 53.9666 24.4032 53.3982C24.4039 53.125 24.5123 52.863 24.7049 52.6692L26.321 51.0532C26.5148 50.8606 26.7766 50.7522 27.0498 50.7515C27.6182 50.7515 28.0805 51.2138 28.0805 51.7822C28.0799 52.0555 27.9715 52.3175 27.7789 52.5113L26.1628 54.1273C25.969 54.3198 25.7072 54.4282 25.4341 54.4289H25.4339ZM29.8798 55.3483H29.7097C29.4763 55.3486 29.2509 55.2631 29.0763 55.1081L28.3886 54.5017L29.0789 53.8113C29.3254 53.5648 29.5168 53.2717 29.6581 52.9569L30.4939 53.6528C30.602 53.7427 30.6889 53.8553 30.7485 53.9826C30.8081 54.11 30.8389 54.2488 30.8387 54.3894C30.8387 54.9183 30.4087 55.3483 29.8798 55.3483ZM38.1244 47.0741H37.9655C37.7343 47.074 37.5104 46.9927 37.333 46.8443L32.3475 42.6897L31.1696 44.1029L36.011 48.1367C36.1188 48.2267 36.2054 48.3394 36.2649 48.4667C36.3243 48.594 36.355 48.7328 36.3548 48.8733C36.3548 49.4021 35.9248 49.8322 35.396 49.8322H35.1953C34.9711 49.8319 34.7542 49.7531 34.5821 49.6095L29.5885 45.4486L28.4106 46.8617L33.252 50.8961C33.3601 50.9856 33.4471 51.098 33.5067 51.2251C33.5663 51.3522 33.5971 51.491 33.5968 51.6313C33.5968 52.1602 33.1667 52.5902 32.6379 52.5902C32.2851 52.5902 31.9412 52.465 31.6705 52.2401L29.6186 50.5297C29.1665 49.6059 28.2377 48.9618 27.1501 48.9232C27.097 47.4235 25.8918 46.218 24.3921 46.1651C24.339 44.6654 23.1337 43.4599 21.634 43.407C21.58 41.8722 20.3231 40.6386 18.7757 40.6386C18.0203 40.6386 17.2809 40.9448 16.7467 41.479L15.1307 43.095C15.0342 43.1916 14.9542 43.3011 14.873 43.4097L12.0489 41.7151L14.5246 33.0504L20.7312 31.6704C22.3594 31.3064 24.0759 31.3854 25.6638 31.8935L27.0181 32.3267L22.4267 34.6224C21.3775 35.1481 20.7258 36.2034 20.7258 37.377V37.5587C20.7258 39.257 22.1075 40.6386 23.8056 40.6386C24.3637 40.6386 24.9128 40.4869 25.3899 40.1992L28.8133 38.1463C29.5009 37.7343 30.424 37.8245 31.0179 38.3586L38.7856 45.3494C38.8885 45.4425 38.9707 45.5561 39.0271 45.6829C39.0834 45.8097 39.1127 45.9468 39.1129 46.0856C39.1129 46.6311 38.6699 47.0741 38.1244 47.0741ZM55.6613 36.3929L40.1728 44.1378C40.1224 44.0844 40.0696 44.0331 40.0148 43.9843L32.2483 36.9935C31.5691 36.3801 30.6863 36.041 29.7711 36.0419C29.1001 36.042 28.4418 36.2245 27.8664 36.5698L24.4417 38.6234C24.2497 38.7391 24.0298 38.8001 23.8056 38.7999C23.1207 38.7999 22.5645 38.2437 22.5645 37.5588V37.3769C22.5645 36.9034 22.8277 36.4787 23.2505 36.2672L28.3787 33.703C29.2563 33.2636 30.2982 33.1652 31.244 33.4373L37.0215 35.0876L38.4207 35.1225L55.6613 26.0485V36.3929Z" fill="white"/>
</svg>
