<svg width="185" height="178" viewBox="0 0 185 178" fill="none" xmlns="http://www.w3.org/2000/svg">
<path opacity="0.2" d="M23.5 23.0741C23.5 21.1182 24.0781 19.2063 25.1612 17.5801C26.2443 15.9539 27.7838 14.6864 29.585 13.9379C31.3861 13.1895 33.3681 12.9936 35.2802 13.3752C37.1923 13.7568 38.9487 14.6986 40.3272 16.0816C41.7057 17.4646 42.6445 19.2266 43.0249 21.1448C43.4052 23.0631 43.21 25.0514 42.464 26.8584C41.7179 28.6653 40.4545 30.2098 38.8335 31.2964C37.2125 32.383 35.3067 32.963 33.3571 32.963C30.7437 32.9603 28.238 31.9176 26.39 30.0637C24.542 28.2097 23.5026 25.696 23.5 23.0741ZM95.7857 39.5556H135.214V52.7407H125.357C124.738 52.7405 124.131 52.9158 123.607 53.2463C123.083 53.5769 122.663 54.0493 122.394 54.6091C122.126 55.169 122.021 55.7934 122.091 56.4105C122.162 57.0277 122.404 57.6124 122.791 58.0972L135.934 74.5787C136.242 74.9649 136.632 75.2766 137.076 75.4909C137.521 75.7051 138.007 75.8164 138.5 75.8164C138.993 75.8164 139.479 75.7051 139.924 75.4909C140.368 75.2766 140.758 74.9649 141.066 74.5787L154.209 58.0972C154.596 57.6124 154.838 57.0277 154.909 56.4105C154.979 55.7934 154.874 55.169 154.606 54.6091C154.337 54.0493 153.917 53.5769 153.393 53.2463C152.869 52.9158 152.262 52.7405 151.643 52.7407H141.786V36.2593C141.786 35.385 141.44 34.5466 140.823 33.9284C140.207 33.3103 139.371 32.963 138.5 32.963H95.7857C94.9143 32.963 94.0786 33.3103 93.4624 33.9284C92.8462 34.5466 92.5 35.385 92.5 36.2593C92.5 37.1335 92.8462 37.9719 93.4624 38.5901C94.0786 39.2083 94.9143 39.5556 95.7857 39.5556ZM59.6429 131.852C59.6429 132.726 59.2967 133.565 58.6805 134.183C58.0643 134.801 57.2286 135.148 56.3571 135.148H33.3571C32.4857 135.148 31.65 134.801 31.0338 134.183C30.4176 133.565 30.0714 132.726 30.0714 131.852V105.481H20.2143C19.5952 105.482 18.9886 105.306 18.4644 104.976C17.9402 104.645 17.5198 104.173 17.2516 103.613C16.9834 103.053 16.8783 102.429 16.9485 101.812C17.0187 101.195 17.2612 100.61 17.6481 100.125L30.791 83.6435C31.1102 83.2752 31.5045 82.98 31.9472 82.7776C32.3899 82.5753 32.8707 82.4706 33.3571 82.4706C33.8436 82.4706 34.3244 82.5753 34.7671 82.7776C35.2098 82.98 35.6041 83.2752 35.9233 83.6435L49.0661 100.125C49.4531 100.61 49.6956 101.195 49.7658 101.812C49.8359 102.429 49.7309 103.053 49.4627 103.613C49.1945 104.173 48.7741 104.645 48.2499 104.976C47.7257 105.306 47.1191 105.482 46.5 105.481H36.6429V128.556H56.3571C57.2286 128.556 58.0643 128.903 58.6805 129.521C59.2967 130.139 59.6429 130.978 59.6429 131.852ZM39.6624 98.8889L33.3571 90.9778L27.0519 98.8889H39.6624ZM82.6429 72.5185H3.78571C2.91429 72.5185 2.07856 72.1712 1.46236 71.5531C0.846173 70.9349 0.5 70.0965 0.5 69.2222V3.2963C0.5 2.42206 0.846173 1.58364 1.46236 0.965463C2.07856 0.347288 2.91429 0 3.78571 0H82.6429C83.5143 0 84.35 0.347288 84.9662 0.965463C85.5824 1.58364 85.9286 2.42206 85.9286 3.2963V69.2222C85.9286 70.0965 85.5824 70.9349 84.9662 71.5531C84.35 72.1712 83.5143 72.5185 82.6429 72.5185ZM79.3571 6.59259H7.07143V64.2119L25.1231 43.5144C25.7581 42.8377 26.5244 42.2986 27.3748 41.93C28.2252 41.5614 29.1418 41.3713 30.0681 41.3713C30.9945 41.3713 31.9111 41.5614 32.7615 41.93C33.6119 42.2986 34.3782 42.8377 35.0131 43.5144L42.0019 51.5244L50.9324 35.8439C51.4821 34.8793 52.2658 34.0698 53.2109 33.4904C54.1559 32.9111 55.2315 32.5807 56.3379 32.5301C57.4442 32.4794 58.5454 32.7101 59.5391 33.2007C60.5328 33.6913 61.3868 34.4259 62.0217 35.3363L79.3571 60.1772V6.59259ZM184.5 92.2963V171.407C184.498 173.155 183.805 174.831 182.573 176.067C181.341 177.303 179.671 177.998 177.929 178H72.7857C71.0434 177.998 69.3729 177.303 68.1409 176.067C66.9089 174.831 66.216 173.155 66.2143 171.407V92.2963C66.216 90.5484 66.9089 88.8725 68.1409 87.6366C69.3729 86.4006 71.0434 85.7055 72.7857 85.7037H177.929C179.671 85.7055 181.341 86.4006 182.573 87.6366C183.805 88.8725 184.498 90.5484 184.5 92.2963ZM177.929 165.982V92.2963H72.7857V165.903L97.1197 133.273C97.7506 132.495 98.5456 131.868 99.4474 131.436C100.349 131.004 101.335 130.779 102.335 130.776C103.334 130.772 104.321 130.992 105.226 131.418C106.13 131.844 106.929 132.466 107.565 133.24L114.941 142.858L129.931 117.8C130.48 116.881 131.245 116.111 132.158 115.555C133.071 115 134.105 114.676 135.171 114.612C136.237 114.548 137.302 114.745 138.275 115.187C139.248 115.628 140.099 116.301 140.754 117.147L177.929 165.982ZM102.357 98.8889C100.408 98.8889 98.5018 99.4689 96.8808 100.555C95.2598 101.642 93.9964 103.187 93.2503 104.993C92.5043 106.8 92.3091 108.789 92.6894 110.707C93.0697 112.625 94.0086 114.387 95.3871 115.77C96.7656 117.153 98.522 118.095 100.434 118.477C102.346 118.858 104.328 118.662 106.129 117.914C107.93 117.165 109.47 115.898 110.553 114.272C111.636 112.646 112.214 110.734 112.214 108.778C112.212 106.156 111.172 103.642 109.324 101.788C107.476 99.9342 104.971 98.8915 102.357 98.8889Z" fill="white"/>
</svg>
