<svg width="63" height="60" viewBox="0 0 63 60" fill="none" xmlns="http://www.w3.org/2000/svg">
<path d="M8 7.77778C8 7.11851 8.1948 6.47404 8.55976 5.92588C8.92472 5.37771 9.44346 4.95047 10.0504 4.69818C10.6573 4.44589 11.3251 4.37988 11.9694 4.50849C12.6137 4.63711 13.2055 4.95458 13.67 5.42075C14.1345 5.88693 14.4509 6.48087 14.579 7.12748C14.7072 7.77408 14.6414 8.4443 14.39 9.05339C14.1386 9.66248 13.7129 10.1831 13.1667 10.5493C12.6205 10.9156 11.9783 11.1111 11.3214 11.1111C10.4408 11.1102 9.59649 10.7588 8.97379 10.1338C8.3511 9.5089 8.00088 8.66156 8 7.77778ZM32.3571 13.3333H45.6429V17.7778H42.3214C42.1128 17.7777 41.9084 17.8368 41.7318 17.9482C41.5552 18.0596 41.4135 18.2189 41.3231 18.4076C41.2328 18.5963 41.1974 18.8068 41.221 19.0148C41.2446 19.2228 41.3264 19.4199 41.4567 19.5833L45.8853 25.1389C45.989 25.2691 46.1206 25.3741 46.2703 25.4464C46.42 25.5186 46.5839 25.5561 46.75 25.5561C46.9161 25.5561 47.08 25.5186 47.2297 25.4464C47.3794 25.3741 47.511 25.2691 47.6147 25.1389L52.0432 19.5833C52.1736 19.4199 52.2554 19.2228 52.279 19.0148C52.3026 18.8068 52.2672 18.5963 52.1769 18.4076C52.0865 18.2189 51.9448 18.0596 51.7682 17.9482C51.5916 17.8368 51.3872 17.7777 51.1786 17.7778H47.8571V12.2222C47.8571 11.9275 47.7405 11.6449 47.5329 11.4365C47.3252 11.2282 47.0436 11.1111 46.75 11.1111H32.3571C32.0635 11.1111 31.7819 11.2282 31.5743 11.4365C31.3666 11.6449 31.25 11.9275 31.25 12.2222C31.25 12.5169 31.3666 12.7995 31.5743 13.0079C31.7819 13.2163 32.0635 13.3333 32.3571 13.3333ZM20.1786 44.4444C20.1786 44.7391 20.0619 45.0217 19.8543 45.2301C19.6467 45.4385 19.3651 45.5556 19.0714 45.5556H11.3214C11.0278 45.5556 10.7462 45.4385 10.5386 45.2301C10.3309 45.0217 10.2143 44.7391 10.2143 44.4444V35.5556H6.89286C6.68424 35.5556 6.47984 35.4966 6.30322 35.3851C6.12659 35.2737 5.98494 35.1145 5.89457 34.9258C5.8042 34.7371 5.76879 34.5266 5.79243 34.3185C5.81607 34.1105 5.89779 33.9134 6.02818 33.75L10.4567 28.1944C10.5643 28.0703 10.6972 27.9708 10.8463 27.9026C10.9955 27.8344 11.1575 27.7991 11.3214 27.7991C11.4853 27.7991 11.6474 27.8344 11.7965 27.9026C11.9457 27.9708 12.0785 28.0703 12.1861 28.1944L16.6147 33.75C16.7451 33.9134 16.8268 34.1105 16.8504 34.3185C16.8741 34.5266 16.8387 34.7371 16.7483 34.9258C16.6579 35.1145 16.5163 35.2737 16.3396 35.3851C16.163 35.4966 15.9586 35.5556 15.75 35.5556H12.4286V43.3333H19.0714C19.3651 43.3333 19.6467 43.4504 19.8543 43.6588C20.0619 43.8671 20.1786 44.1498 20.1786 44.4444ZM13.446 33.3333L11.3214 30.6667L9.19682 33.3333H13.446ZM27.9286 24.4444H1.35714C1.06351 24.4444 0.781904 24.3274 0.574275 24.119C0.366645 23.9106 0.25 23.628 0.25 23.3333V1.11111C0.25 0.816426 0.366645 0.533811 0.574275 0.325437C0.781904 0.117063 1.06351 0 1.35714 0H27.9286C28.2222 0 28.5038 0.117063 28.7114 0.325437C28.9191 0.533811 29.0357 0.816426 29.0357 1.11111V23.3333C29.0357 23.628 28.9191 23.9106 28.7114 24.119C28.5038 24.3274 28.2222 24.4444 27.9286 24.4444ZM26.8214 2.22222H2.46429V21.6444L8.54693 14.6678C8.76089 14.4397 9.01909 14.2579 9.30564 14.1337C9.59219 14.0095 9.90103 13.9454 10.2132 13.9454C10.5253 13.9454 10.8342 14.0095 11.1207 14.1337C11.4073 14.2579 11.6655 14.4397 11.8794 14.6678L14.2343 17.3678L17.2435 12.0822C17.4287 11.7571 17.6928 11.4842 18.0113 11.2889C18.3297 11.0936 18.6921 10.9823 19.0649 10.9652C19.4377 10.9481 19.8088 11.0259 20.1436 11.1913C20.4784 11.3566 20.7662 11.6042 20.9801 11.9111L26.8214 20.2844V2.22222ZM62.25 31.1111V57.7778C62.2494 58.367 62.0159 58.9319 61.6008 59.3485C61.1857 59.7651 60.6228 59.9994 60.0357 60H24.6071C24.0201 59.9994 23.4572 59.7651 23.0421 59.3485C22.6269 58.9319 22.3934 58.367 22.3929 57.7778V31.1111C22.3934 30.5219 22.6269 29.957 23.0421 29.5404C23.4572 29.1238 24.0201 28.8895 24.6071 28.8889H60.0357C60.6228 28.8895 61.1857 29.1238 61.6008 29.5404C62.0159 29.957 62.2494 30.5219 62.25 31.1111ZM60.0357 55.9489V31.1111H24.6071V55.9222L32.8066 44.9233C33.0192 44.6613 33.2871 44.4499 33.591 44.3043C33.8949 44.1588 34.2271 44.0827 34.5638 44.0817C34.9005 44.0806 35.2333 44.1546 35.538 44.2982C35.8428 44.4418 36.112 44.6515 36.3262 44.9122L38.8118 48.1544L43.8626 39.7078C44.0477 39.3982 44.3053 39.1385 44.613 38.9513C44.9206 38.764 45.2691 38.6549 45.6283 38.6332C45.9874 38.6115 46.3464 38.678 46.6742 38.8269C47.002 38.9758 47.2887 39.2027 47.5095 39.4878L60.0357 55.9489ZM34.5714 33.3333C33.9145 33.3333 33.2723 33.5288 32.7261 33.8951C32.1799 34.2614 31.7542 34.782 31.5028 35.3911C31.2514 36.0001 31.1857 36.6704 31.3138 37.317C31.442 37.9636 31.7583 38.5575 32.2228 39.0237C32.6873 39.4899 33.2792 39.8073 33.9235 39.936C34.5677 40.0646 35.2356 39.9986 35.8425 39.7463C36.4494 39.494 36.9681 39.0667 37.3331 38.5186C37.6981 37.9704 37.8929 37.3259 37.8929 36.6667C37.892 35.7829 37.5418 34.9356 36.9191 34.3106C36.2964 33.6857 35.4521 33.3342 34.5714 33.3333Z" fill="white"/>
</svg>
