<svg width="163" height="178" viewBox="0 0 163 178" fill="none" xmlns="http://www.w3.org/2000/svg">
<g opacity="0.2">
<path fill-rule="evenodd" clip-rule="evenodd" d="M101.039 131.81C101.039 130.091 100.359 128.443 99.1481 127.227C97.9352 126.015 96.2914 125.334 94.5776 125.334H52.6896C50.9755 125.335 49.3321 126.018 48.1201 127.231C46.908 128.445 46.2264 130.09 46.2248 131.807C46.2264 138.252 48.7844 144.436 53.3364 148.994C57.8884 153.551 64.0618 156.112 70.4993 156.114H76.7679C79.9556 156.114 83.112 155.485 86.0569 154.264C89.0019 153.043 91.6777 151.252 93.9315 148.995C96.1854 146.738 97.9731 144.059 99.1927 141.11C100.412 138.162 101.04 135.001 101.039 131.81Z" fill="white"/>
<path fill-rule="evenodd" clip-rule="evenodd" d="M13.634 112.149C13.1798 111.777 12.6285 111.543 12.0456 111.475C11.4627 111.408 10.8726 111.509 10.3454 111.767C9.81831 112.025 9.37629 112.43 9.0719 112.932C8.76751 113.434 8.61353 114.014 8.62827 114.601C9.53561 149.746 38.3131 178 73.6321 178C108.169 178 136.453 150.982 138.538 116.924C138.567 116.451 138.486 115.977 138.301 115.541C138.116 115.104 137.833 114.716 137.473 114.407C137.113 114.099 136.687 113.878 136.228 113.762C135.768 113.646 135.289 113.638 134.826 113.739C133.875 113.944 132.861 114.012 131.794 114.012C108.93 114.012 96.3555 98.3869 90.0133 86.5769C89.1343 84.8962 87.8326 83.4741 86.2368 82.451C84.641 81.428 82.8063 80.8394 80.9139 80.7433C79.0214 80.6472 77.1367 81.047 75.4457 81.9032C73.7547 82.7594 72.3161 84.0424 71.2718 85.6255C66.171 93.995 59.7031 104.059 55.709 107.613C38.4694 122.961 19.7861 117.191 13.634 112.149ZM15.185 120.184C25.172 124.788 43.0705 127.08 59.7828 112.201C64.0314 108.417 71.0265 97.8069 76.4614 88.8911C76.9349 88.2186 77.574 87.6801 78.3165 87.3276C79.0591 86.9752 79.88 86.8208 80.6997 86.8795C81.5194 86.9381 82.31 87.2078 82.9949 87.6625C83.6799 88.1171 84.2359 88.7411 84.6091 89.4742C91.7483 102.773 106.048 120.15 131.794 120.15H132.088C128.511 149.276 103.685 171.862 73.6321 171.862C43.5916 171.862 18.7746 149.294 15.182 120.184H15.185ZM132.386 4.39193L129.437 14.1855C129.355 14.4585 129.207 14.7069 129.005 14.9088C128.804 15.1106 128.557 15.2596 128.284 15.3426L118.5 18.292C117.229 18.6769 116.117 19.4608 115.326 20.5278C114.535 21.5948 114.108 22.8882 114.108 24.2169C114.108 25.5456 114.535 26.8391 115.326 27.9061C116.117 28.973 117.229 29.757 118.5 30.1419L128.284 33.0913C128.836 33.2601 129.271 33.6929 129.437 34.2484L132.386 44.0419C132.767 45.3158 133.549 46.4325 134.615 47.2264C135.681 48.0202 136.973 48.449 138.302 48.449C139.63 48.449 140.923 48.0202 141.989 47.2264C143.054 46.4325 143.836 45.3158 144.218 44.0419L147.164 34.2484C147.246 33.9752 147.395 33.7266 147.597 33.5248C147.798 33.3229 148.046 33.174 148.319 33.0913L158.101 30.1419C159.373 29.7587 160.487 28.9755 161.28 27.9083C162.072 26.8411 162.5 25.5467 162.5 24.2169C162.5 22.8872 162.072 21.5928 161.28 20.5256C160.487 19.4584 159.373 18.6752 158.101 18.292L148.319 15.3426C148.046 15.2598 147.798 15.1109 147.597 14.9091C147.395 14.7073 147.246 14.4587 147.164 14.1855L144.218 4.39193C143.833 3.12141 143.05 2.00859 141.984 1.21776C140.919 0.426929 139.628 0 138.302 0C136.976 0 135.685 0.426929 134.619 1.21776C133.554 2.00859 132.771 3.12141 132.386 4.39193ZM67.6853 4.72033L64.7395 14.5139C64.6567 14.7867 64.5079 15.0347 64.3063 15.236C64.1047 15.4374 63.8565 15.5857 63.5839 15.6679L53.8023 18.6204C52.5317 19.0044 51.4183 19.7878 50.627 20.8546C49.8356 21.9214 49.4083 23.2149 49.4083 24.5438C49.4083 25.8727 49.8356 27.1662 50.627 28.233C51.4183 29.2999 52.5317 30.0832 53.8023 30.4672L63.5839 33.4197C63.8565 33.5019 64.1047 33.6502 64.3063 33.8516C64.5079 34.0529 64.6567 34.3009 64.7395 34.5737L67.6853 44.3673C68.0688 45.6395 68.8512 46.7542 69.9167 47.5466C70.9822 48.3389 72.2742 48.7667 73.6014 48.7667C74.9287 48.7667 76.2206 48.3389 77.2861 47.5466C78.3516 46.7542 79.134 45.6395 79.5176 44.3673L82.4664 34.5737C82.5485 34.301 82.6966 34.053 82.8978 33.8516C83.0989 33.6502 83.3467 33.5019 83.619 33.4197L93.4036 30.4672C94.6726 30.0815 95.784 29.2974 96.5739 28.2308C97.3637 27.1642 97.7901 25.8716 97.7901 24.5438C97.7901 23.216 97.3637 21.9234 96.5739 20.8568C95.784 19.7902 94.6726 19.0062 93.4036 18.6204L83.619 15.6679C83.3467 15.5858 83.0989 15.4374 82.8978 15.236C82.6966 15.0347 82.5485 14.7866 82.4664 14.5139L79.5176 4.72033C79.1358 3.44648 78.3541 2.32978 77.2884 1.5359C76.2227 0.742033 74.9297 0.313291 73.6014 0.313291C72.2731 0.313291 70.9802 0.742033 69.9145 1.5359C68.8487 2.32978 68.067 3.44648 67.6853 4.72033Z" fill="white"/>
<path fill-rule="evenodd" clip-rule="evenodd" d="M99.8837 33.6806C98.5302 34.9077 96.9208 35.8177 95.1723 36.3446L87.653 38.6127L85.3877 46.1382C84.6278 48.6765 83.0707 50.9019 80.9475 52.484C78.8242 54.0661 76.2481 54.9206 73.6014 54.9206C70.9547 54.9206 68.3786 54.0661 66.2554 52.484C64.1322 50.9019 62.575 48.6765 61.8152 46.1382L59.5499 38.6127L52.0336 36.3446C50.9838 36.028 49.9808 35.5728 49.051 34.9911C32.1364 40.7089 13.5941 55.8673 5.2012 73.5424C-1.0705 86.7488 -1.7786 101.303 7.46343 114.512C8.82751 116.464 12.1412 119.048 16.8955 120.945C27.0326 124.987 43.9472 126.301 59.7828 112.201C64.0314 108.417 71.0265 97.8069 76.4614 88.8911C76.9349 88.2186 77.574 87.6801 78.3165 87.3276C79.0591 86.9752 79.88 86.8208 80.6997 86.8795C81.5194 86.9381 82.31 87.2078 82.9949 87.6625C83.6799 88.1171 84.2359 88.7411 84.6091 89.4742C91.7483 102.773 106.048 120.15 131.794 120.15C134.942 120.15 137.778 119.622 140.169 118.131C142.465 116.694 144.42 114.377 145.729 110.544C147.348 105.802 148.001 98.3685 147.099 86.804C145.352 64.3411 128.346 41.6603 99.8837 33.6806ZM98.8814 48.3755L96.472 56.386C96.4309 56.5206 96.3575 56.6431 96.258 56.7426C96.1586 56.8421 96.0363 56.9157 95.9018 56.9568L87.9013 59.3722C86.7482 59.7216 85.738 60.4332 85.02 61.4018C84.3021 62.3704 83.9144 63.5447 83.9144 64.7509C83.9144 65.9571 84.3021 67.1313 85.02 68.0999C85.738 69.0685 86.7482 69.7801 87.9013 70.1295L95.9018 72.5449C96.0363 72.586 96.1586 72.6596 96.258 72.7591C96.3575 72.8587 96.4309 72.9811 96.472 73.1158L98.8814 81.1262C99.2295 82.2819 99.9401 83.2946 100.908 84.0145C101.876 84.7343 103.049 85.123 104.255 85.123C105.461 85.123 106.634 84.7343 107.602 84.0145C108.57 83.2946 109.28 82.2819 109.628 81.1262L112.041 73.1158C112.081 72.9809 112.155 72.8582 112.254 72.7585C112.354 72.6589 112.476 72.5855 112.611 72.5449L120.612 70.1295C121.766 69.7819 122.779 69.071 123.498 68.1021C124.217 67.1333 124.606 65.9582 124.606 64.7509C124.606 63.5436 124.217 62.3684 123.498 61.3996C122.779 60.4308 121.766 59.7198 120.612 59.3722L112.611 56.9568C112.476 56.9162 112.354 56.8428 112.254 56.7432C112.155 56.6436 112.081 56.5208 112.041 56.386L109.628 48.3755C109.28 47.2199 108.57 46.2071 107.602 45.4873C106.634 44.7674 105.461 44.3787 104.255 44.3787C103.049 44.3787 101.876 44.7674 100.908 45.4873C99.9401 46.2071 99.2295 47.2199 98.8814 48.3755Z" fill="white"/>
</g>
</svg>
