<svg width="56" height="61" viewBox="0 0 56 61" fill="none" xmlns="http://www.w3.org/2000/svg">
<path fill-rule="evenodd" clip-rule="evenodd" d="M34.3837 44.9302C34.3837 44.3509 34.1527 43.7953 33.7416 43.3857C33.3298 42.977 32.7718 42.7475 32.1899 42.7474H17.9687C17.3868 42.7479 16.8288 42.978 16.4173 43.387C16.0058 43.7961 15.7744 44.3507 15.7738 44.9292C15.7744 47.1018 16.6429 49.1863 18.1883 50.7226C19.7337 52.2589 21.8296 53.1222 24.0152 53.1227H26.1434C27.2257 53.1227 28.2973 52.9108 29.2971 52.4991C30.2969 52.0874 31.2054 51.4839 31.9706 50.7231C32.7358 49.9624 33.3427 49.0592 33.7568 48.0653C34.1708 47.0713 34.3839 46.006 34.3837 44.9302Z" fill="white"/>
<path fill-rule="evenodd" clip-rule="evenodd" d="M4.70907 38.303C4.55488 38.1776 4.36771 38.0988 4.1698 38.076C3.97189 38.0532 3.77155 38.0873 3.59259 38.1743C3.41362 38.2614 3.26356 38.3977 3.16021 38.567C3.05687 38.7363 3.00459 38.9316 3.0096 39.1296C3.31764 50.9761 13.0878 60.5 25.0788 60.5C36.8044 60.5 46.407 51.393 47.1147 39.9127C47.1245 39.7531 47.0969 39.5935 47.0342 39.4463C46.9715 39.299 46.8753 39.1683 46.7532 39.0642C46.6311 38.9602 46.4864 38.8857 46.3304 38.8466C46.1745 38.8075 46.0115 38.8048 45.8544 38.8389C45.5318 38.9082 45.1873 38.931 44.8251 38.931C37.0625 38.931 32.7935 33.6641 30.6403 29.6832C30.3419 29.1167 29.9 28.6373 29.3582 28.2925C28.8164 27.9476 28.1935 27.7492 27.551 27.7168C26.9085 27.6845 26.2686 27.8192 25.6945 28.1078C25.1204 28.3964 24.632 28.8289 24.2774 29.3625C22.5457 32.1837 20.3498 35.576 18.9938 36.7739C13.1409 41.9477 6.79776 40.0027 4.70907 38.303ZM5.23566 41.0114C8.62628 42.5632 14.703 43.336 20.3769 38.3206C21.8193 37.045 24.1942 33.4686 26.0394 30.4633C26.2001 30.2366 26.4171 30.0551 26.6692 29.9363C26.9213 29.8175 27.2 29.7654 27.4783 29.7852C27.7566 29.805 28.025 29.8959 28.2575 30.0491C28.4901 30.2024 28.6789 30.4127 28.8056 30.6598C31.2294 35.1425 36.0843 41 44.8251 41H44.925C43.7105 50.8178 35.2819 58.4309 25.0788 58.4309C14.8799 58.4309 6.45433 50.824 5.23462 41.0114H5.23566ZM45.026 1.98043L44.0248 5.28163C43.997 5.37365 43.9467 5.45739 43.8784 5.52543C43.8101 5.59347 43.726 5.6437 43.6335 5.67165L40.3116 6.66584C39.8804 6.7956 39.5026 7.05983 39.2341 7.41949C38.9656 7.77915 38.8206 8.21514 38.8206 8.66301C38.8206 9.11089 38.9656 9.54688 39.2341 9.90654C39.5026 10.2662 39.8804 10.5304 40.3116 10.6602L43.6335 11.6544C43.8209 11.7113 43.9686 11.8571 44.0248 12.0444L45.026 15.3456C45.1556 15.775 45.421 16.1514 45.7828 16.419C46.1446 16.6866 46.5836 16.8311 47.0346 16.8311C47.4855 16.8311 47.9245 16.6866 48.2863 16.419C48.6481 16.1514 48.9135 15.775 49.0431 15.3456L50.0432 12.0444C50.0713 11.9523 50.1218 11.8685 50.1902 11.8005C50.2587 11.7324 50.3429 11.6823 50.4356 11.6544L53.7565 10.6602C54.1883 10.531 54.5667 10.267 54.8357 9.9073C55.1047 9.54757 55.25 9.11125 55.25 8.66301C55.25 8.21477 55.1047 7.77846 54.8357 7.41873C54.5667 7.059 54.1883 6.795 53.7565 6.66584L50.4356 5.67165C50.3429 5.64377 50.2587 5.59358 50.1902 5.52554C50.1218 5.4575 50.0713 5.37372 50.0432 5.28163L49.0431 1.98043C48.9123 1.55216 48.6464 1.17705 48.2848 0.910481C47.9231 0.643909 47.4848 0.5 47.0346 0.5C46.5843 0.5 46.146 0.643909 45.7843 0.910481C45.4227 1.17705 45.1568 1.55216 45.026 1.98043ZM23.0598 2.09112L22.0597 5.39233C22.0316 5.48427 21.9811 5.56788 21.9126 5.63574C21.8442 5.7036 21.7599 5.75361 21.6674 5.78131L18.3465 6.77654C17.9151 6.90597 17.5371 7.17003 17.2684 7.52963C16.9997 7.88923 16.8547 8.32526 16.8547 8.77319C16.8547 9.22112 16.9997 9.65716 17.2684 10.0168C17.5371 10.3764 17.9151 10.6404 18.3465 10.7698L21.6674 11.7651C21.7599 11.7928 21.8442 11.8428 21.9126 11.9106C21.9811 11.9785 22.0316 12.0621 22.0597 12.1541L23.0598 15.4553C23.19 15.8841 23.4557 16.2598 23.8174 16.5269C24.1791 16.794 24.6178 16.9382 25.0684 16.9382C25.519 16.9382 25.9576 16.794 26.3194 16.5269C26.6811 16.2598 26.9467 15.8841 27.0769 15.4553L28.0781 12.1541C28.106 12.0621 28.1563 11.9785 28.2245 11.9106C28.2928 11.8428 28.377 11.7928 28.4694 11.7651L31.7913 10.7698C32.2222 10.6398 32.5995 10.3755 32.8677 10.016C33.1358 9.65647 33.2806 9.22076 33.2806 8.77319C33.2806 8.32562 33.1358 7.88991 32.8677 7.53038C32.5995 7.17086 32.2222 6.90657 31.7913 6.77654L28.4694 5.78131C28.377 5.75362 28.2928 5.70361 28.2245 5.63574C28.1563 5.56786 28.106 5.48424 28.0781 5.39233L27.0769 2.09112C26.9473 1.66173 26.6819 1.28532 26.3201 1.01772C25.9583 0.750124 25.5194 0.605604 25.0684 0.605604C24.6174 0.605604 24.1785 0.750124 23.8166 1.01772C23.4548 1.28532 23.1894 1.66173 23.0598 2.09112Z" fill="white"/>
<path fill-rule="evenodd" clip-rule="evenodd" d="M33.9914 11.853C33.5319 12.2666 32.9855 12.5734 32.3918 12.751L29.839 13.5155L29.0699 16.0522C28.8119 16.9078 28.2833 17.658 27.5624 18.1912C26.8416 18.7245 25.9669 19.0126 25.0684 19.0126C24.1698 19.0126 23.2952 18.7245 22.5744 18.1912C21.8535 17.658 21.3249 16.9078 21.0669 16.0522L20.2978 13.5155L17.746 12.751C17.3896 12.6443 17.049 12.4908 16.7334 12.2948C10.9908 14.2221 4.69554 19.3317 1.84609 25.2896C-0.283196 29.7412 -0.523599 34.6469 2.61413 39.0996C3.07724 39.7575 4.20224 40.6286 5.81638 41.268C9.25799 42.6305 15.0006 43.0732 20.3769 38.3206C21.8193 37.045 24.1942 33.4686 26.0394 30.4633C26.2001 30.2366 26.4171 30.0551 26.6692 29.9363C26.9213 29.8175 27.2 29.7654 27.4783 29.7852C27.7566 29.805 28.025 29.8959 28.2575 30.0491C28.4901 30.2024 28.6789 30.4127 28.8056 30.6598C31.2294 35.1425 36.0843 41 44.8251 41C45.8939 41 46.8566 40.8221 47.6683 40.3193C48.4478 39.8351 49.1118 39.0541 49.5562 37.7619C50.1057 36.1636 50.3273 33.6579 50.0214 29.7598C49.4282 22.188 43.6543 14.5428 33.9914 11.853ZM33.6511 16.8064L32.8331 19.5065C32.8191 19.5519 32.7942 19.5932 32.7604 19.6267C32.7267 19.6603 32.6852 19.6851 32.6395 19.6989L29.9233 20.5131C29.5318 20.6309 29.1888 20.8707 28.9451 21.1972C28.7013 21.5237 28.5697 21.9195 28.5697 22.3261C28.5697 22.7327 28.7013 23.1285 28.9451 23.455C29.1888 23.7815 29.5318 24.0214 29.9233 24.1392L32.6395 24.9533C32.6852 24.9672 32.7267 24.992 32.7604 25.0255C32.7942 25.0591 32.8191 25.1004 32.8331 25.1458L33.6511 27.8459C33.7693 28.2355 34.0105 28.5768 34.3391 28.8195C34.6677 29.0621 35.0661 29.1931 35.4754 29.1931C35.8848 29.1931 36.2832 29.0621 36.6118 28.8195C36.9404 28.5768 37.1816 28.2355 37.2998 27.8459L38.1188 25.1458C38.1326 25.1003 38.1575 25.0589 38.1913 25.0254C38.225 24.9918 38.2667 24.967 38.3124 24.9533L41.0286 24.1392C41.4207 24.022 41.7643 23.7823 42.0086 23.4558C42.2529 23.1292 42.3848 22.7331 42.3848 22.3261C42.3848 21.9192 42.2529 21.5231 42.0086 21.1965C41.7643 20.8699 41.4207 20.6303 41.0286 20.5131L38.3124 19.6989C38.2667 19.6852 38.225 19.6605 38.1913 19.6269C38.1575 19.5933 38.1326 19.552 38.1188 19.5065L37.2998 16.8064C37.1816 16.4168 36.9404 16.0754 36.6118 15.8328C36.2832 15.5901 35.8848 15.4591 35.4754 15.4591C35.0661 15.4591 34.6677 15.5901 34.3391 15.8328C34.0105 16.0754 33.7693 16.4168 33.6511 16.8064Z" fill="white"/>
</svg>
