<svg width="34" height="31" viewBox="0 0 34 31" fill="none" xmlns="http://www.w3.org/2000/svg">
<path d="M30.1565 0H3.84549C1.72465 0 0 1.67691 0 3.74217V27.262C0 29.3249 1.72465 31 3.84549 31H30.1563C32.2772 31 34 29.3249 34 27.262V3.74217C34.0001 1.67691 32.2773 0 30.1565 0ZM21.9862 5.56532C24.0372 5.56532 25.7005 7.18323 25.7005 9.17797C25.7005 11.1727 24.037 12.7906 21.9862 12.7906C19.9347 12.7906 18.2719 11.1727 18.2719 9.17797C18.2719 7.18323 19.9347 5.56532 21.9862 5.56532ZM28.9505 27.5426H5.5814C4.55558 27.5426 4.09872 26.8207 4.56116 25.9301L10.9355 13.6499C11.3974 12.7594 12.2776 12.6799 12.901 13.4722L19.3106 21.6194C19.934 22.4118 21.0236 22.4793 21.7447 21.7693L23.3127 20.2249C24.0333 19.515 25.095 19.6029 25.683 20.42L29.7434 26.0612C30.3304 26.8796 29.9763 27.5426 28.9505 27.5426Z" fill="white"/>
</svg>
