<svg width="55" height="51" viewBox="0 0 55 51" fill="none" xmlns="http://www.w3.org/2000/svg">
<path d="M1.28516 35.8922C0.552337 37.158 0.121554 38.5746 0.0261248 40.0327C-0.0693039 41.4908 0.173179 42.9513 0.734823 44.3011C1.29647 45.6509 2.16222 46.854 3.26515 47.8173C4.36808 48.7805 5.67863 49.4782 7.09546 49.8564C8.51229 50.2345 9.99744 50.283 11.4361 49.998C12.8747 49.7131 14.2283 49.1023 15.3921 48.213C16.556 47.3237 17.4989 46.1797 18.148 44.8693C18.7972 43.559 19.1351 42.1175 19.1356 40.6564C19.1365 38.5582 18.442 36.5184 17.1601 34.8535C15.8782 33.1887 14.0805 31.9919 12.0461 31.4489C10.0116 30.9059 7.85403 31.0471 5.90831 31.8505C3.96258 32.6539 2.33747 34.0746 1.28516 35.8922Z" fill="white"/>
<path d="M15.6445 11.1186L4.88396 29.6988C6.5905 28.9739 8.44296 28.6547 10.2948 28.7662C12.1466 28.8777 13.9469 29.417 15.5534 30.3414C17.1599 31.2657 18.5284 32.5498 19.5506 34.0921C20.5728 35.6343 21.2208 37.3923 21.4432 39.2271L26.13 31.128C17.2346 15.8113 15.9434 14.3463 15.6445 11.1186ZM53.7247 35.8922C53.1149 34.8679 35.6351 4.6036 35.2884 4.16292C33.8494 2.1636 31.69 0.796181 29.262 0.346844C26.834 -0.102493 24.3256 0.401076 22.2619 1.75216C20.1981 3.10325 18.7389 5.19713 18.1896 7.5956C17.6404 9.99406 18.0436 12.5112 19.315 14.6202C19.1954 14.6202 18.7172 13.5959 37.1535 45.4205C37.7816 46.5044 38.6178 47.4545 39.6144 48.2165C40.611 48.9785 41.7485 49.5375 42.962 49.8615C44.1755 50.1856 45.4412 50.2683 46.6868 50.1051C47.9324 49.9419 49.1335 49.5359 50.2215 48.9103C51.3096 48.2846 52.2634 47.4516 53.0283 46.4588C53.7932 45.466 54.3543 44.3328 54.6796 43.124C55.0049 41.9151 55.088 40.6543 54.9242 39.4135C54.7603 38.1726 54.3527 36.9761 53.7247 35.8922Z" fill="white"/>
</svg>
