<svg width="34" height="31" viewBox="0 0 34 31" fill="none" xmlns="http://www.w3.org/2000/svg">
<path d="M1.26758 21.9205C0.827886 22.6799 0.569416 23.5299 0.512159 24.4048C0.454902 25.2797 0.600392 26.1559 0.937378 26.9658C1.27436 27.7757 1.79382 28.4975 2.45558 29.0755C3.11733 29.6535 3.90366 30.0721 4.75376 30.299C5.60386 30.5259 6.49495 30.5549 7.35813 30.384C8.22131 30.213 9.03345 29.8465 9.73176 29.313C10.4301 28.7794 10.9958 28.093 11.3853 27.3068C11.7748 26.5206 11.9775 25.6557 11.9779 24.779C11.9784 23.5201 11.5617 22.2962 10.7926 21.2973C10.0234 20.2984 8.94481 19.5803 7.72412 19.2545C6.50342 18.9287 5.20891 19.0134 4.04147 19.4955C2.87403 19.9775 1.89897 20.8299 1.26758 21.9205Z" fill="#9A9A9A"/>
<path d="M9.88316 7.05631L3.42686 18.2044C4.45079 17.7695 5.56226 17.578 6.67335 17.6449C7.78444 17.7118 8.86465 18.0354 9.82853 18.59C10.7924 19.1446 11.6135 19.9151 12.2268 20.8404C12.8402 21.7657 13.229 22.8206 13.3624 23.9214L16.1745 19.062C10.8373 9.87192 10.0625 8.99294 9.88316 7.05631ZM32.7313 21.9205C32.3654 21.3059 21.8775 3.14732 21.6695 2.88291C20.8061 1.68332 19.5105 0.862865 18.0537 0.593263C16.5969 0.32366 15.0919 0.625802 13.8536 1.43645C12.6154 2.24711 11.7398 3.50344 11.4103 4.94252C11.0807 6.3816 11.3227 7.89188 12.0855 9.1573C12.0137 9.1573 11.7268 8.54272 22.7886 27.6375C23.1654 28.2878 23.6671 28.8579 24.2651 29.3151C24.8631 29.7722 25.5456 30.1076 26.2737 30.3021C27.0018 30.4965 27.7612 30.5462 28.5085 30.4482C29.2559 30.3503 29.9766 30.1067 30.6294 29.7313C31.2823 29.3559 31.8545 28.8561 32.3134 28.2604C32.7724 27.6648 33.1091 26.9848 33.3042 26.2595C33.4994 25.5342 33.5493 24.7777 33.451 24.0332C33.3527 23.2887 33.1081 22.5708 32.7313 21.9205Z" fill="#9A9A9A"/>
</svg>
