<svg width="35" height="35" viewBox="0 0 35 35" fill="none" xmlns="http://www.w3.org/2000/svg">
<path d="M30.2435 1.71402H33.8855C34.0465 1.71402 34.2009 1.65007 34.3148 1.53623C34.4286 1.42239 34.4925 1.268 34.4925 1.10701C34.4925 0.946021 34.4286 0.791625 34.3148 0.677789C34.2009 0.563953 34.0465 0.5 33.8855 0.5H30.2435C30.0825 0.5 29.9281 0.563953 29.8143 0.677789C29.7004 0.791625 29.6365 0.946021 29.6365 1.10701C29.6365 1.268 29.7004 1.42239 29.8143 1.53623C29.9281 1.65007 30.0825 1.71402 30.2435 1.71402ZM33.4564 6.39224C33.5126 6.44881 33.5795 6.49369 33.6531 6.52433C33.7268 6.55496 33.8058 6.57072 33.8855 6.57072C33.9653 6.57072 34.0443 6.55496 34.1179 6.52433C34.1916 6.49369 34.2584 6.44881 34.3147 6.39224C34.4285 6.27841 34.4924 6.12404 34.4924 5.96309C34.4924 5.80213 34.4285 5.64776 34.3147 5.53393L32.4937 3.7129C32.4087 3.62806 32.3005 3.57032 32.1827 3.54699C32.065 3.52365 31.9429 3.53576 31.832 3.58179C31.7585 3.61218 31.6917 3.65673 31.6353 3.7129L29.8143 5.53393C29.7563 5.58993 29.7101 5.65691 29.6783 5.73096C29.6465 5.80502 29.6297 5.88467 29.629 5.96527C29.6283 6.04587 29.6437 6.1258 29.6742 6.2004C29.7047 6.275 29.7498 6.34277 29.8068 6.39977C29.8638 6.45676 29.9316 6.50183 30.0062 6.53235C30.0808 6.56287 30.1607 6.57823 30.2413 6.57753C30.3219 6.57683 30.4015 6.56009 30.4756 6.52827C30.5497 6.49646 30.6166 6.45022 30.6726 6.39224L31.4575 5.60738V22.101L30.6726 21.3162C30.6166 21.2582 30.5497 21.212 30.4756 21.1801C30.4015 21.1483 30.3219 21.1316 30.2413 21.1309C30.1607 21.1302 30.0808 21.1455 30.0062 21.1761C29.9316 21.2066 29.8638 21.2517 29.8068 21.3087C29.7498 21.3657 29.7047 21.4334 29.6742 21.508C29.6437 21.5826 29.6283 21.6626 29.629 21.7432C29.6297 21.8238 29.6465 21.9034 29.6783 21.9775C29.7101 22.0515 29.7563 22.1185 29.8143 22.1745L31.6353 23.9955C31.7203 24.0804 31.8285 24.1381 31.9463 24.1614C32.0641 24.1848 32.1861 24.1727 32.297 24.1266C32.3705 24.0962 32.4373 24.0517 32.4937 23.9955L34.3147 22.1745C34.3727 22.1185 34.4189 22.0515 34.4507 21.9775C34.4825 21.9034 34.4993 21.8238 34.5 21.7432C34.5007 21.6626 34.4853 21.5826 34.4548 21.508C34.4243 21.4334 34.3792 21.3657 34.3222 21.3087C34.2652 21.2517 34.1974 21.2066 34.1228 21.1761C34.0482 21.1455 33.9683 21.1302 33.8877 21.1309C33.8071 21.1316 33.7275 21.1483 33.6534 21.1801C33.5793 21.212 33.5124 21.2582 33.4564 21.3162L32.6715 22.101V5.60738L33.4564 6.39224ZM33.8855 25.9944H30.2435C30.0825 25.9944 29.9281 26.0584 29.8143 26.1722C29.7004 26.286 29.6365 26.4404 29.6365 26.6014C29.6365 26.7624 29.7004 26.9168 29.8143 27.0306C29.9281 27.1445 30.0825 27.2084 30.2435 27.2084H33.8855C34.0465 27.2084 34.2009 27.1445 34.3148 27.0306C34.4286 26.9168 34.4925 26.7624 34.4925 26.6014C34.4925 26.4404 34.4286 26.286 34.3148 26.1722C34.2009 26.0584 34.0465 25.9944 33.8855 25.9944ZM26.6014 29.6365C26.4404 29.6365 26.286 29.7004 26.1722 29.8143C26.0584 29.9281 25.9944 30.0825 25.9944 30.2435V33.8855C25.9944 34.0465 26.0584 34.2009 26.1722 34.3148C26.286 34.4286 26.4404 34.4925 26.6014 34.4925C26.7624 34.4925 26.9168 34.4286 27.0306 34.3148C27.1445 34.2009 27.2084 34.0465 27.2084 33.8855V30.2435C27.2084 30.0825 27.1445 29.9281 27.0306 29.8143C26.9168 29.7004 26.7624 29.6365 26.6014 29.6365ZM23.9955 31.6353L22.1745 29.8143C22.1185 29.7563 22.0515 29.7101 21.9775 29.6783C21.9034 29.6465 21.8238 29.6297 21.7432 29.629C21.6626 29.6283 21.5826 29.6437 21.508 29.6742C21.4334 29.7047 21.3657 29.7498 21.3087 29.8068C21.2517 29.8638 21.2066 29.9316 21.1761 30.0062C21.1455 30.0808 21.1302 30.1607 21.1309 30.2413C21.1316 30.3219 21.1483 30.4015 21.1801 30.4756C21.212 30.5497 21.2582 30.6166 21.3162 30.6726L22.101 31.4575H5.60738L6.39224 30.6726C6.45022 30.6166 6.49646 30.5497 6.52827 30.4756C6.56009 30.4015 6.57683 30.3219 6.57753 30.2413C6.57823 30.1607 6.56287 30.0808 6.53235 30.0062C6.50183 29.9316 6.45676 29.8638 6.39977 29.8068C6.34277 29.7498 6.275 29.7047 6.2004 29.6742C6.1258 29.6437 6.04587 29.6283 5.96527 29.629C5.88467 29.6297 5.80502 29.6465 5.73096 29.6783C5.65691 29.7101 5.58993 29.7563 5.53393 29.8143L3.7129 31.6353C3.62806 31.7203 3.57032 31.8285 3.54699 31.9463C3.52365 32.0641 3.53576 32.1861 3.58179 32.297C3.61218 32.3705 3.65673 32.4373 3.7129 32.4937L5.53393 34.3147C5.59017 34.3713 5.65704 34.4161 5.73069 34.4468C5.80434 34.4774 5.88332 34.4932 5.96309 34.4932C6.04285 34.4932 6.12183 34.4774 6.19548 34.4468C6.26913 34.4161 6.336 34.3713 6.39224 34.3147C6.50604 34.2009 6.56997 34.0465 6.56997 33.8855C6.56997 33.7246 6.50604 33.5702 6.39224 33.4564L5.60738 32.6715H22.101L21.3162 33.4564C21.2582 33.5124 21.212 33.5793 21.1801 33.6534C21.1483 33.7275 21.1316 33.8071 21.1309 33.8877C21.1302 33.9683 21.1455 34.0482 21.1761 34.1228C21.2066 34.1974 21.2517 34.2652 21.3087 34.3222C21.3657 34.3792 21.4334 34.4243 21.508 34.4548C21.5826 34.4853 21.6626 34.5007 21.7432 34.5C21.8238 34.4993 21.9034 34.4825 21.9775 34.4507C22.0515 34.4189 22.1185 34.3727 22.1745 34.3147L23.9955 32.4937C24.0804 32.4087 24.1381 32.3005 24.1614 32.1827C24.1848 32.065 24.1727 31.9429 24.1266 31.832C24.0962 31.7585 24.0517 31.6917 23.9955 31.6353ZM1.10701 29.6365C0.946021 29.6365 0.791625 29.7004 0.677789 29.8143C0.563953 29.9281 0.5 30.0825 0.5 30.2435V33.8855C0.5 34.0465 0.563953 34.2009 0.677789 34.3148C0.791625 34.4286 0.946021 34.4925 1.10701 34.4925C1.268 34.4925 1.42239 34.4286 1.53623 34.3148C1.65007 34.2009 1.71402 34.0465 1.71402 33.8855V30.2435C1.71402 30.0825 1.65007 29.9281 1.53623 29.8143C1.42239 29.7004 1.268 29.6365 1.10701 29.6365ZM22.7081 4.14206H5.00037L13.8542 12.9959L22.7081 4.14206Z" fill="white"/>
<path d="M25.3874 0.5H2.32103C1.31703 0.5 0.5 1.31703 0.5 2.32103V25.3874C0.5 26.3914 1.31703 27.2084 2.32103 27.2084H25.3874C26.3914 27.2084 27.2084 26.3914 27.2084 25.3874V2.32103C27.2084 1.31703 26.3914 0.5 25.3874 0.5ZM24.7804 24.1734C24.7802 24.2934 24.7445 24.4107 24.6778 24.5104C24.611 24.6101 24.5162 24.6878 24.4053 24.7336C24.3318 24.7643 24.253 24.7802 24.1734 24.7804H3.53505C3.41504 24.7802 3.29776 24.7445 3.19804 24.6778C3.09831 24.611 3.02062 24.5162 2.97478 24.4053C2.94414 24.3318 2.92826 24.253 2.92804 24.1734V3.53505C2.92818 3.41504 2.96389 3.29776 3.03066 3.19804C3.09743 3.09831 3.19226 3.02062 3.30317 2.97478C3.37665 2.94414 3.45544 2.92826 3.53505 2.92804H24.1734C24.2934 2.92818 24.4107 2.96389 24.5104 3.03066C24.6101 3.09743 24.6878 3.19226 24.7336 3.30317C24.7643 3.37665 24.7802 3.45544 24.7804 3.53505V24.1734Z" fill="white"/>
<path d="M4.14206 5.00037V22.7081L12.9959 13.8542L4.14206 5.00037ZM23.5664 22.7081V5.00037L14.7125 13.8542L23.5664 22.7081ZM5.00037 23.5664H22.7081L13.8542 14.7125L5.00037 23.5664Z" fill="white"/>
</svg>
