<svg width="18" height="18" viewBox="0 0 18 18" fill="none" xmlns="http://www.w3.org/2000/svg">
<path d="M14.5897 1.95245L9.89828 5.36262L17.759 11.0766C17.9194 10.3975 18.0003 9.70209 18 9.00433C18 6.15077 16.6661 3.60333 14.5897 1.95245ZM13.6752 1.3129C12.3118 0.480252 10.7109 0 9 0C7.16126 0 5.44985 0.55496 4.02346 1.50565L5.81629 7.02556L13.6752 1.3129ZM3.13386 2.18108C1.21623 3.83361 0 6.27944 0 9.00429C0 9.84159 0.115242 10.6524 0.329941 11.422H6.13526L3.13386 2.18108ZM0.696691 12.4773C2.01157 15.6122 5.05027 17.8508 8.61968 18L10.4132 12.4773H0.696691ZM9.73564 17.9783C13.2741 17.6906 16.2399 15.3464 17.4347 12.1451L12.7387 8.73153L9.73564 17.9783Z" fill="white"/>
</svg>
