<svg width="58" height="58" viewBox="0 0 58 58" fill="none" xmlns="http://www.w3.org/2000/svg">
<path fill-rule="evenodd" clip-rule="evenodd" d="M28.0178 57.686H51.3911C52.3359 57.6867 53.2678 57.4678 54.1135 57.0467C54.9593 56.6256 55.6956 56.0138 56.2644 55.2595C52.4386 51.4381 48.615 47.6145 44.7936 43.7887C44.4111 43.4086 43.8937 43.1952 43.3544 43.1952C42.8151 43.1952 42.2977 43.4086 41.9152 43.7887L28.0178 57.686ZM12.7464 52.2081C12.9007 53.7113 13.6074 55.1038 14.7296 56.1158C15.8518 57.1279 17.3097 57.6874 18.8208 57.686H22.261L36.4047 43.5424L30.3487 37.4863C30.1596 37.2971 29.9351 37.1469 29.688 37.0445C29.4408 36.942 29.176 36.8893 28.9084 36.8893C28.6409 36.8893 28.376 36.942 28.1289 37.0445C27.8818 37.1469 27.6573 37.2971 27.4682 37.4863L12.7464 52.2081ZM12.7139 46.4839L24.5898 34.6079C25.1569 34.0407 25.8302 33.5908 26.5712 33.2838C27.3122 32.9769 28.1064 32.8189 28.9084 32.8189C29.7105 32.8189 30.5047 32.9769 31.2457 33.2838C31.9867 33.5908 32.66 34.0407 33.2271 34.6079L39.2892 40.6701C40.453 39.6324 41.9697 39.0791 43.5283 39.1238C45.087 39.1685 46.5695 39.8076 47.672 40.9103L57.498 50.7363V19.0088C57.498 17.3884 56.8548 15.8352 55.7087 14.6912C55.142 14.1237 54.469 13.6736 53.7281 13.3665C52.9872 13.0595 52.1931 12.9016 51.3911 12.9019H18.8208C17.2004 12.9019 15.6472 13.5451 14.5032 14.6912C13.9357 15.2579 13.4856 15.9309 13.1785 16.6718C12.8715 17.4127 12.7136 18.2068 12.7139 19.0088V46.4839ZM8.64258 45.4722V19.0088C8.64258 16.3095 9.71536 13.7202 11.6228 11.8108C13.5324 9.90284 16.1214 8.83096 18.8208 8.83057H45.2842V6.79492C45.2842 5.17455 44.6409 3.62135 43.4949 2.47732C42.9282 1.90984 42.2551 1.45969 41.5142 1.15266C40.7734 0.845619 39.9792 0.687716 39.1772 0.687989H6.60693C4.98656 0.687989 3.43336 1.33125 2.28933 2.47732C1.72185 3.044 1.27171 3.71705 0.964668 4.45792C0.65763 5.19879 0.499728 5.99295 0.5 6.79492V39.3652C0.5 40.9856 1.14326 42.5388 2.28933 43.6828C2.85601 44.2503 3.52906 44.7005 4.26993 45.0075C5.0108 45.3145 5.80496 45.4724 6.60693 45.4722H8.64258ZM42.2307 21.0444C38.2978 21.0444 35.106 24.2363 35.106 28.1692C35.106 32.1021 38.2978 35.2939 42.2307 35.2939C46.1636 35.2939 49.3555 32.1021 49.3555 28.1692C49.3555 24.2363 46.1636 21.0444 42.2307 21.0444Z" fill="white"/>
</svg>
