<svg width="32" height="31" viewBox="0 0 32 31" fill="none" xmlns="http://www.w3.org/2000/svg">
<rect x="0.5" width="31" height="31" rx="6.45833" fill="#F35252"/>
<path fill-rule="evenodd" clip-rule="evenodd" d="M8.78581 15.0484C8.78581 15.7032 9.33104 16.2362 10.0017 16.2362C10.6721 16.2362 11.2177 15.7036 11.2177 15.0484C11.2177 14.8207 11.1516 14.608 11.0373 14.4271L13.2664 12.4538C13.4707 12.6055 13.725 12.696 14.001 12.696C14.3617 12.696 14.6862 12.5413 14.9092 12.2969L16.8608 13.4428C16.8102 13.5751 16.7844 13.7152 16.7846 13.8565C16.7846 14.5113 17.3298 15.0443 18.0005 15.0443C18.6709 15.0443 19.2165 14.5117 19.2165 13.8565C19.2165 13.6212 19.1459 13.4019 19.0249 13.2173L21.2827 11.1462C21.4907 11.2955 21.7421 11.3759 22.0001 11.3757C22.6705 11.3757 23.2161 10.8431 23.2161 10.1879C23.2161 9.533 22.6705 9 22.0001 9C21.3298 9 20.7842 9.53264 20.7842 10.1879C20.7842 10.4232 20.8548 10.6424 20.9758 10.827L18.7179 12.8981C18.51 12.7488 18.2586 12.6684 18.0005 12.6686C17.6398 12.6686 17.3153 12.8233 17.0923 13.0677L15.1407 11.9218C15.19 11.7931 15.2169 11.6537 15.2169 11.5081C15.2169 10.8533 14.6713 10.3203 14.001 10.3203C13.3306 10.3203 12.785 10.8529 12.785 11.5081C12.7847 11.7276 12.8472 11.9428 12.9654 12.1294L10.7363 14.1024C10.532 13.9506 10.2773 13.8601 10.0017 13.8601C9.33141 13.8605 8.78581 14.3935 8.78581 15.0484ZM11.2513 17.5663C11.3749 17.5663 11.4754 17.6645 11.4754 17.7852V21.5626H12.527V15.0619C12.527 14.9411 12.6274 14.843 12.751 14.843H15.2505C15.3745 14.843 15.4746 14.9411 15.4746 15.0619V21.5626H16.5262V16.7842C16.5262 16.6634 16.6266 16.5653 16.7502 16.5653H19.2497C19.3733 16.5653 19.4738 16.6634 19.4738 16.7842V21.5626H20.5254V13.6868C20.5254 13.5657 20.6259 13.468 20.7495 13.468H23.2489C23.3725 13.468 23.473 13.5661 23.473 13.6868V21.5622H24.7759C24.8999 21.5622 25 21.6604 25 21.7811C25 21.9019 24.8999 22 24.7759 22H7.22407C7.10046 22 7 21.9019 7 21.7811C7 21.6604 7.10046 21.5622 7.22407 21.5622H8.52739V17.7852C8.52739 17.6645 8.62784 17.5663 8.75145 17.5663H11.2513Z" fill="white"/>
</svg>
