<svg width="72" height="47" viewBox="0 0 72 47" fill="none" xmlns="http://www.w3.org/2000/svg">
<path d="M69.5068 6.78028C69.5068 5.45139 69.0724 4.3014 68.2035 3.33028C67.3346 2.35917 66.2357 1.87362 64.9068 1.87362H7.10013C5.77124 1.87362 4.6468 2.35917 3.7268 3.33028C2.8068 4.3014 2.39791 5.45139 2.50013 6.78028V39.5936C2.39791 40.9225 2.8068 42.0725 3.7268 43.0436C4.6468 44.0147 5.77124 44.5003 7.10013 44.5003H64.9068C66.1335 44.5003 67.2068 44.0147 68.1268 43.0436C69.0468 42.0725 69.5068 40.9225 69.5068 39.5936V6.78028ZM71.0401 6.78028V39.5936C71.0401 41.3314 70.4524 42.8647 69.2768 44.1936C68.1012 45.5225 66.6446 46.187 64.9068 46.187H7.10013C5.36235 46.187 3.90569 45.5225 2.73013 44.1936C1.55457 42.8647 0.966797 41.3314 0.966797 39.5936V6.78028C0.966797 5.04251 1.55457 3.50917 2.73013 2.18028C3.90569 0.851395 5.36235 0.186951 7.10013 0.186951H64.9068C66.6446 0.186951 68.1012 0.851395 69.2768 2.18028C70.4524 3.50917 71.0401 5.04251 71.0401 6.78028ZM14.6135 41.7403H58.9268C59.8468 41.7403 60.639 42.047 61.3035 42.6603C61.9679 43.2736 62.3001 44.0914 62.3001 45.1136H11.2401C11.2401 44.0914 11.5724 43.2736 12.2368 42.6603C12.9012 42.047 13.6935 41.7403 14.6135 41.7403ZM61.9935 21.9603H40.0668C39.6579 21.9603 39.4535 21.7558 39.4535 21.347C39.4535 20.9381 39.6579 20.7336 40.0668 20.7336H61.9935C62.4024 20.7336 62.6068 20.9381 62.6068 21.347C62.6068 21.5514 62.5301 21.7047 62.3768 21.8069C62.2235 21.9092 62.0957 21.9603 61.9935 21.9603ZM61.9935 17.8203H40.0668C39.6579 17.8203 39.4535 17.6158 39.4535 17.2069C39.4535 16.6958 39.6579 16.4403 40.0668 16.4403H61.9935C62.4024 16.4403 62.6068 16.6958 62.6068 17.2069C62.6068 17.3092 62.5301 17.437 62.3768 17.5903C62.2235 17.7436 62.0957 17.8203 61.9935 17.8203ZM54.1735 26.2536H40.0668C39.6579 26.2536 39.4535 26.0492 39.4535 25.6403C39.4535 25.1292 39.6579 24.8736 40.0668 24.8736H54.1735C54.6846 24.8736 54.9401 25.1036 54.9401 25.5636C54.9401 26.0236 54.6846 26.2536 54.1735 26.2536ZM31.7868 9.38695H13.8468C13.029 9.38695 12.339 9.66806 11.7768 10.2303C11.2146 10.7925 10.9335 11.5336 10.9335 12.4536V30.2403C10.9335 31.0581 11.2146 31.7736 11.7768 32.387C12.339 33.0003 13.029 33.307 13.8468 33.307H31.7868C32.6046 33.307 33.2946 33.0003 33.8568 32.387C34.419 31.7736 34.7001 31.0581 34.7001 30.2403V12.4536C34.7001 11.5336 34.419 10.7925 33.8568 10.2303C33.2946 9.66806 32.6046 9.38695 31.7868 9.38695ZM33.4735 30.2403C33.4735 30.7514 33.3201 31.1603 33.0135 31.467C32.7068 31.7736 32.2979 31.927 31.7868 31.927H13.8468C13.4379 31.927 13.0801 31.7736 12.7735 31.467C12.4668 31.1603 12.3135 30.7514 12.3135 30.2403V27.787L16.9135 23.6469C17.1179 23.5447 17.3224 23.5447 17.5268 23.6469L20.4401 26.1003C20.7468 26.3047 21.1046 26.3047 21.5135 26.1003L28.4135 19.2003C28.6179 18.8936 28.8224 18.8936 29.0268 19.2003L33.4735 24.7203V30.2403ZM33.4735 22.4203L29.9468 18.2803C29.6401 17.8714 29.2312 17.6414 28.7201 17.5903C28.209 17.5392 27.749 17.667 27.3401 17.9736L20.7468 24.5669L18.2935 22.5736C17.9868 22.267 17.6035 22.1136 17.1435 22.1136C16.6835 22.1136 16.3001 22.267 15.9935 22.5736L12.1601 25.6403V12.4536C12.1601 11.9425 12.339 11.5336 12.6968 11.227C13.0546 10.9203 13.4379 10.7669 13.8468 10.7669H31.6335C32.1446 10.7669 32.5535 10.9203 32.8601 11.227C33.1668 11.5336 33.3201 11.9425 33.3201 12.4536V22.4203H33.4735ZM18.4468 12.3003C17.5268 12.3003 16.7346 12.6325 16.0701 13.297C15.4057 13.9614 15.0735 14.7281 15.0735 15.597C15.0735 16.4658 15.4057 17.2325 16.0701 17.8969C16.7346 18.5614 17.5268 18.8936 18.4468 18.8936C19.3668 18.8936 20.1335 18.5614 20.7468 17.8969C21.3601 17.2325 21.6668 16.4914 21.6668 15.6736C21.6668 14.7536 21.3601 13.9614 20.7468 13.297C20.1335 12.6325 19.3668 12.3003 18.4468 12.3003ZM18.4468 17.667C17.8335 17.667 17.3479 17.4625 16.9901 17.0536C16.6324 16.6447 16.4535 16.1592 16.4535 15.597C16.4535 15.0347 16.6324 14.5747 16.9901 14.2169C17.3479 13.8592 17.8079 13.6803 18.3701 13.6803C18.9324 13.6803 19.4179 13.8592 19.8268 14.2169C20.2357 14.5747 20.4401 15.0603 20.4401 15.6736C20.3379 16.1847 20.1079 16.6447 19.7501 17.0536C19.3924 17.4625 18.9579 17.667 18.4468 17.667Z" fill="white"/>
</svg>
