<svg width="30" height="31" viewBox="0 0 30 31" fill="none" xmlns="http://www.w3.org/2000/svg">
<path d="M15 0.49707C6.71701 0.49707 0 7.21408 0 15.4971C0 23.7801 6.71701 30.4971 15 30.4971C23.283 30.4971 30 23.7801 30 15.4971C30 7.21408 23.283 0.49707 15 0.49707ZM10.6412 23.1729H6.98801V12.1822H10.6412L10.6412 23.1729ZM8.81467 10.6814H8.79088C7.56498 10.6814 6.77215 9.8375 6.77215 8.78281C6.77215 7.70434 7.58924 6.88379 8.83898 6.88379C10.0887 6.88379 10.8577 7.70434 10.8815 8.78281C10.8815 9.8375 10.0887 10.6814 8.81467 10.6814V10.6814ZM23.8138 23.1729H20.1611V17.2931C20.1611 15.8155 19.6322 14.8077 18.3104 14.8077C17.3012 14.8077 16.7002 15.4875 16.4361 16.1437C16.3395 16.3785 16.3159 16.7067 16.3159 17.0352V23.1729H12.6629C12.6629 23.1729 12.7108 13.2133 12.6629 12.1822H16.3159V13.7383C16.8013 12.9895 17.67 11.9243 19.6082 11.9243C22.0117 11.9243 23.8138 13.495 23.8138 16.8708V23.1729Z" fill="#9A9A9A"/>
</svg>
