<svg width="30" height="19" viewBox="0 0 30 19" fill="none" xmlns="http://www.w3.org/2000/svg">
<path fill-rule="evenodd" clip-rule="evenodd" d="M8.84523 2.81199C7.98299 2.81217 7.14008 3.06351 6.42266 3.53434C5.70524 4.00518 5.14537 4.67446 4.81357 5.4579C4.19452 6.92159 3.3596 10.5456 2.98216 12.2767C2.87637 12.7553 2.83348 13.1676 2.86779 13.5378C2.9793 14.7763 3.36817 15.3674 3.73417 15.6714C4.11589 15.9909 4.69633 16.1823 5.54556 16.1823C6.47913 16.1823 7.34693 15.708 7.84303 14.9297L10.1948 11.2254L13.3215 6.09545L12.5924 4.89916C12.2041 4.26257 11.6551 3.73576 10.9987 3.37C10.3423 3.00425 9.59948 2.81201 8.84523 2.81199ZM14.9885 3.36087C14.2881 2.2498 13.2903 1.35019 12.1045 0.760831C10.9188 0.171467 9.59102 -0.0848636 8.26699 0.0199849C6.94296 0.124833 5.67388 0.586806 4.59909 1.35518C3.5243 2.12355 2.68537 3.16861 2.1744 4.37561C1.43098 6.13345 0.540293 10.0587 0.187165 11.6856C0.0236853 12.3742 -0.0331899 13.083 0.0184647 13.7883C0.177158 15.5335 0.790485 16.9043 1.88418 17.8177C2.96072 18.717 4.29603 18.9971 5.54556 18.9971C6.48994 18.9972 7.41883 18.7608 8.2449 18.3103C9.07097 17.8598 9.76707 17.2098 10.2677 16.4215L12.6267 12.706L12.641 12.6849L14.9885 8.83143L17.336 12.6849L17.3503 12.706L19.7093 16.4215C20.2098 17.2096 20.9057 17.8594 21.7315 18.31C22.5573 18.7605 23.4859 18.9969 24.43 18.9971C25.8354 18.9971 27.2965 18.603 28.3931 17.4686C29.4796 16.3441 30 14.7101 30 12.6638C30 11.3647 29.4996 9.47461 29.035 7.96166C28.6806 6.81441 28.2921 5.67768 27.8698 4.55294C27.3854 3.31897 26.5612 2.24234 25.4897 1.44397C24.4182 0.645588 23.1418 0.157064 21.8038 0.0332485C20.4659 -0.0905673 19.1194 0.155227 17.9155 0.743034C16.7116 1.33084 15.698 2.23738 14.9885 3.36087ZM16.6555 6.09545L19.7822 11.2254L22.1325 14.9283C22.6272 15.708 23.4964 16.1823 24.43 16.1823C25.3121 16.1823 25.9212 15.943 26.3215 15.5278C26.7332 15.1042 27.1407 14.2752 27.1407 12.6638C27.1407 11.8419 26.7761 10.3345 26.2972 8.77373C25.9606 7.68288 25.5916 6.602 25.1906 5.53249C24.8907 4.78692 24.3849 4.13875 23.7306 3.66116C23.0762 3.18357 22.2992 2.89558 21.4874 2.82972C20.6755 2.76385 19.8612 2.92272 19.1362 3.2884C18.4112 3.65408 17.8045 4.212 17.3846 4.89916L16.6555 6.09545Z" fill="#9A9A9A"/>
</svg>
