<svg width="58" height="39" viewBox="0 0 58 39" fill="none" xmlns="http://www.w3.org/2000/svg">
<path d="M16.7142 0.209319C7.43963 0.209319 0.335938 12.3137 0.335938 25.1133C0.335938 33.1259 4.20034 38.1865 10.6789 38.1865C15.3389 38.1865 18.6919 35.9868 24.659 25.5351C24.659 25.5351 27.1481 21.1355 28.853 18.1037L32.3991 12.0857C35.4111 7.42408 37.9002 5.09894 40.8554 5.09894C46.993 5.09894 51.903 14.1601 51.903 25.2957C51.903 29.5357 50.5164 31.9976 47.6408 31.9976C44.8903 31.9976 43.5718 30.1739 38.3435 21.7396L33.5357 25.9454C38.98 35.0863 42.0147 38.1865 47.5158 38.1865C53.8239 38.1865 57.3359 33.0462 57.3359 24.8626C57.3359 11.4475 50.0731 0.186523 41.2418 0.186523C36.5704 0.186523 32.9106 3.71982 29.6031 8.19912L25.9319 13.6016C22.3062 19.1865 20.1012 22.6856 20.1012 22.6856C15.2707 30.2879 13.5999 31.9862 10.9062 31.9862C8.13295 31.9862 6.49626 29.5471 6.49626 25.2045C6.49626 15.904 11.1222 6.39828 16.6346 6.39828L16.7142 0.209319Z" fill="white"/>
<path d="M29.91 12.4049L25.9319 13.6358C22.3062 19.2207 20.1012 22.7198 20.1012 22.7198C15.2707 30.3221 13.5999 32.0204 10.9062 32.0204C8.13295 32.0204 6.49626 29.5812 6.49626 25.2387C6.49626 15.9382 11.1222 6.43247 16.6346 6.43247L16.7142 0.220717C7.43963 0.209319 0.335938 12.3137 0.335938 25.1133C0.335938 33.1259 4.20034 38.1865 10.6789 38.1865C15.3389 38.1865 18.6919 35.9868 24.659 25.5351C24.659 25.5351 27.1481 21.1355 28.853 18.1037L29.91 12.4049Z" fill="white"/>
<path d="M33.5357 25.9568C38.98 35.0977 42.0147 38.1865 47.5158 38.1865L47.6408 31.9976C44.8903 31.9976 43.5718 30.1853 38.3435 21.751C33.9563 14.5932 31.7172 11.0144 29.6031 8.22192C25.0568 2.42048 21.2606 0.209319 16.7142 0.209319L16.6346 6.42108C19.6239 6.42108 22.113 8.15353 25.9319 13.6358C27.5345 15.8926 30.8193 21.2609 33.5357 25.9568Z" fill="white"/>
<path d="M29.5918 8.22192C25.0454 2.42048 21.2492 0.209319 16.6915 0.209319C12.2019 0.209319 8.22387 3.04735 5.30284 7.42408L9.69008 11.9262C11.52 8.60944 13.9864 6.43247 16.6346 6.43247C19.6239 6.43247 22.0903 8.14213 25.9092 13.6244L29.5918 8.22192Z" fill="white"/>
<path d="M36.5591 30.7438C40.2985 36.2033 43.1172 38.1865 47.5158 38.1865C53.8239 38.1865 57.3359 33.0462 57.3359 24.8626L51.903 25.2957C51.903 29.5357 50.5164 31.9976 47.6408 31.9976C45.4245 31.9976 44.1288 30.8122 40.9577 25.9112L36.5591 30.7438Z" fill="white"/>
</svg>
