<svg width="18" height="18" viewBox="0 0 18 18" fill="none" xmlns="http://www.w3.org/2000/svg">
<path d="M7.76227 6.20993C8.10523 6.20993 8.38325 5.9319 8.38325 5.58893C8.38325 5.24597 8.10523 4.96794 7.76227 4.96794C7.41931 4.96794 7.14129 5.24597 7.14129 5.58893C7.14129 5.9319 7.41931 6.20993 7.76227 6.20993Z" fill="white"/>
<path d="M4.03638 5.27844C4.37934 5.27844 4.65736 5.00041 4.65736 4.65744C4.65736 4.31448 4.37934 4.03645 4.03638 4.03645C3.69342 4.03645 3.4154 4.31448 3.4154 4.65744C3.4154 5.00041 3.69342 5.27844 4.03638 5.27844Z" fill="white"/>
<path d="M11.1777 6.20993C11.5206 6.20993 11.7987 5.9319 11.7987 5.58893C11.7987 5.24597 11.5206 4.96794 11.1777 4.96794C10.8347 4.96794 10.5567 5.24597 10.5567 5.58893C10.5567 5.9319 10.8347 6.20993 11.1777 6.20993Z" fill="white"/>
<path d="M7.14129 8.0729H7.76227V10.8674H7.14129V8.0729ZM4.65736 7.14141H5.27835V10.8674H4.65736V7.14141ZM9.62522 9.00439H10.2462V10.8674H9.62522V9.00439Z" fill="white"/>
<path d="M14.9036 7.45191C14.9036 5.97806 14.4665 4.53731 13.6477 3.31185C12.8289 2.08639 11.6651 1.13126 10.3035 0.567246C8.94182 0.00322884 7.44351 -0.144344 5.99801 0.14319C4.55251 0.430723 3.22473 1.14045 2.18258 2.18262C1.14043 3.22478 0.430716 4.55259 0.143187 5.99812C-0.144341 7.44364 0.00322878 8.94197 0.567236 10.3036C1.13124 11.6653 2.08636 12.8291 3.31179 13.6479C4.53723 14.4668 5.97796 14.9038 7.45178 14.9038C9.42741 14.9015 11.3215 14.1157 12.7184 12.7187C14.1154 11.3217 14.9013 9.42757 14.9036 7.45191ZM12.7301 11.4884H3.4154V10.8674H4.03638V6.83092C4.03638 6.74857 4.06909 6.66959 4.12732 6.61136C4.18555 6.55313 4.26453 6.52042 4.34687 6.52042H5.58884C5.67118 6.52042 5.75016 6.55313 5.80839 6.61136C5.86662 6.66959 5.89933 6.74857 5.89933 6.83092V10.8674H6.52031V7.76241C6.52031 7.68006 6.55302 7.60108 6.61125 7.54285C6.66948 7.48462 6.74845 7.45191 6.8308 7.45191H8.07276C8.15511 7.45191 8.23408 7.48462 8.29231 7.54285C8.35054 7.60108 8.38325 7.68006 8.38325 7.76241V10.8674H9.00423V8.69389C9.00423 8.61155 9.03695 8.53257 9.09517 8.47434C9.1534 8.41611 9.23238 8.3834 9.31472 8.3834H10.5567C10.639 8.3834 10.718 8.41611 10.7762 8.47434C10.8345 8.53257 10.8672 8.61155 10.8672 8.69389V10.8674H12.7301V11.4884ZM2.79442 4.65744C2.7931 4.32805 2.92269 4.01162 3.15467 3.77777C3.38665 3.54393 3.70203 3.41181 4.03141 3.41049C4.3608 3.40917 4.67723 3.53876 4.91107 3.77075C5.14492 4.00273 5.27703 4.31811 5.27835 4.64751L6.67711 4.99899C6.79458 4.77976 6.97559 4.60116 7.19637 4.48663C7.41716 4.37209 7.6674 4.32698 7.91428 4.35719C8.16116 4.38741 8.39314 4.49155 8.57978 4.65596C8.76642 4.82036 8.89901 5.03734 8.96014 5.27844H9.9798C10.0554 4.98575 10.2351 4.73066 10.4853 4.561C10.7355 4.39135 11.0389 4.31876 11.3388 4.35685C11.6387 4.39494 11.9144 4.54109 12.1142 4.76791C12.314 4.99473 12.4243 5.28664 12.4243 5.58893C12.4243 5.89122 12.314 6.18314 12.1142 6.40996C11.9144 6.63678 11.6387 6.78293 11.3388 6.82102C11.0389 6.85911 10.7355 6.78652 10.4853 6.61686C10.2351 6.4472 10.0554 6.19212 9.9798 5.89943H8.96014C8.8861 6.19195 8.70785 6.4474 8.45884 6.61782C8.20982 6.78823 7.90718 6.86191 7.6077 6.82502C7.30822 6.78813 7.0325 6.6432 6.83229 6.41744C6.63208 6.19168 6.52115 5.90062 6.52031 5.59887L5.1231 5.24739C4.99267 5.491 4.78446 5.68396 4.53165 5.79552C4.27884 5.90708 3.99596 5.93082 3.72809 5.86296C3.46022 5.79509 3.22277 5.63954 3.05356 5.42106C2.88436 5.20259 2.79313 4.93378 2.79442 4.65744ZM7.45178 14.2828C6.10078 14.2828 4.78011 13.8822 3.65679 13.1316C2.53348 12.381 1.65795 11.3142 1.14095 10.066C0.623941 8.8178 0.488669 7.44433 0.752237 6.11926C1.0158 4.7942 1.66637 3.57704 2.62168 2.62172C3.57698 1.6664 4.79411 1.01582 6.11916 0.75225C7.4442 0.488677 8.81765 0.623952 10.0658 1.14097C11.314 1.65798 12.3808 2.53352 13.1314 3.65686C13.882 4.7802 14.2826 6.10088 14.2826 7.45191H13.6616C13.6616 6.2237 13.2974 5.02308 12.6151 4.00186C11.9327 2.98065 10.9629 2.1847 9.82817 1.71469C8.69348 1.24468 7.44489 1.1217 6.24031 1.36131C5.03572 1.60092 3.92924 2.19236 3.06078 3.06083C2.19232 3.9293 1.60089 5.03581 1.36129 6.24041C1.12168 7.44502 1.24465 8.69363 1.71466 9.82834C2.18467 10.9631 2.98059 11.9329 4.00179 12.6153C5.02299 13.2976 6.2236 13.6618 7.45178 13.6618V14.2828ZM17.7781 16.6646L14.9036 13.7904L13.7901 14.9038L16.6647 17.7781C16.8131 17.9219 17.0121 18.0016 17.2188 18C17.4255 17.9983 17.6232 17.9155 17.7694 17.7694C17.9155 17.6232 17.9983 17.4255 18 17.2188C18.0016 17.0121 17.9219 16.8131 17.7781 16.6646Z" fill="white"/>
<path d="M14.9036 12.7303C14.9038 12.6726 14.8926 12.6155 14.8705 12.5622C14.8484 12.5089 14.816 12.4605 14.775 12.4198L14.2118 11.8566C13.5976 12.7959 12.7957 13.5978 11.8564 14.212L12.4196 14.7753C12.5032 14.8552 12.6145 14.8998 12.7301 14.8998C12.8458 14.8998 12.957 14.8552 13.0406 14.7753L14.775 13.0408C14.816 13.0002 14.8484 12.9518 14.8705 12.8985C14.8926 12.8452 14.9038 12.788 14.9036 12.7303Z" fill="white"/>
</svg>
