<svg width="70" height="70" viewBox="0 0 70 70" fill="none" xmlns="http://www.w3.org/2000/svg">
<rect x="0.5" y="0.75" width="69" height="69" rx="34.5" fill="#2F2F3C"/>
<path d="M37.0934 27.6284C36.415 27.4424 35.7106 27.3481 35 27.3481C30.6429 27.3481 27.0981 30.8929 27.0981 35.25C27.0981 39.6071 30.6429 43.1519 35 43.1519C39.3571 43.1519 42.9018 39.6071 42.9018 35.25C42.9018 34.5393 42.8075 33.835 42.6216 33.1566C42.4939 32.6906 42.7681 32.2092 43.2342 32.0815C43.6999 31.9538 44.1816 32.228 44.3093 32.694C44.5371 33.5269 44.6523 34.3865 44.6518 35.25C44.6518 40.572 40.322 44.9019 35 44.9019C29.678 44.9019 25.3481 40.572 25.3481 35.25C25.3481 29.928 29.678 25.5981 35 25.5981C35.8669 25.5981 36.7268 25.7134 37.556 25.9407C37.9446 26.0472 38.1999 26.3997 38.1999 26.7842C38.1998 26.8624 38.1893 26.9403 38.1685 27.0158C38.0408 27.4819 37.5595 27.7563 37.0934 27.6284ZM47.3385 30.6803C46.8751 30.8175 46.6106 31.3043 46.7478 31.7677C47.081 32.8932 47.25 34.0648 47.25 35.25C47.25 42.0047 41.7546 47.5 35 47.5C28.2453 47.5 22.75 42.0047 22.75 35.25C22.75 28.4953 28.2453 23 35 23C36.1853 23 37.3568 23.1689 38.4821 23.5021C38.9455 23.6394 39.4323 23.3748 39.5695 22.9115C39.594 22.8286 39.6057 22.7451 39.6057 22.6629C39.6058 22.2853 39.3594 21.9368 38.9789 21.8241C37.6922 21.4431 36.3535 21.25 35 21.25C31.2605 21.25 27.7447 22.7063 25.1005 25.3505C22.4563 27.9948 21 31.5105 21 35.25C21 38.9895 22.4563 42.5053 25.1005 45.1495C27.7447 47.7938 31.2605 49.25 35 49.25C38.7395 49.25 42.2552 47.7937 44.8995 45.1495C47.5437 42.5053 49 38.9895 49 35.25C49 33.8965 48.8068 32.5578 48.4259 31.2709C48.2887 30.8076 47.8018 30.5433 47.3385 30.6803ZM35 31.75C35.1287 31.75 35.2586 31.7571 35.3862 31.7711C35.8668 31.824 36.2988 31.4771 36.3514 30.9968C36.4041 30.5164 36.0575 30.0843 35.5771 30.0316C35.3854 30.0106 35.1928 30 35 30C32.1051 30 29.75 32.3551 29.75 35.25C29.75 38.1449 32.1051 40.5 35 40.5C37.8949 40.5 40.25 38.1449 40.25 35.25C40.25 34.7667 39.8582 34.375 39.375 34.375C38.8917 34.375 38.5 34.7667 38.5 35.25C38.5 37.1799 36.9299 38.75 35 38.75C33.0701 38.75 31.5 37.1799 31.5 35.25C31.5 33.3201 33.0701 31.75 35 31.75ZM39.4676 29.5451L39.9035 25.173C39.9235 24.9719 40.0125 24.7839 40.1554 24.641L43.2903 21.5063C43.4085 21.388 43.5582 21.3062 43.7215 21.2703C43.8848 21.2345 44.055 21.2463 44.2119 21.3041C44.3688 21.362 44.5058 21.4637 44.6067 21.597C44.7076 21.7303 44.7682 21.8898 44.7813 22.0565L45.0299 25.2201L48.1935 25.4686C48.3602 25.4817 48.5197 25.5423 48.653 25.6432C48.7864 25.7442 48.888 25.8812 48.9459 26.038C49.0038 26.1949 49.0155 26.3651 48.9797 26.5285C48.9438 26.6918 48.8619 26.8415 48.7437 26.9597L45.6089 30.0944C45.466 30.2374 45.2781 30.3264 45.077 30.3464L40.705 30.7825L35.6187 35.8687C35.5375 35.9501 35.4411 36.0146 35.3349 36.0586C35.2287 36.1026 35.1149 36.1251 35 36.125C34.8851 36.1252 34.7712 36.1026 34.6651 36.0586C34.5589 36.0146 34.4624 35.9501 34.3813 35.8687C34.0396 35.527 34.0396 34.973 34.3813 34.6313L39.4676 29.5451ZM41.284 28.9661L44.5924 28.6361L46.1638 27.0646L44.1476 26.9063C43.9399 26.8899 43.7448 26.8 43.5974 26.6527C43.4501 26.5053 43.3601 26.3102 43.3438 26.1025L43.1854 24.0861L41.6139 25.6576L41.284 28.9661Z" fill="white"/>
</svg>
