<svg width="70" height="69" viewBox="0 0 70 69" fill="none" xmlns="http://www.w3.org/2000/svg">
<rect x="0.5" width="69" height="69" rx="34.5" fill="#2F2F3C"/>
<path fill-rule="evenodd" clip-rule="evenodd" d="M42.5122 23.5689C42.2461 23.8351 42.0966 24.1961 42.0966 24.5725C42.0966 24.9489 42.2461 25.3098 42.5122 25.576L44.3475 27.4114H36.4184C34.9126 27.4114 33.4684 28.0096 32.4036 29.0744C31.3388 30.1392 30.7406 31.5834 30.7406 33.0892V34.5087C30.7406 34.8852 30.8901 35.2462 31.1563 35.5124C31.4225 35.7786 31.7836 35.9281 32.1601 35.9281C32.5365 35.9281 32.8976 35.7786 33.1638 35.5124C33.43 35.2462 33.5795 34.8852 33.5795 34.5087V33.0892C33.5795 32.3363 33.8786 31.6142 34.411 31.0818C34.9434 30.5494 35.6655 30.2503 36.4184 30.2503H44.3475L42.5122 32.0857C42.2536 32.3534 42.1105 32.7119 42.1138 33.0841C42.117 33.4563 42.2663 33.8123 42.5295 34.0755C42.7926 34.3387 43.1487 34.488 43.5208 34.4912C43.893 34.4944 44.2516 34.3514 44.5193 34.0928L48.7777 29.8344C49.0438 29.5682 49.1933 29.2072 49.1933 28.8309C49.1933 28.4545 49.0438 28.0935 48.7777 27.8273L44.5193 23.5689C44.2531 23.3028 43.8921 23.1533 43.5157 23.1533C43.1393 23.1533 42.7784 23.3028 42.5122 23.5689ZM37.8379 33.0892C37.4614 33.0892 37.1004 33.2388 36.8342 33.505C36.568 33.7712 36.4184 34.1322 36.4184 34.5087V35.9281C36.4184 36.6811 36.1193 37.4032 35.5869 37.9356C35.0545 38.468 34.3324 38.7671 33.5795 38.7671H25.6504L27.4858 36.9317C27.6213 36.8008 27.7295 36.6441 27.8039 36.471C27.8783 36.2978 27.9174 36.1115 27.9191 35.923C27.9207 35.7346 27.8848 35.5477 27.8134 35.3732C27.742 35.1988 27.6366 35.0403 27.5034 34.907C27.3701 34.7737 27.2116 34.6683 27.0372 34.5969C26.8627 34.5256 26.6758 34.4897 26.4873 34.4913C26.2989 34.4929 26.1126 34.5321 25.9394 34.6065C25.7662 34.6809 25.6096 34.789 25.4787 34.9246L21.2203 39.183C20.9542 39.4492 20.8047 39.8101 20.8047 40.1865C20.8047 40.5629 20.9542 40.9239 21.2203 41.1901L25.4787 45.4485C25.7464 45.707 26.1049 45.8501 26.4771 45.8469C26.8493 45.8436 27.2053 45.6943 27.4685 45.4312C27.7317 45.168 27.8809 44.812 27.8842 44.4398C27.8874 44.0676 27.7443 43.7091 27.4858 43.4413L25.6504 41.606H33.5795C35.0854 41.606 36.5296 41.0078 37.5944 39.943C38.6592 38.8782 39.2574 37.434 39.2574 35.9281V34.5087C39.2574 34.1322 39.1078 33.7712 38.8416 33.505C38.5754 33.2388 38.2144 33.0892 37.8379 33.0892Z" fill="white"/>
</svg>
