<svg width="69" height="69" viewBox="0 0 69 69" fill="none" xmlns="http://www.w3.org/2000/svg">
<rect width="69" height="69" rx="34.5" fill="#2F2F3C"/>
<path d="M39.1394 32.1364C40.4448 32.1364 41.503 31.0782 41.503 29.7728C41.503 28.4674 40.4448 27.4092 39.1394 27.4092C37.834 27.4092 36.7758 28.4674 36.7758 29.7728C36.7758 31.0782 37.834 32.1364 39.1394 32.1364Z" fill="white"/>
<path d="M30.8668 32.1364C32.1722 32.1364 33.2304 31.0782 33.2304 29.7728C33.2304 28.4674 32.1722 27.4092 30.8668 27.4092C29.5615 27.4092 28.5033 28.4674 28.5033 29.7728C28.5033 31.0782 29.5615 32.1364 30.8668 32.1364Z" fill="white"/>
<path d="M29.6851 40.4088C30.9905 40.4088 32.0487 39.3506 32.0487 38.0452C32.0487 36.7399 30.9905 35.6817 29.6851 35.6817C28.3798 35.6817 27.3216 36.7399 27.3216 38.0452C27.3216 39.3506 28.3798 40.4088 29.6851 40.4088Z" fill="white"/>
<path d="M48.6362 33.233C48.2923 29.8034 46.7255 26.612 44.2222 24.2425C41.719 21.8729 38.4466 20.4834 35.0032 20.328C33.1193 20.2593 31.2407 20.5668 29.4771 21.2327C27.7135 21.8985 26.1003 22.9093 24.7319 24.2059C23.3635 25.5025 22.2674 27.0589 21.5076 28.7841C20.7478 30.5093 20.3396 32.3687 20.3068 34.2535C20.2741 36.1383 20.6174 38.0107 21.3168 39.7613C22.0162 41.5119 23.0576 43.1054 24.3801 44.4488C25.7026 45.7922 27.2796 46.8584 29.019 47.5851C30.7584 48.3118 32.6253 48.6845 34.5104 48.6812C34.9098 48.6812 35.301 48.6552 35.6922 48.6233C36.1381 48.5864 36.5535 48.3821 36.8551 48.0516C37.1568 47.721 37.3222 47.2887 37.3183 46.8412L37.2828 42.7936C37.277 42.123 37.4709 41.4658 37.8398 40.9057C38.2087 40.3456 38.736 39.908 39.3545 39.6485C39.9729 39.3891 40.6546 39.3196 41.3127 39.4489C41.9708 39.5782 42.5755 39.9004 43.0499 40.3745L43.1681 40.4927C43.5011 40.8263 43.9127 41.0708 44.3649 41.2038C44.8172 41.3367 45.2956 41.3539 45.7562 41.2538C46.2093 41.1564 46.6308 40.9469 46.982 40.6444C47.3332 40.3419 47.6029 39.9562 47.7664 39.5225C48.5316 37.5196 48.8291 35.3684 48.6362 33.233ZM44.7966 37.2109C43.7626 36.4412 42.5344 35.9754 41.2501 35.8658C39.9659 35.7562 38.6765 36.0072 37.5271 36.5905C36.3777 37.1739 35.4139 38.0664 34.7442 39.1677C34.0745 40.2691 33.7254 41.5354 33.7363 42.8243L33.7564 45.1087C31.009 44.9119 28.4452 43.657 26.6044 41.6081C24.7636 39.5591 23.7894 36.8759 23.887 34.1233C23.9845 31.3706 25.1461 28.7631 27.1273 26.8496C29.1085 24.9361 31.7548 23.8657 34.5092 23.8639C34.6274 23.8639 34.7597 23.8639 34.885 23.871C37.466 23.9877 39.9189 25.0293 41.7953 26.8053C43.6718 28.5813 44.8466 30.9731 45.105 33.5438C45.2169 34.7748 45.1125 36.0159 44.7966 37.2109Z" fill="white"/>
</svg>
