<svg width="69" height="70" viewBox="0 0 69 70" fill="none" xmlns="http://www.w3.org/2000/svg">
<rect y="0.75" width="69" height="69" rx="34.5" fill="#2F2F3C"/>
<path d="M41.1667 23.75C40.6953 23.7505 40.2435 23.9371 39.9102 24.2688C39.5769 24.6005 39.3894 25.0502 39.3889 25.5192V25.8138C37.4909 27.813 34.9228 29.182 33.0766 29.9862C30.8091 30.9737 28.7225 31.4904 27.8333 31.4904H22.5C21.9697 31.491 21.4614 31.7009 21.0864 32.074C20.7115 32.4471 20.5006 32.9531 20.5 33.4808V37.0192C20.5006 37.5469 20.7115 38.0529 21.0864 38.426C21.4614 38.7991 21.9697 39.009 22.5 39.0096H23.6111V43.6538C23.6111 43.8298 23.6813 43.9986 23.8064 44.123C23.9314 44.2474 24.101 44.3173 24.2778 44.3173H26.5C26.6487 44.3173 26.7931 44.2679 26.9103 44.1768C27.0275 44.0858 27.1107 43.9583 27.1468 43.8148L28.3441 39.0489C29.3904 39.186 31.1693 39.6835 33.0766 40.5141C34.9228 41.3182 37.4909 42.6872 39.3889 44.6865V44.9808C39.3889 45.45 39.5762 45.9 39.9096 46.2318C40.243 46.5636 40.6952 46.75 41.1667 46.75C41.6382 46.75 42.0903 46.5636 42.4237 46.2318C42.7571 45.9 42.9444 45.45 42.9444 44.9808V25.5192C42.9439 25.0502 42.7564 24.6005 42.4232 24.2688C42.0899 23.9371 41.638 23.7505 41.1667 23.75ZM27.1667 37.6827H24.9444V32.8173H27.1667V37.6827ZM21.8333 37.0192V33.4808C21.8335 33.3049 21.9038 33.1362 22.0288 33.0118C22.1538 32.8875 22.3232 32.8175 22.5 32.8173H23.6111V37.6827H22.5C22.3232 37.6825 22.1538 37.6125 22.0288 37.4882C21.9038 37.3638 21.8335 37.1951 21.8333 37.0192ZM25.9795 42.9904H24.9444V39.0096H26.9795L25.9795 42.9904ZM28.5 37.734V32.766C30.8433 32.4554 35.8853 30.7281 39.3889 27.6541V42.8459C35.8853 39.7719 30.8433 38.0446 28.5 37.734ZM41.6111 44.9808C41.6111 45.0981 41.5643 45.2106 41.4809 45.2935C41.3976 45.3765 41.2845 45.4231 41.1667 45.4231C41.0488 45.4231 40.9357 45.3765 40.8524 45.2935C40.769 45.2106 40.7222 45.0981 40.7222 44.9808V25.5192C40.7222 25.4019 40.769 25.2894 40.8524 25.2065C40.9357 25.1235 41.0488 25.0769 41.1667 25.0769C41.2845 25.0769 41.3976 25.1235 41.4809 25.2065C41.5643 25.2894 41.6111 25.4019 41.6111 25.5192V44.9808ZM47.8333 34.5865H45.6111C45.4343 34.5865 45.2647 34.6564 45.1397 34.7809C45.0147 34.9053 44.9444 35.074 44.9444 35.25C44.9444 35.426 45.0147 35.5947 45.1397 35.7191C45.2647 35.8436 45.4343 35.9135 45.6111 35.9135H47.8333C48.0101 35.9135 48.1797 35.8436 48.3047 35.7191C48.4298 35.5947 48.5 35.426 48.5 35.25C48.5 35.074 48.4298 34.9053 48.3047 34.7809C48.1797 34.6564 48.0101 34.5865 47.8333 34.5865ZM44.5142 31.1219C44.6141 31.1219 44.7127 31.0995 44.8026 31.0563L46.8056 30.0979C46.9649 30.0217 47.0873 29.8856 47.1458 29.7195C47.2043 29.5535 47.1941 29.3711 47.1175 29.2125C47.0409 29.0539 46.9041 28.9321 46.7372 28.8739C46.5704 28.8157 46.3871 28.8258 46.2278 28.9021L44.2251 29.8604C44.0888 29.9256 43.9788 30.0348 43.9132 30.1703C43.8475 30.3058 43.8301 30.4595 43.8637 30.6061C43.8974 30.7528 43.9801 30.8837 44.0983 30.9774C44.2166 31.0712 44.3633 31.1221 44.5144 31.1219H44.5142ZM46.8056 40.4021L44.8028 39.4437C44.6437 39.3689 44.4612 39.3597 44.2953 39.4183C44.1294 39.4768 43.9935 39.5982 43.9172 39.7561C43.8409 39.914 43.8305 40.0955 43.8881 40.261C43.9458 40.4265 44.0669 40.5626 44.2251 40.6396L46.2278 41.5979C46.3871 41.6742 46.5704 41.6843 46.7372 41.6261C46.9041 41.5679 47.0409 41.4461 47.1175 41.2875C47.1941 41.1289 47.2043 40.9465 47.1458 40.7805C47.0873 40.6144 46.9649 40.4783 46.8056 40.4021Z" fill="white"/>
</svg>
