<svg width="69" height="69" viewBox="0 0 69 69" fill="none" xmlns="http://www.w3.org/2000/svg">
<rect width="69" height="69" rx="34.5" fill="#2F2F3C"/>
<path d="M21.5135 40.3724C21.7281 40.4797 21.9591 40.5539 22.1974 40.5954L21.8261 41.1254C21.7512 41.2326 21.7022 41.3557 21.6829 41.485L21.1302 45.2124C21.1072 45.3671 21.1278 45.5253 21.1896 45.669C21.2514 45.8127 21.3521 45.9364 21.4803 46.0262C21.6085 46.1159 21.7591 46.1682 21.9153 46.1771C22.0716 46.1861 22.2272 46.1513 22.3648 46.0768L25.4863 44.3865C25.9175 45.1654 26.7477 45.6941 27.6992 45.6941C28.3461 45.6941 28.9369 45.4499 29.3843 45.0491C29.8319 45.4499 30.4228 45.6942 31.0693 45.6942C32.4632 45.6942 33.5971 44.5602 33.5971 43.1666V42.8441C35.1644 43.6067 36.9095 44.0091 38.6523 44.0091C40.4525 44.0091 42.2378 43.5962 43.82 42.8158V44.8516C43.82 45.1437 43.9711 45.4148 44.2195 45.5685C44.3417 45.6439 44.4811 45.6869 44.6246 45.6934C44.768 45.6998 44.9108 45.6695 45.0392 45.6053L48.4095 43.9203C48.5495 43.8503 48.6672 43.7427 48.7495 43.6096C48.8317 43.4765 48.8753 43.3231 48.8753 43.1666V33.056C48.8753 32.5907 48.4979 32.2135 48.0328 32.2135H42.2177L36.2741 29.3053L38.5322 26.0804C38.7989 25.6995 38.7065 25.1738 38.3251 24.907L35.5646 22.9738C35.1836 22.7073 34.658 22.7996 34.3912 23.1808C34.0344 23.6902 31.7578 26.9416 31.4035 27.4475C30.7124 27.0844 29.8837 27.0862 29.358 27.3144L26.152 28.7071C25.6887 28.9078 25.2965 29.2431 25.0262 29.6695L20.4257 36.9056C20.1268 37.3758 20.0031 38.1825 20.2458 38.9108C20.4592 39.5512 20.9094 40.0703 21.5135 40.3724H21.5135ZM23.0443 43.7928L23.3207 41.9291L24.0742 40.8529C24.3986 41.3264 24.8379 41.7099 25.3509 41.9675L24.701 42.8956L23.0443 43.7928ZM27.6992 44.0093C27.2347 44.0093 26.8567 43.6313 26.8567 43.1666V42.7548L27.1584 42.3241H28.5418V43.1666C28.5418 43.6313 28.1639 44.0093 27.6992 44.0093ZM31.0695 44.0093C30.6049 44.0093 30.227 43.6313 30.227 43.1666V42.3241H31.9121V43.1666C31.9121 43.6313 31.5341 44.0093 31.0695 44.0093ZM47.1903 42.6459L45.505 43.4884V33.8986H47.1903V42.6459ZM41.6522 33.8128C41.7675 33.8692 41.8942 33.8986 42.0226 33.8986H43.82V40.9495C43.2521 41.1702 41.489 42.3241 38.6525 42.3241C35.6455 42.3241 33.7935 40.9923 33.1313 40.7279C33.0142 40.6698 32.8853 40.6393 32.7546 40.639H26.8567C25.9951 40.639 25.2829 39.9889 25.184 39.1534C25.2103 39.0312 25.2079 38.9057 25.18 38.7857C25.2647 37.9353 25.9844 37.2689 26.8567 37.2689H32.0566C33.8183 37.2689 35.4748 36.5828 36.7206 35.337C37.0495 35.0079 37.0495 34.4746 36.7206 34.1454C36.3915 33.8163 35.8581 33.8163 35.529 34.1454C34.6013 35.0729 33.3683 35.5839 32.0567 35.5839H31.8781L35.2955 30.7029L41.6522 33.8128ZM33.3551 27.5983L34.7354 28.565L29.8209 35.5839H27.7638L33.3551 27.5983ZM35.2881 24.8378L36.6686 25.8043L35.7019 27.1848L34.3216 26.218L35.2881 24.8378ZM21.8749 37.767L26.4482 30.5737C26.5383 30.4316 26.6691 30.3198 26.8236 30.253L29.9894 28.8774C30.1269 28.8372 30.2723 28.8325 30.412 28.8639L25.5091 35.8658C24.4728 36.3197 23.7071 37.2799 23.5272 38.4322C23.3732 38.8649 22.7038 39.0834 22.2671 38.8651C21.8562 38.6598 21.693 38.172 21.8749 37.767Z" fill="white"/>
</svg>
