<svg width="69" height="70" viewBox="0 0 69 70" fill="none" xmlns="http://www.w3.org/2000/svg">
<rect y="0.5" width="69" height="69" rx="34.5" fill="#2F2F3C"/>
<path d="M35.1965 37.6813C34.7984 37.6813 34.4757 38.004 34.4757 38.4021C34.4754 40.268 32.9626 41.7802 31.0968 41.7799C29.231 41.7796 27.7187 40.2669 27.719 38.401C27.7193 36.5354 29.2317 35.0232 31.0973 35.0232C31.4954 35.0232 31.8181 34.7005 31.8181 34.3024C31.8181 33.9043 31.4954 33.5816 31.0973 33.5816C28.4358 33.5835 26.2787 35.7406 26.2768 38.4021C26.2768 41.0643 28.4349 43.2224 31.0971 43.2224C33.7592 43.2224 35.9173 41.0643 35.9173 38.4021C35.9173 38.004 35.5946 37.6813 35.1965 37.6813Z" fill="white"/>
<path d="M40.923 40.06C40.8542 39.6679 40.4806 39.4057 40.0885 39.4745L38.5798 39.739C38.4447 39.7626 38.3191 39.8244 38.2178 39.9171C38.1165 40.0097 38.0438 40.1293 38.0082 40.2618C37.8473 40.8589 37.6093 41.4324 37.3001 41.9679C37.2311 42.087 37.1977 42.2235 37.2037 42.3611C37.2098 42.4986 37.2552 42.6316 37.3345 42.7441L38.215 43.9989C38.2747 44.0836 38.3025 44.1866 38.2936 44.2898C38.2846 44.3929 38.2395 44.4896 38.1662 44.5628L37.2613 45.4677C37.1883 45.5409 37.0917 45.5861 36.9886 45.5951C36.8856 45.6041 36.7826 45.5765 36.698 45.517L35.4432 44.6365C35.3306 44.5572 35.1977 44.5119 35.0601 44.5058C34.9226 44.4997 34.7861 44.5331 34.667 44.6022C34.1315 44.9114 33.558 45.1494 32.9609 45.3102C32.8284 45.3458 32.7088 45.4186 32.6161 45.5198C32.5235 45.6211 32.4617 45.7467 32.438 45.8819L32.1702 47.3889C32.1525 47.4908 32.0993 47.5832 32.02 47.6497C31.9408 47.7163 31.8406 47.7527 31.7372 47.7526H30.4569C30.3535 47.7527 30.2533 47.7163 30.1741 47.6497C30.0948 47.5832 30.0417 47.4908 30.0239 47.3889L29.7594 45.8807C29.7357 45.7456 29.6739 45.62 29.5813 45.5187C29.4887 45.4174 29.3691 45.3447 29.2366 45.3091C28.6393 45.1482 28.0656 44.9102 27.5299 44.601C27.4108 44.532 27.2743 44.4986 27.1368 44.5047C26.9992 44.5108 26.8662 44.5561 26.7537 44.6354L25.5011 45.5154C25.4165 45.575 25.3135 45.6029 25.2103 45.5939C25.1071 45.585 25.0104 45.5399 24.9372 45.4666L24.0324 44.5617C23.9592 44.4886 23.9141 44.392 23.9051 44.289C23.8961 44.186 23.9237 44.0831 23.983 43.9983L24.8635 42.7436C24.9428 42.631 24.9881 42.4981 24.9942 42.3605C25.0003 42.2229 24.9669 42.0865 24.8979 41.9673C24.5885 41.4319 24.3505 40.8584 24.1898 40.2613C24.1542 40.1287 24.0815 40.0091 23.9802 39.9165C23.8789 39.8239 23.7533 39.7621 23.6182 39.7384L22.11 39.4739C22.0083 39.4562 21.9161 39.4032 21.8495 39.3242C21.783 39.2452 21.7465 39.1453 21.7463 39.042V37.7617C21.7462 37.6583 21.7826 37.5581 21.8492 37.4789C21.9157 37.3996 22.0081 37.3465 22.11 37.3287L23.6182 37.0642C23.7533 37.0405 23.8789 36.9787 23.9802 36.8861C24.0815 36.7935 24.1542 36.6739 24.1898 36.5414C24.3504 35.9437 24.5884 35.3696 24.8979 34.8336C24.9669 34.7145 25.0003 34.578 24.9942 34.4405C24.9881 34.3029 24.9428 34.1699 24.8635 34.0574L23.9836 32.8065C23.9239 32.7218 23.8961 32.6188 23.905 32.5156C23.9139 32.4124 23.959 32.3157 24.0324 32.2426L24.9378 31.3372C25.0109 31.264 25.1075 31.219 25.2106 31.21C25.3136 31.2011 25.4165 31.2288 25.5011 31.2884L26.7559 32.1689C26.8685 32.2481 27.0014 32.2935 27.139 32.2996C27.2765 32.3057 27.413 32.2723 27.5321 32.2032C28.0678 31.894 28.6415 31.656 29.2388 31.4952C29.3713 31.4596 29.4909 31.3868 29.5835 31.2856C29.6761 31.1843 29.7379 31.0587 29.7616 30.9235L30.0261 29.4154C30.0949 29.0233 29.8327 28.6497 29.4406 28.5809C29.0485 28.5122 28.6749 28.7743 28.6061 29.1664L28.4187 30.2365C28.0076 30.3724 27.6075 30.5392 27.2216 30.7356L26.3317 30.1112C25.5841 29.5852 24.5662 29.6739 23.9209 30.3214L23.0127 31.2235C22.3658 31.8692 22.2774 32.8867 22.8031 33.6343L23.4274 34.5242C23.231 34.9102 23.0641 35.3106 22.9284 35.7219L21.8583 35.9093C20.9591 36.0672 20.3036 36.8488 20.3047 37.7617V39.042C20.3035 39.9559 20.9602 40.738 21.8605 40.895L22.9306 41.083C23.0664 41.4941 23.2332 41.8943 23.4296 42.2801L22.8031 43.17C22.2775 43.9177 22.3662 44.9352 23.0132 45.5808L23.9187 46.4857C24.5642 47.1328 25.5819 47.2212 26.3295 46.6953L27.2166 46.0709C27.6025 46.2673 28.0027 46.4341 28.4137 46.57L28.6011 47.6401C28.759 48.5407 29.5425 49.1969 30.4569 49.1942H31.7372C32.6513 49.1953 33.4335 48.5384 33.5902 47.6378L33.7782 46.5677C34.1893 46.4319 34.5894 46.2651 34.9753 46.0687L35.8657 46.693C36.6134 47.2189 37.6311 47.1302 38.2765 46.4829L39.182 45.5775C39.829 44.9319 39.9177 43.9144 39.3921 43.1666L38.7683 42.2795C38.9647 41.8937 39.1315 41.4935 39.2674 41.0824L40.3375 40.8945C40.7296 40.8257 40.9917 40.4521 40.923 40.06Z" fill="white"/>
<path d="M47.3404 27.3483L46.5863 27.2164C46.4921 26.9445 46.381 26.6787 46.2536 26.4207L46.6972 25.7958C47.1542 25.146 47.0772 24.2616 46.5148 23.7005L45.8006 22.9847C45.2393 22.4212 44.3535 22.3439 43.7031 22.8017L43.076 23.2414C42.818 23.114 42.5522 23.0029 42.2803 22.9087L42.1506 22.158C42.0141 21.3752 41.3339 20.8044 40.5393 20.8057H39.5307C38.7362 20.8047 38.0562 21.3758 37.92 22.1586L37.7875 22.9126C37.5156 23.0068 37.2498 23.1179 36.9918 23.2453L36.3647 22.8017C35.7149 22.3447 34.8305 22.4218 34.2694 22.9842L33.5564 23.6983C32.9928 24.2596 32.9155 25.1454 33.3734 25.7958L33.8131 26.4229C33.6857 26.6809 33.5746 26.9467 33.4804 27.2186L32.7291 27.3483C31.9466 27.4849 31.3758 28.1647 31.3768 28.9591V29.9676C31.3752 30.7624 31.9462 31.4429 32.7291 31.5795L33.4826 31.7114C33.5768 31.9833 33.6879 32.2491 33.8153 32.5071L33.3751 33.1342C32.918 33.7838 32.9945 34.668 33.5564 35.2295L34.2694 35.9425C34.8306 36.5053 35.7154 36.5823 36.3653 36.125L36.9941 35.6853C37.2521 35.8126 37.5178 35.9237 37.7897 36.0179L37.9222 36.772C38.0587 37.5546 38.7386 38.1253 39.533 38.1244H40.5415C41.3361 38.1244 42.0154 37.5523 42.1506 36.7692L42.2825 36.0157C42.5545 35.9216 42.8202 35.8105 43.0782 35.683L43.7031 36.1255C44.3535 36.5836 45.2394 36.5063 45.8006 35.9425L46.5142 35.2289C47.0763 34.668 47.1535 33.7841 46.6972 33.1342L46.2564 32.5049C46.3837 32.2468 46.4949 31.9811 46.5891 31.7092L47.3431 31.5767C48.124 31.4394 48.6934 30.761 48.6933 29.9682V28.9596C48.6945 28.1648 48.1234 27.4846 47.3404 27.3483ZM47.2516 29.9698C47.2517 30.0154 47.2356 30.0595 47.2063 30.0944C47.177 30.1293 47.1363 30.1528 47.0914 30.1606L45.9026 30.3691C45.7675 30.3928 45.6419 30.4545 45.5406 30.5472C45.4393 30.6398 45.3666 30.7594 45.331 30.8919C45.2077 31.3497 45.0252 31.7894 44.7882 32.1999C44.7191 32.3191 44.6857 32.4555 44.6918 32.5931C44.6979 32.7306 44.7433 32.8636 44.8225 32.9762L45.5162 33.9653C45.5424 34.0026 45.5547 34.048 45.5507 34.0935C45.5467 34.1389 45.5269 34.1815 45.4946 34.2137L44.7815 34.9268C44.7489 34.9581 44.7064 34.977 44.6613 34.9802C44.6163 34.9834 44.5715 34.9708 44.5348 34.9445L43.5439 34.2514C43.4314 34.1721 43.2984 34.1268 43.1609 34.1207C43.0233 34.1146 42.8869 34.148 42.7677 34.217C42.3572 34.4541 41.9175 34.6366 41.4597 34.7599C41.3274 34.7959 41.2082 34.869 41.116 34.9704C41.0238 35.0719 40.9624 35.1975 40.9391 35.3326L40.7306 36.5214C40.7228 36.5663 40.6993 36.607 40.6644 36.6363C40.6296 36.6656 40.5854 36.6817 40.5399 36.6816H39.5307C39.4852 36.6817 39.441 36.6656 39.4062 36.6363C39.3713 36.607 39.3478 36.5663 39.34 36.5214L39.131 35.3326C39.1073 35.1975 39.0455 35.0718 38.9529 34.9706C38.8602 34.8693 38.7406 34.7966 38.6081 34.761C38.1502 34.6377 37.7103 34.4552 37.2996 34.2182C37.1804 34.1491 37.044 34.1157 36.9064 34.1218C36.7688 34.1279 36.6359 34.1732 36.5233 34.2525L35.5369 34.9445C35.4996 34.9708 35.4542 34.983 35.4088 34.979C35.3633 34.9751 35.3207 34.9552 35.2885 34.9229L34.5755 34.2098C34.5432 34.1776 34.5233 34.135 34.5193 34.0896C34.5154 34.0441 34.5276 33.9987 34.5539 33.9614L35.2475 32.9723C35.3268 32.8597 35.3722 32.7267 35.3783 32.5892C35.3844 32.4516 35.3509 32.3152 35.2819 32.196C35.0447 31.7855 34.8623 31.3458 34.7391 30.888C34.7029 30.7559 34.6298 30.6367 34.5284 30.5446C34.4269 30.4525 34.3013 30.3912 34.1663 30.368L32.9775 30.1595C32.9326 30.1516 32.8919 30.1282 32.8626 30.0933C32.8333 30.0584 32.8173 30.0143 32.8173 29.9687L32.8178 28.9596C32.8178 28.914 32.8339 28.8699 32.8632 28.835C32.8925 28.8001 32.9332 28.7767 32.9781 28.7689L34.1663 28.5598C34.3015 28.5362 34.4271 28.4744 34.5283 28.3817C34.6296 28.2891 34.7023 28.1695 34.7379 28.037C34.8612 27.5792 35.0437 27.1395 35.2808 26.729C35.3498 26.6099 35.3832 26.4734 35.3772 26.3359C35.3711 26.1983 35.3257 26.0653 35.2464 25.9528L34.5544 24.9641C34.5282 24.9268 34.5159 24.8815 34.5199 24.836C34.5238 24.7905 34.5437 24.748 34.576 24.7157L35.2896 24.0022C35.3219 23.9698 35.3644 23.95 35.4099 23.946C35.4553 23.942 35.5007 23.9543 35.538 23.9805L36.5266 24.6742C36.6392 24.7534 36.7722 24.7988 36.9097 24.8049C37.0473 24.811 37.1837 24.7776 37.3029 24.7085C37.7134 24.4715 38.1531 24.289 38.6109 24.1657C38.7434 24.1301 38.863 24.0574 38.9556 23.9561C39.0483 23.8548 39.11 23.7292 39.1337 23.5941L39.3422 22.4053C39.3504 22.3612 39.3737 22.3213 39.4081 22.2925C39.4425 22.2636 39.4859 22.2477 39.5307 22.2473H40.5393C40.5849 22.2472 40.629 22.2633 40.6639 22.2926C40.6988 22.3219 40.7222 22.3626 40.73 22.4075L40.9385 23.5963C40.9622 23.7315 41.024 23.8571 41.1166 23.9583C41.2092 24.0596 41.3288 24.1323 41.4614 24.1679C41.9192 24.2911 42.3589 24.4736 42.7694 24.7108C42.8885 24.7798 43.0249 24.8132 43.1625 24.8071C43.3001 24.801 43.433 24.7557 43.5456 24.6764L44.5348 23.9827C44.5721 23.9565 44.6175 23.9443 44.6629 23.9482C44.7084 23.9522 44.751 23.9721 44.7832 24.0044L45.4968 24.718C45.5282 24.7503 45.5473 24.7926 45.5509 24.8376C45.5544 24.8825 45.5421 24.9273 45.5162 24.9641L44.8225 25.955C44.7433 26.0676 44.6979 26.2005 44.6918 26.3381C44.6857 26.4756 44.7191 26.6121 44.7882 26.7312C45.0252 27.1418 45.2077 27.5815 45.331 28.0392C45.3666 28.1717 45.4393 28.2913 45.5406 28.384C45.6419 28.4766 45.7675 28.5384 45.9026 28.5621L47.0914 28.7705C47.1363 28.7784 47.177 28.8018 47.2063 28.8367C47.2356 28.8716 47.2517 28.9157 47.2516 28.9613V29.9698Z" fill="white"/>
<path d="M40.0347 26.0204C38.1328 26.0204 36.591 27.5623 36.591 29.4642C36.5931 31.3652 38.1337 32.9058 40.0347 32.908C41.9367 32.908 43.4785 31.3661 43.4785 29.4642C43.4785 27.5623 41.9367 26.0204 40.0347 26.0204ZM40.0347 31.4663C38.929 31.4663 38.0326 30.5699 38.0326 29.4642C38.0323 28.3579 38.9284 27.4605 40.0347 27.4592V27.462C41.1405 27.462 42.0369 28.3584 42.0369 29.4642C42.0369 30.5699 41.1405 31.4663 40.0347 31.4663Z" fill="white"/>
</svg>
