<svg width="70" height="69" viewBox="0 0 70 69" fill="none" xmlns="http://www.w3.org/2000/svg">
<rect x="0.5" width="69" height="69" rx="34.5" fill="#2F2F3C"/>
<path d="M47.0932 31.1744C46.8536 31.1776 46.6248 31.2741 46.4554 31.4435C46.286 31.6129 46.1895 31.8418 46.1863 32.0814V39.3372L41.1323 33.5567C40.8112 33.2148 40.4234 32.9423 39.993 32.7561C39.5625 32.5698 39.0985 32.4737 38.6295 32.4737C38.1604 32.4737 37.6964 32.5698 37.2659 32.7561C36.8355 32.9423 36.4477 33.2148 36.1266 33.5567L32.6565 37.5233L31.5199 36.1447C31.2067 35.7689 30.8148 35.4666 30.3718 35.2591C29.9289 35.0517 29.4457 34.9441 28.9566 34.9441C28.4675 34.9441 27.9844 35.0517 27.5414 35.2591C27.0985 35.4666 26.7065 35.7689 26.3933 36.1447L23.8179 39.2526V27.2442C23.8211 26.2028 24.2362 25.205 24.9724 24.4686C25.7087 23.7322 26.7063 23.3171 27.7475 23.314H37.4203C37.6609 23.314 37.8915 23.2184 38.0616 23.0483C38.2316 22.8782 38.3272 22.6475 38.3272 22.407C38.3272 22.1664 38.2316 21.9357 38.0616 21.7656C37.8915 21.5956 37.6609 21.5 37.4203 21.5H27.7475C26.2243 21.5 24.7635 22.1052 23.6864 23.1824C22.6094 24.2597 22.0043 25.7207 22.0043 27.2442V41.7558C21.9986 41.7756 21.9986 41.7965 22.0043 41.8163C22.0202 43.3292 22.6323 44.7748 23.7077 45.839C24.783 46.9032 26.2347 47.5001 27.7475 47.5H42.2568C43.7633 47.497 45.2084 46.902 46.2804 45.8434C47.3525 44.7847 47.9657 43.3471 47.9879 41.8405V32.0814C47.9849 31.8439 47.89 31.6168 47.7232 31.4477C47.5564 31.2786 47.3306 31.1806 47.0932 31.1744ZM42.2568 45.686H27.7475C26.7598 45.6829 25.8095 45.3078 25.0858 44.6356C24.3621 43.9633 23.9181 43.0431 23.8421 42.0581L27.7475 37.3056C27.8938 37.1426 28.0728 37.0122 28.2727 36.923C28.4727 36.8337 28.6893 36.7876 28.9083 36.7876C29.1273 36.7876 29.3438 36.8337 29.5438 36.923C29.7438 37.0122 29.9227 37.1426 30.069 37.3056L31.8947 39.5065C31.9785 39.6084 32.0837 39.6904 32.2028 39.7469C32.322 39.8033 32.4521 39.8327 32.5839 39.833C32.845 39.8186 33.0911 39.7064 33.2731 39.5186L37.4324 34.754C37.5804 34.5981 37.7586 34.4739 37.956 34.3891C38.1535 34.3043 38.3662 34.2606 38.5811 34.2606C38.796 34.2606 39.0087 34.3043 39.2061 34.3891C39.4036 34.4739 39.5818 34.5981 39.7297 34.754L46.1017 42.0098C46.041 42.994 45.6114 43.9192 44.8987 44.6006C44.186 45.2821 43.2426 45.6697 42.2568 45.686Z" fill="white"/>
<path d="M25.6316 28.4535C25.6316 29.1112 25.8266 29.7542 26.192 30.3011C26.5573 30.848 27.0766 31.2742 27.6842 31.5259C28.2918 31.7776 28.9603 31.8435 29.6053 31.7152C30.2503 31.5869 30.8428 31.2701 31.3078 30.805C31.7728 30.3399 32.0895 29.7474 32.2178 29.1023C32.3461 28.4572 32.2802 27.7885 32.0286 27.1808C31.7769 26.5732 31.3507 26.0538 30.8039 25.6884C30.2571 25.3229 29.6143 25.1279 28.9566 25.1279C28.0748 25.1279 27.229 25.4783 26.6055 26.1019C25.9819 26.7256 25.6316 27.5715 25.6316 28.4535ZM30.468 28.4535C30.468 28.7525 30.3794 29.0447 30.2133 29.2933C30.0472 29.5419 29.8112 29.7356 29.535 29.85C29.2588 29.9645 28.9549 29.9944 28.6618 29.9361C28.3686 29.8777 28.0993 29.7338 27.8879 29.5224C27.6765 29.311 27.5326 29.0416 27.4743 28.7484C27.416 28.4552 27.4459 28.1512 27.5603 27.875C27.6747 27.5988 27.8684 27.3627 28.1169 27.1966C28.3655 27.0305 28.6577 26.9419 28.9566 26.9419C29.3575 26.9419 29.7419 27.1011 30.0253 27.3846C30.3088 27.6681 30.468 28.0526 30.468 28.4535ZM39.8386 26.9419H42.559V29.6628C42.559 29.9033 42.6546 30.134 42.8246 30.3041C42.9947 30.4742 43.2254 30.5698 43.4659 30.5698C43.7064 30.5698 43.937 30.4742 44.1071 30.3041C44.2772 30.134 44.3727 29.9033 44.3727 29.6628V26.9419H47.0932C47.3337 26.9419 47.5643 26.8463 47.7344 26.6762C47.9045 26.5061 48 26.2754 48 26.0349C48 25.7943 47.9045 25.5636 47.7344 25.3936C47.5643 25.2235 47.3337 25.1279 47.0932 25.1279H44.3727V22.407C44.3727 22.1664 44.2772 21.9357 44.1071 21.7656C43.937 21.5956 43.7064 21.5 43.4659 21.5C43.2254 21.5 42.9947 21.5956 42.8246 21.7656C42.6546 21.9357 42.559 22.1664 42.559 22.407V25.1279H39.8386C39.598 25.1279 39.3674 25.2235 39.1973 25.3936C39.0273 25.5636 38.9317 25.7943 38.9317 26.0349C38.9317 26.2754 39.0273 26.5061 39.1973 26.6762C39.3674 26.8463 39.598 26.9419 39.8386 26.9419Z" fill="white"/>
</svg>
