<svg width="69" height="70" viewBox="0 0 69 70" fill="none" xmlns="http://www.w3.org/2000/svg">
<rect y="0.75" width="69" height="69" rx="34.5" fill="#2F2F3C"/>
<path d="M48.0938 34.0925C46.3346 33.2192 44.7072 32.1034 43.2593 30.778C44.0029 27.9715 44.5546 25.1177 44.9105 22.2365C44.9937 21.5653 44.6195 21.3486 44.5032 21.2982C44.3441 21.2378 44.169 21.234 44.0075 21.2875C43.846 21.341 43.7079 21.4486 43.6166 21.5919C41.0606 24.6435 37.5587 24.2953 33.8518 23.9248C30.1154 23.5519 26.2613 23.1734 23.4031 26.4469C23.2076 26.2035 22.9448 26.0227 22.6473 25.9269C22.3498 25.8311 22.0307 25.8246 21.7295 25.9081L21.665 25.9258C21.258 26.0398 20.9129 26.3103 20.7054 26.6779C20.498 27.0456 20.4451 27.4803 20.5584 27.8867L26.2618 48.2507C26.3422 48.5375 26.5143 48.7903 26.7519 48.9707C26.9895 49.1511 27.2796 49.2491 27.5781 49.25C27.7033 49.25 27.8275 49.2323 27.948 49.1987L28.4474 49.0598C28.6205 49.0116 28.7825 48.9298 28.9239 48.8191C29.0654 48.7084 29.1836 48.571 29.2719 48.4147C29.3601 48.2584 29.4166 48.0863 29.4381 47.9082C29.4597 47.7301 29.4459 47.5495 29.3975 47.3767L27.6313 41.0688C30.2032 37.7687 33.7878 38.1179 37.5798 38.4959C41.368 38.8734 45.2809 39.2631 48.155 35.833L48.1564 35.8311C48.296 35.6576 48.3967 35.4562 48.4517 35.2406C48.5067 35.0249 48.5148 34.8 48.4755 34.581C48.4548 34.4754 48.4094 34.3761 48.3431 34.2913C48.2768 34.2064 48.1914 34.1383 48.0938 34.0925ZM28.4577 47.957C28.4299 48.0068 28.3924 48.0506 28.3475 48.0858C28.3026 48.121 28.2511 48.1469 28.1961 48.1621L27.6972 48.301C27.5861 48.3319 27.4673 48.3176 27.3668 48.2611C27.2664 48.2047 27.1925 48.1107 27.1614 47.9999L21.4581 27.6355C21.4114 27.4671 21.4335 27.287 21.5196 27.1349C21.6056 26.9827 21.7486 26.8707 21.9172 26.8235L21.9812 26.8058C22.15 26.7593 22.3302 26.7813 22.4828 26.867C22.6353 26.9526 22.7477 27.095 22.7954 27.2631L22.8459 27.4439V27.4448L28.4978 47.627C28.5133 47.6819 28.5177 47.7394 28.5108 47.796C28.5039 47.8527 28.4859 47.9074 28.4577 47.957ZM47.4375 35.2354C44.8806 38.2866 41.3792 37.9379 37.6732 37.5679C33.9812 37.1996 30.1715 36.8197 27.3245 39.9711L23.8081 27.4169C26.3804 24.1168 29.9645 24.4748 33.7598 24.8533C37.3635 25.2117 41.083 25.5832 43.9132 22.6579C43.5643 25.3147 43.0444 27.9464 42.3568 30.5366C42.2634 30.8717 42.3695 31.2301 42.6292 31.4613C44.1139 32.8178 45.7758 33.9674 47.5697 34.8789C47.5599 35.008 47.5137 35.1315 47.4375 35.2364V35.2354Z" fill="white"/>
</svg>
