<svg width="30" height="31" viewBox="0 0 30 31" fill="none" xmlns="http://www.w3.org/2000/svg">
<path fill-rule="evenodd" clip-rule="evenodd" d="M15.0371 0.49707C6.74075 0.49707 0 7.18819 0 15.4973C0 23.806 6.74075 30.4971 15.0371 30.4971C23.3334 30.4971 30.0001 23.8059 30.0001 15.4973C30.0001 7.18819 23.3334 0.49707 15.0371 0.49707ZM16.2222 19.5413C15.1112 19.4676 14.6667 18.8797 13.7778 18.3648C13.3334 20.8646 12.7408 23.2175 11.0371 24.4676C10.5185 20.7177 11.7778 17.9237 12.3704 14.9088C11.3334 13.2177 12.5185 9.68837 14.6667 10.5706C17.3334 11.6001 12.3704 17.0412 15.7037 17.7028C19.2593 18.4381 20.6667 11.6001 18.5186 9.39412C15.3333 6.23231 9.33331 9.32051 10.0741 13.8793C10.2963 14.9825 11.4075 15.3499 10.5926 16.8943C8.51854 16.4532 7.92592 14.8352 8.00002 12.7765C8.14814 9.32051 11.1111 6.89394 14.1482 6.5265C17.9259 6.0854 21.4815 7.92348 21.926 11.4528C22.5186 15.4973 20.2223 19.8355 16.2222 19.5413Z" fill="#9A9A9A"/>
</svg>
