<svg width="19" height="19" viewBox="0 0 19 19" fill="none" xmlns="http://www.w3.org/2000/svg">
<path fill-rule="evenodd" clip-rule="evenodd" d="M4.17826 1.76184C5.71779 0.733147 7.52784 0.184082 9.37941 0.184082C11.8623 0.184082 14.2435 1.17042 15.9992 2.9261C17.7549 4.68178 18.7412 7.06301 18.7412 9.5459C18.7412 11.3975 18.1922 13.2075 17.1635 14.7471C16.1348 16.2866 14.6727 17.4865 12.962 18.1951C11.2514 18.9037 9.36904 19.0891 7.55298 18.7278C5.73699 18.3666 4.06888 17.475 2.7596 16.1657C1.45033 14.8565 0.558698 13.1883 0.197465 11.3723C-0.163761 9.55633 0.0216368 7.67393 0.730207 5.96333C1.43878 4.25265 2.63871 2.79053 4.17826 1.76184ZM4.92128 16.218C6.24092 17.0997 7.79231 17.5703 9.37941 17.5703C11.5076 17.5703 13.5486 16.7249 15.0535 15.22C16.5584 13.7152 17.4038 11.6741 17.4038 9.5459C17.4038 7.9588 16.9332 6.40741 16.0514 5.08778C15.1698 3.76817 13.9165 2.73966 12.4502 2.13231C10.984 1.52496 9.37051 1.36605 7.81391 1.67568C6.25737 1.9853 4.82752 2.74955 3.70528 3.87179C2.58305 4.99402 1.8188 6.42386 1.50917 7.9804C1.19955 9.537 1.35846 11.1504 1.96581 12.6167C2.57316 14.083 3.60167 15.3363 4.92128 16.218Z" fill="#7F7F7F"/>
</svg>
