<svg width="26" height="18" viewBox="0 0 26 18" fill="none" xmlns="http://www.w3.org/2000/svg">
<path d="M20.8012 7.71736C22.18 7.71736 23.5024 8.25904 24.4773 9.22322C25.4523 10.1874 26 11.4951 26 12.8587C26 14.2222 25.4523 15.53 24.4773 16.4941C23.5024 17.4583 22.18 18 20.8012 18H14.3028V12.1055L14.6836 12.4821C14.9287 12.7162 15.257 12.8458 15.5978 12.8428C15.9385 12.8399 16.2645 12.7047 16.5055 12.4664C16.7465 12.2281 16.8832 11.9057 16.8861 11.5687C16.8891 11.2317 16.7581 10.907 16.5213 10.6646L13.9219 8.09397C13.6795 7.85349 13.3504 7.71803 13.007 7.71736H12.9992C12.8291 7.71763 12.6608 7.75102 12.5038 7.81564C12.3468 7.88026 12.2042 7.97483 12.0842 8.09397L9.48479 10.6646C9.36066 10.7832 9.26165 10.925 9.19353 11.0818C9.12541 11.2387 9.08956 11.4073 9.08806 11.578C9.08656 11.7486 9.11945 11.9179 9.1848 12.0759C9.25015 12.2338 9.34665 12.3773 9.46868 12.498C9.59072 12.6187 9.73583 12.7141 9.89556 12.7788C10.0553 12.8434 10.2264 12.8759 10.399 12.8744C10.5716 12.8729 10.7421 12.8375 10.9007 12.7701C11.0593 12.7028 11.2027 12.6048 11.3226 12.4821L11.7034 12.1055V18H6.5046C4.85603 18.0015 3.26849 17.3834 2.06352 16.2707C0.858544 15.1581 0.126214 13.6341 0.0148534 12.0075C-0.0965074 10.3808 0.421425 8.77317 1.46375 7.51004C2.50607 6.24692 3.99487 5.42278 5.6286 5.20454C6.22875 3.47829 7.42863 2.01853 9.01479 1.08493C10.601 0.151336 12.4706 -0.195566 14.2911 0.105935C16.1115 0.407435 17.7649 1.33779 18.9569 2.7315C20.149 4.12522 20.8025 5.89193 20.8012 7.71736Z" fill="white"/>
</svg>
