<svg width="26" height="26" viewBox="0 0 26 26" fill="none" xmlns="http://www.w3.org/2000/svg">
<path d="M4.7847 13.7657H0C0.150539 16.4056 1.0779 18.8978 2.67187 20.9742C3.56835 20.4654 4.57479 20.0291 5.66203 19.6732C5.14469 17.8567 4.84392 15.8508 4.7847 13.7657ZM4.7847 12.2344C4.84392 10.1492 5.14469 8.14339 5.66208 6.32671C4.57479 5.97094 3.5684 5.53462 2.67192 5.02572C1.0779 7.10221 0.150539 9.59445 0 12.2344H4.7847ZM8.39164 3.56874C8.10235 4.10561 7.84114 4.68138 7.60893 5.28956C9.05591 5.63711 10.6216 5.84466 12.2383 5.89432V0C10.815 0.327136 9.47117 1.56524 8.39164 3.56874ZM13.7619 0V5.89427C15.3785 5.8446 16.9441 5.63701 18.3911 5.28951C18.1589 4.68138 17.8977 4.10556 17.6084 3.56869C16.5289 1.56529 15.1851 0.327187 13.7619 0ZM18.8738 6.74475C17.2733 7.13998 15.543 7.37417 13.7619 7.42618V12.2344H19.6909C19.6326 10.2888 19.3529 8.42474 18.8738 6.74475ZM6.13721 21.1255C5.25663 21.4137 4.43669 21.7588 3.69568 22.1558C3.72772 22.1887 3.75916 22.2219 3.79156 22.2545C5.14692 23.6166 6.74871 24.6407 8.49551 25.2864C7.97497 24.6858 7.49074 23.9751 7.05177 23.1605C6.71052 22.5271 6.40538 21.8456 6.13721 21.1255ZM19.8628 4.87453C20.7434 4.58629 21.5633 4.24123 22.3043 3.84427C22.2723 3.8114 22.2408 3.77812 22.2084 3.74555C20.8531 2.38341 19.2513 1.35938 17.5045 0.713636C18.025 1.31426 18.5093 2.02494 18.9482 2.83959C19.2895 3.47288 19.5946 4.15436 19.8628 4.87453ZM21.2154 13.7657C21.1561 15.8508 20.8553 17.8567 20.338 19.6733C21.4253 20.0291 22.4317 20.4654 23.3281 20.9743C24.9222 18.8978 25.8495 16.4057 26 13.7658L21.2154 13.7657ZM19.8628 21.1255C19.5946 21.8456 19.2895 22.5271 18.9482 23.1604C18.5093 23.9751 18.025 24.6857 17.5044 25.2864C19.2512 24.6406 20.853 23.6166 22.2084 22.2544C22.2408 22.2219 22.2722 22.1886 22.3042 22.1557C21.5633 21.7588 20.7434 21.4137 19.8628 21.1255ZM6.13721 4.87453C6.40538 4.15436 6.71052 3.47293 7.05182 2.83959C7.49074 2.02494 7.97502 1.31426 8.49556 0.713636C6.74876 1.35938 5.14698 2.38341 3.79162 3.74555C3.75921 3.77812 3.72777 3.8114 3.69578 3.84427C4.43674 4.24123 5.25663 4.58629 6.13721 4.87453ZM20.3379 6.32671C20.8553 8.14339 21.1561 10.1492 21.2153 12.2344H26C25.8495 9.59445 24.9221 7.10221 23.3281 5.02577C22.4316 5.53462 21.4252 5.97094 20.3379 6.32671ZM12.2382 7.42623C10.4571 7.37422 8.7267 7.13998 7.12618 6.7448C6.64714 8.42474 6.36734 10.2888 6.30908 12.2345H12.2382V7.42623ZM13.7619 18.5738C15.543 18.6258 17.2733 18.86 18.8738 19.2552C19.3529 17.5753 19.6326 15.7113 19.6909 13.7656H13.7619V18.5738ZM17.6084 22.4313C17.8977 21.8944 18.1589 21.3187 18.3911 20.7105C16.9441 20.3629 15.3785 20.1554 13.7618 20.1057V26C15.1851 25.6728 16.5289 24.4347 17.6084 22.4313ZM12.2382 26V20.1057C10.6216 20.1554 9.05591 20.3629 7.60888 20.7105C7.84114 21.3186 8.10235 21.8944 8.39164 22.4313C9.47117 24.4348 10.815 25.6729 12.2382 26ZM12.2382 13.7657H6.30908C6.36739 15.7113 6.64714 17.5753 7.12618 19.2552C8.72665 18.86 10.457 18.6258 12.2382 18.5738V13.7657Z" fill="white"/>
</svg>
