<svg width="26" height="24" viewBox="0 0 26 24" fill="none" xmlns="http://www.w3.org/2000/svg">
<path d="M25.2852 13.0526H16.2742C15.8804 13.0526 15.5594 13.376 15.5594 13.7728C15.5594 13.9749 15.6446 14.1569 15.7775 14.2882L22.1226 20.6818C22.1896 20.7544 22.2707 20.8123 22.3609 20.8518C22.4512 20.8914 22.5485 20.9118 22.6469 20.9118C22.7643 20.9121 22.88 20.8832 22.9836 20.8276C23.0873 20.7721 23.1757 20.6916 23.2412 20.5934C24.8012 18.7688 25.8043 16.4514 25.985 13.9016C25.9949 13.8594 26 13.8161 26 13.7727C26 13.6781 25.9816 13.5844 25.9456 13.497C25.9097 13.4096 25.8571 13.3302 25.7907 13.2634C25.7243 13.1965 25.6455 13.1434 25.5588 13.1073C25.472 13.0711 25.379 13.0525 25.2852 13.0526ZM13.553 0C13.1592 0.00242602 12.8407 0.32347 12.8407 0.720205V10.8109C12.8407 11.2102 13.1592 11.5337 13.553 11.5337H23.5698C23.9636 11.5337 24.2846 11.2102 24.2846 10.8109C23.9309 5.00375 19.3187 0.356383 13.553 0Z" fill="white"/>
<path d="M19.058 20.093L11.6696 12.6482C11.5442 12.5193 11.469 12.3399 11.469 12.1453L11.4664 1.62996C11.4664 1.5357 11.4481 1.44234 11.4123 1.35524C11.3765 1.26813 11.3241 1.18899 11.2579 1.12233C11.1917 1.05568 11.1132 1.00281 11.0268 0.966767C10.9403 0.930722 10.8477 0.912202 10.7541 0.912266C4.7526 1.28126 0 6.30507 0 12.4436C0 18.8245 5.13389 24 11.4664 24C14.3555 24 16.9939 22.9235 19.0103 21.1468C19.0898 21.0797 19.1537 20.9958 19.1975 20.9011C19.2413 20.8063 19.2639 20.703 19.2637 20.5985C19.2635 20.4093 19.1896 20.2278 19.058 20.093Z" fill="white"/>
</svg>
