<svg width="26" height="26" viewBox="0 0 26 26" fill="none" xmlns="http://www.w3.org/2000/svg">
<path fill-rule="evenodd" clip-rule="evenodd" d="M6.08867 6.08867C7.76445 4.41289 10.0395 3.34648 12.5684 3.22969V0C9.26907 0.105759 6.13437 1.46607 3.80352 3.80352C1.46607 6.13437 0.105759 9.26907 0 12.5684H3.22969C3.33815 10.1258 4.36038 7.81305 6.09375 6.08867H6.08867ZM26 12.5684C25.8942 9.26907 24.5339 6.13437 22.1965 3.80352C19.8656 1.46607 16.7309 0.105759 13.4316 0V3.22969C15.8742 3.33815 18.1869 4.36038 19.9113 6.09375C21.5871 7.76953 22.6535 10.0445 22.7703 12.5734L26 12.5684ZM22.1965 22.1965C24.5339 19.8656 25.8942 16.7309 26 13.4316H22.7703C22.6632 15.8735 21.6428 18.1862 19.9113 19.9113C18.2355 21.5871 15.9605 22.6535 13.4316 22.7703V26C16.7309 25.8942 19.8656 24.5339 22.1965 22.1965ZM12.5684 22.7703C10.1265 22.6632 7.81385 21.6428 6.08867 19.9113C4.35716 18.1862 3.33679 15.8735 3.22969 13.4316H0C0.111719 16.8543 1.54375 19.9367 3.80352 22.1965C6.13437 24.5339 9.26907 25.8942 12.5684 26V22.7703Z" fill="white"/>
<path fill-rule="evenodd" clip-rule="evenodd" d="M12.5684 18.1543C11.3487 18.0558 10.2039 17.5266 9.33863 16.6614C8.4734 15.7961 7.9442 14.6513 7.8457 13.4316H4.09805C4.20977 15.7168 5.18477 17.7836 6.69805 19.302C8.21641 20.8152 10.2781 21.7902 12.5684 21.902V18.1543ZM9.34375 9.34375C10.1816 8.50586 11.309 7.95234 12.5684 7.8457V4.09805C10.2832 4.20977 8.21641 5.18477 6.69805 6.69805C5.18477 8.21641 4.20977 10.2781 4.09805 12.5684H7.8457C7.94727 11.309 8.50586 10.1816 9.34375 9.34375Z" fill="white"/>
<path fill-rule="evenodd" clip-rule="evenodd" d="M16.0469 16.0469C16.4491 15.648 16.7684 15.1733 16.9863 14.6504C17.2042 14.1274 17.3164 13.5665 17.3164 13C17.3164 12.4335 17.2042 11.8726 16.9863 11.3496C16.7684 10.8267 16.4491 10.352 16.0469 9.95313C15.648 9.55086 15.1733 9.23157 14.6504 9.01367C14.1274 8.79578 13.5665 8.68359 13 8.68359C12.4335 8.68359 11.8726 8.79578 11.3496 9.01367C10.8267 9.23157 10.352 9.55086 9.95313 9.95313C9.55086 10.352 9.23157 10.8267 9.01367 11.3496C8.79578 11.8726 8.68359 12.4335 8.68359 13C8.68359 13.5665 8.79578 14.1274 9.01367 14.6504C9.23157 15.1733 9.55086 15.648 9.95313 16.0469C10.352 16.4491 10.8267 16.7684 11.3496 16.9863C11.8726 17.2042 12.4335 17.3164 13 17.3164C13.5665 17.3164 14.1274 17.2042 14.6504 16.9863C15.1733 16.7684 15.648 16.4491 16.0469 16.0469ZM13 11.6391C13.3609 11.6391 13.7071 11.7824 13.9623 12.0377C14.2176 12.2929 14.3609 12.6391 14.3609 13C14.3609 13.3609 14.2176 13.7071 13.9623 13.9623C13.7071 14.2176 13.3609 14.3609 13 14.3609C12.6391 14.3609 12.2929 14.2176 12.0377 13.9623C11.7824 13.7071 11.6391 13.3609 11.6391 13C11.6391 12.6391 11.7824 12.2929 12.0377 12.0377C12.2929 11.7824 12.6391 11.6391 13 11.6391Z" fill="white"/>
<path fill-rule="evenodd" clip-rule="evenodd" d="M21.902 12.5684C21.7962 10.3551 20.8671 8.26136 19.2969 6.69805C17.7328 5.12971 15.6391 4.2024 13.4266 4.09805V7.8457C14.6462 7.9442 15.7911 8.4734 16.6563 9.33863C17.5215 10.2039 18.0507 11.3487 18.1492 12.5684H21.902ZM19.2969 19.2969C20.8203 17.7836 21.7902 15.7219 21.902 13.4316H18.1543C18.0558 14.6513 17.5266 15.7961 16.6614 16.6614C15.7961 17.5266 14.6513 18.0558 13.4316 18.1543V21.902C15.7168 21.7902 17.7836 20.8152 19.302 19.302L19.2969 19.2969Z" fill="white"/>
</svg>
