<svg width="25" height="26" viewBox="0 0 25 26" fill="none" xmlns="http://www.w3.org/2000/svg">
<path d="M24.9485 16.5146C24.8443 16.8758 24.615 17.1676 24.2885 17.3551L22.0517 18.6055V21.1619C22.0517 21.926 21.4265 22.5512 20.6624 22.5512H18.099L16.8556 24.7881C16.668 25.1146 16.3763 25.3438 16.015 25.448C15.6607 25.5453 15.2856 25.5036 14.9591 25.323L12.5 23.9475L10.0409 25.323C9.82552 25.4411 9.59628 25.4966 9.36009 25.4966C9.23505 25.4966 9.11001 25.4827 8.98497 25.448C8.62374 25.3438 8.33198 25.1146 8.14442 24.7881L6.90096 22.5512H4.33763C3.5735 22.5512 2.94829 21.926 2.94829 21.1619V18.6055L0.711458 17.3551C0.384964 17.1676 0.155722 16.8758 0.0515219 16.5146C-0.0457318 16.1603 -0.00405141 15.7852 0.176563 15.4587L1.55201 12.9995L0.176563 10.5404C-0.198559 9.86657 0.0445755 9.01908 0.711458 8.64396L2.94829 7.39355V4.83717C2.94829 4.07303 3.5735 3.44783 4.33763 3.44783H6.90096L8.14442 1.21099C8.33198 0.8845 8.62374 0.655259 8.98497 0.551058C9.33925 0.453804 9.71437 0.495485 10.0409 0.676099L12.5 2.05154L14.9591 0.676099C15.2856 0.495485 15.6607 0.453804 16.015 0.551058C16.3763 0.655259 16.668 0.8845 16.8556 1.21099L18.099 3.44783H20.6624C21.4265 3.44783 22.0517 4.07303 22.0517 4.83717V7.39355L24.2885 8.64396C24.9554 9.01908 25.1986 9.86657 24.8234 10.5404L23.448 12.9995L24.8234 15.4587C25.0041 15.7852 25.0457 16.1603 24.9485 16.5146Z" fill="#F35252"/>
<path d="M11.1141 17.1674C11.0228 17.1675 10.9325 17.1496 10.8482 17.1147C10.7639 17.0797 10.6873 17.0285 10.6229 16.9639L7.14957 13.4906C7.08323 13.4265 7.03031 13.3498 6.9939 13.2651C6.95749 13.1803 6.93833 13.0892 6.93753 12.9969C6.93672 12.9047 6.9543 12.8132 6.98923 12.7278C7.02416 12.6425 7.07574 12.5649 7.14096 12.4997C7.20619 12.4345 7.28375 12.3829 7.36912 12.348C7.4545 12.313 7.54597 12.2954 7.63821 12.2962C7.73044 12.2971 7.8216 12.3162 7.90635 12.3526C7.9911 12.389 8.06776 12.4419 8.13184 12.5083L11.1141 15.4905L17.5696 9.03495C17.6337 8.9686 17.7104 8.91568 17.7951 8.87927C17.8799 8.84287 17.971 8.8237 18.0632 8.8229C18.1555 8.8221 18.247 8.83968 18.3323 8.87461C18.4177 8.90953 18.4953 8.96112 18.5605 9.02634C18.6257 9.09156 18.6773 9.16913 18.7122 9.2545C18.7472 9.33987 18.7647 9.43134 18.7639 9.52358C18.7631 9.61582 18.744 9.70697 18.7076 9.79173C18.6712 9.87648 18.6182 9.95313 18.5519 10.0172L11.6052 16.9639C11.5408 17.0285 11.4642 17.0797 11.3799 17.1147C11.2956 17.1496 11.2053 17.1675 11.1141 17.1674Z" fill="white"/>
</svg>
