<svg width="8" height="20" viewBox="0 0 8 20" fill="none" xmlns="http://www.w3.org/2000/svg">
<path d="M3.98609 19.3907C4.35535 19.3907 4.65479 19.0912 4.65479 18.722V16.649C6.1928 16.3146 7.3296 14.9772 7.3296 13.3724C7.3296 11.7675 6.1928 10.4301 4.65479 10.0957V1.33569C4.65479 0.966377 4.35535 0.666992 3.98609 0.666992C3.61676 0.666992 3.31739 0.966377 3.31739 1.33569V10.0957C1.77937 10.4301 0.642578 11.7675 0.642578 13.3724C0.642578 14.9772 1.77937 16.3146 3.31739 16.649V18.722C3.31739 19.0912 3.61676 19.3907 3.98609 19.3907ZM1.97998 13.3724C1.97998 12.2356 2.84929 11.3663 3.98609 11.3663C5.12288 11.3663 5.99219 12.2356 5.99219 13.3724C5.99219 14.5092 5.12288 15.3785 3.98609 15.3785C2.84929 15.3785 1.97998 14.5092 1.97998 13.3724Z" fill="#7F7F7F"/>
</svg>
