<svg width="61" height="60" viewBox="0 0 61 60" fill="none" xmlns="http://www.w3.org/2000/svg">
<path d="M58.4533 38.7323C57.8443 38.7323 57.2603 38.9743 56.8296 39.4049C56.399 39.8355 56.1571 40.4196 56.1571 41.0286V52.1602L37.9563 33.9594C37.7431 33.7461 37.49 33.577 37.2115 33.4615C36.9329 33.3461 36.6343 33.2867 36.3328 33.2867C36.0313 33.2867 35.7327 33.3461 35.4542 33.4615C35.1756 33.577 34.9225 33.7461 34.7094 33.9594C34.4961 34.1725 34.327 34.4256 34.2115 34.7042C34.0961 34.9827 34.0367 35.2813 34.0367 35.5828C34.0367 35.8843 34.0961 36.1829 34.2115 36.4615C34.327 36.74 34.4961 36.9931 34.7094 37.2063L52.8009 55.2978H41.6693C40.4008 55.2978 39.373 56.3256 39.373 57.594C39.373 58.8624 40.4008 59.8902 41.6693 59.8902H58.4538C59.0628 59.8902 59.6468 59.6483 60.0775 59.2177C60.5081 58.7871 60.75 58.203 60.75 57.594V41.0286C60.75 40.4196 60.5081 39.8355 60.0775 39.4049C59.6468 38.9743 59.0623 38.7323 58.4533 38.7323ZM23.5433 33.9594L5.45176 52.0509V40.9193C5.45176 39.6508 4.42397 38.623 3.15553 38.623C1.88709 38.623 0.8593 39.6508 0.8593 40.9193V57.7038C0.8593 58.3128 1.10122 58.8968 1.53185 59.3275C1.96248 59.7581 2.54653 60 3.15553 60H19.721C20.9894 60 22.0172 58.9722 22.0172 57.7038C22.0172 56.4353 20.9894 55.4075 19.721 55.4075H8.58932L26.7902 37.2067C27.0034 36.9936 27.1726 36.7405 27.288 36.4619C27.4034 36.1834 27.4628 35.8848 27.4628 35.5833C27.4628 35.2818 27.4034 34.9832 27.288 34.7046C27.1726 34.4261 27.0034 34.173 26.7902 33.9598C26.577 33.7466 26.3239 33.5774 26.0454 33.462C25.7668 33.3466 25.4682 33.2872 25.1667 33.2872C24.8652 33.2872 24.5666 33.3466 24.2881 33.462C24.0095 33.5774 23.7564 33.7461 23.5433 33.9594ZM8.69863 4.70176H19.8303C21.0987 4.70176 22.1265 3.67397 22.1265 2.40553C22.1265 1.13709 21.0987 0.1093 19.8303 0.1093H3.04623C2.43723 0.1093 1.85318 0.351223 1.42255 0.78185C0.991923 1.21248 0.75 1.79653 0.75 2.40553V18.971C0.75 20.2394 1.77779 21.2672 3.04623 21.2672C4.31467 21.2672 5.34246 20.2394 5.34246 18.971V7.83932L23.5433 26.0402C23.9915 26.4888 24.5793 26.7129 25.1667 26.7129C25.7541 26.7129 26.3424 26.4888 26.7902 26.0402C27.0034 25.827 27.1726 25.5739 27.288 25.2954C27.4034 25.0168 27.4628 24.7182 27.4628 24.4167C27.4628 24.1152 27.4034 23.8166 27.288 23.5381C27.1726 23.2595 27.0034 23.0064 26.7902 22.7933L8.69863 4.70176ZM36.3328 26.7129C36.6344 26.7134 36.9331 26.6542 37.2117 26.5387C37.4904 26.4232 37.7434 26.2538 37.9563 26.0402L56.0478 7.94863V19.0803C56.0478 20.3487 57.0756 21.3765 58.344 21.3765C59.6124 21.3765 60.6402 20.3487 60.6402 19.0803V2.29623C60.6402 1.68723 60.3983 1.10318 59.9677 0.67255C59.5371 0.241923 58.953 0 58.344 0H41.7786C40.5101 0 39.4823 1.02779 39.4823 2.29623C39.4823 3.56467 40.5101 4.59246 41.7786 4.59246H52.9102L34.7094 22.7933C34.3879 23.1142 34.1689 23.5234 34.0801 23.9689C33.9913 24.4144 34.0366 24.8762 34.2105 25.2959C34.3843 25.7156 34.6788 26.0743 35.0566 26.3266C35.4344 26.5788 35.8785 26.7133 36.3328 26.7129Z" fill="white"/>
</svg>
