<svg width="179" height="178" viewBox="0 0 179 178" fill="none" xmlns="http://www.w3.org/2000/svg">
<path opacity="0.2" d="M171.686 114.906C169.88 114.906 168.147 115.624 166.87 116.901C165.592 118.179 164.874 119.911 164.874 121.718V154.742L110.879 100.746C110.246 100.114 109.495 99.6116 108.669 99.2692C107.843 98.9268 106.957 98.7505 106.062 98.7505C105.168 98.7505 104.282 98.9268 103.456 99.2692C102.629 99.6116 101.879 100.114 101.246 100.746C100.614 101.379 100.112 102.129 99.7692 102.956C99.4268 103.782 99.2505 104.668 99.2505 105.562C99.2505 106.457 99.4268 107.343 99.7692 108.169C100.112 108.995 100.614 109.746 101.246 110.379L154.918 164.05H121.894C118.131 164.05 115.082 167.099 115.082 170.862C115.082 174.625 118.131 177.674 121.894 177.674H171.688C173.495 177.674 175.227 176.957 176.505 175.679C177.782 174.402 178.5 172.669 178.5 170.862V121.718C178.5 119.911 177.782 118.179 176.505 116.901C175.227 115.624 173.493 114.906 171.686 114.906ZM68.1201 100.746L14.4485 154.418V121.394C14.4485 117.631 11.3994 114.582 7.6364 114.582C3.87337 114.582 0.824257 117.631 0.824257 121.394V171.188C0.824257 172.995 1.54196 174.727 2.81949 176.005C4.09701 177.282 5.82971 178 7.6364 178H56.7806C60.5436 178 63.5927 174.951 63.5927 171.188C63.5927 167.425 60.5436 164.376 56.7806 164.376H23.7567L77.7524 110.38C78.3851 109.748 78.887 108.997 79.2294 108.17C79.5718 107.344 79.7481 106.458 79.7481 105.564C79.7481 104.669 79.5718 103.783 79.2294 102.957C78.887 102.131 78.3851 101.38 77.7524 100.748C77.1201 100.115 76.3693 99.613 75.5429 99.2706C74.7165 98.9281 73.8308 98.7519 72.9363 98.7519C72.0418 98.7519 71.156 98.9281 70.3296 99.2706C69.5032 99.613 68.7524 100.114 68.1201 100.746ZM24.0809 13.9485H57.1048C60.8679 13.9485 63.917 10.8994 63.917 7.1364C63.917 3.37337 60.8679 0.324257 57.1048 0.324257H7.31215C5.50545 0.324257 3.77276 1.04196 2.49523 2.31949C1.21771 3.59701 0.5 5.32971 0.5 7.1364V56.2806C0.5 60.0436 3.54912 63.0927 7.31215 63.0927C11.0752 63.0927 14.1243 60.0436 14.1243 56.2806V23.2567L68.1201 77.2524C69.4498 78.5835 71.1937 79.2484 72.9363 79.2484C74.6788 79.2484 76.4241 78.5835 77.7524 77.2524C78.3851 76.6201 78.887 75.8693 79.2294 75.0429C79.5718 74.2165 79.7481 73.3308 79.7481 72.4363C79.7481 71.5418 79.5718 70.656 79.2294 69.8296C78.887 69.0032 78.3851 68.2524 77.7524 67.6201L24.0809 13.9485ZM106.062 79.2484C106.957 79.2497 107.843 79.074 108.67 78.7315C109.496 78.3889 110.247 77.8863 110.879 77.2524L164.55 23.5809V56.6048C164.55 60.3679 167.599 63.417 171.362 63.417C175.125 63.417 178.174 60.3679 178.174 56.6048V6.81215C178.174 5.00545 177.457 3.27276 176.179 1.99523C174.902 0.717706 173.169 0 171.362 0H122.218C118.455 0 115.406 3.04912 115.406 6.81215C115.406 10.5752 118.455 13.6243 122.218 13.6243H155.242L101.246 67.6201C100.292 68.5723 99.6427 69.786 99.3792 71.1077C99.1157 72.4294 99.2504 73.7995 99.7661 75.0446C100.282 76.2898 101.155 77.3538 102.276 78.1022C103.397 78.8505 104.715 79.2494 106.062 79.2484Z" fill="white"/>
</svg>
