<svg width="20" height="20" viewBox="0 0 20 20" fill="none" xmlns="http://www.w3.org/2000/svg">
<path d="M8.19787 6.79041H2.26037C1.49643 6.79041 0.875 6.16898 0.875 5.4049V1.8424C0.875 1.07846 1.49643 0.457031 2.26037 0.457031H8.19787C8.96195 0.457031 9.58338 1.07846 9.58338 1.8424V5.4049C9.58338 6.16898 8.96195 6.79041 8.19787 6.79041ZM2.26037 1.64453C2.2079 1.64457 2.1576 1.66543 2.1205 1.70253C2.0834 1.73963 2.06254 1.78993 2.0625 1.8424V5.4049C2.06251 5.45739 2.08335 5.50772 2.12046 5.54485C2.15756 5.58198 2.20788 5.60286 2.26037 5.60291H8.19787C8.25038 5.60289 8.30073 5.58203 8.33786 5.5449C8.37499 5.50776 8.39586 5.45741 8.39588 5.4049V1.8424C8.39583 1.78991 8.37495 1.73959 8.33782 1.70249C8.30069 1.66539 8.25036 1.64454 8.19787 1.64453H2.26037ZM8.19787 19.457H2.26037C1.49643 19.457 0.875 18.8356 0.875 18.0717V9.75916C0.875 8.99508 1.49643 8.37365 2.26037 8.37365H8.19787C8.96195 8.37365 9.58338 8.99508 9.58338 9.75916V18.0717C9.58338 18.8356 8.96195 19.457 8.19787 19.457ZM2.26037 9.56115C2.20788 9.5612 2.15756 9.58208 2.12046 9.61921C2.08335 9.65634 2.06251 9.70668 2.0625 9.75916V18.0717C2.06254 18.1241 2.0834 18.1744 2.1205 18.2115C2.1576 18.2486 2.2079 18.2695 2.26037 18.2695H8.19787C8.25036 18.2695 8.30069 18.2487 8.33782 18.2116C8.37495 18.1745 8.39583 18.1242 8.39588 18.0717V9.75916C8.39586 9.70665 8.37499 9.6563 8.33786 9.61917C8.30073 9.58204 8.25038 9.56117 8.19787 9.56115H2.26037ZM18.4896 19.457H12.5521C11.7881 19.457 11.1666 18.8356 11.1666 18.0717V14.5092C11.1666 13.7451 11.7881 13.1236 12.5521 13.1236H18.4896C19.2536 13.1236 19.875 13.7451 19.875 14.5092V18.0717C19.875 18.8356 19.2536 19.457 18.4896 19.457ZM12.5521 14.3111C12.4996 14.3112 12.4493 14.332 12.4121 14.3692C12.375 14.4063 12.3541 14.4567 12.3541 14.5092V18.0717C12.3542 18.1242 12.375 18.1745 12.4122 18.2116C12.4493 18.2487 12.4996 18.2695 12.5521 18.2695H18.4896C18.5421 18.2695 18.5924 18.2486 18.6295 18.2115C18.6666 18.1744 18.6875 18.1241 18.6875 18.0717V14.5092C18.6875 14.4567 18.6666 14.4063 18.6295 14.3692C18.5924 14.3321 18.5421 14.3112 18.4896 14.3111H12.5521ZM18.4896 11.5404H12.5521C11.7881 11.5404 11.1666 10.919 11.1666 10.1549V1.8424C11.1666 1.07846 11.7881 0.457031 12.5521 0.457031H18.4896C19.2536 0.457031 19.875 1.07846 19.875 1.8424V10.1549C19.875 10.919 19.2536 11.5404 18.4896 11.5404ZM12.5521 1.64453C12.4996 1.64454 12.4493 1.66539 12.4122 1.70249C12.375 1.73959 12.3542 1.78991 12.3541 1.8424V10.1549C12.3541 10.2074 12.375 10.2578 12.4121 10.2949C12.4493 10.332 12.4996 10.3529 12.5521 10.3529H18.4896C18.5421 10.3529 18.5924 10.332 18.6295 10.2949C18.6666 10.2577 18.6875 10.2074 18.6875 10.1549V1.8424C18.6875 1.78993 18.6666 1.73963 18.6295 1.70253C18.5924 1.66543 18.5421 1.64457 18.4896 1.64453H12.5521Z" fill="white"/>
</svg>
