<svg width="20" height="20" viewBox="0 0 20 20" fill="none" xmlns="http://www.w3.org/2000/svg">
<path d="M19.4093 0.253906C19.2913 0.256943 19.1792 0.305937 19.0969 0.390436L17.1564 2.33428L16.5718 1.74891C16.2467 1.42465 15.8721 1.2446 15.5034 1.23436C15.2816 1.22839 15.0767 1.25996 14.8327 1.29409L11.6667 1.7344C10.5019 1.89653 9.91051 2.39487 9.15955 3.09458L1.37179 10.352C1.36862 10.3548 1.36549 10.3577 1.3624 10.3605C1.02533 10.6933 0.879401 11.1473 0.875134 11.5944C0.870014 12.0416 1.01082 12.5152 1.3863 12.836L1.3607 12.8113L7.31715 18.7691L7.29325 18.7435C7.61412 19.1189 8.08688 19.2589 8.53489 19.2538C8.98205 19.2495 9.43689 19.1036 9.76885 18.7674C9.77174 18.764 9.77459 18.7606 9.77738 18.7571L10.3124 18.1829L12.4424 18.9764C12.6579 19.0588 12.8877 19.0969 13.1182 19.0884C13.3487 19.0799 13.5751 19.025 13.7839 18.927C14.1893 18.7367 14.5417 18.415 14.7038 17.9712L17.042 10.9621C17.7384 10.2155 18.2342 9.62328 18.3955 8.46278L18.8358 5.29699C18.8699 5.05294 18.9015 4.84729 18.8955 4.62628C18.8853 4.25765 18.7061 3.8839 18.381 3.55793L17.7955 2.97341L19.7378 1.03127C19.8032 0.967768 19.8479 0.885979 19.866 0.796633C19.8841 0.707287 19.8748 0.614555 19.8393 0.530598C19.8037 0.446641 19.7437 0.375378 19.6669 0.326154C19.5902 0.276931 19.5004 0.252045 19.4093 0.25476V0.253906ZM15.4787 2.13802C15.6562 2.14229 15.692 2.14741 15.9318 2.38804L16.5172 2.97256L15.4787 4.0119C15.2971 3.92319 15.0979 3.87681 14.8958 3.87622C14.1517 3.87622 13.5381 4.4906 13.5381 5.23384C13.5381 5.97793 14.1517 6.59061 14.895 6.59061C15.6391 6.59061 16.2527 5.97793 16.2527 5.23384C16.2527 5.02563 16.2032 4.82852 16.1178 4.65103L17.1564 3.61169L17.7409 4.19706C17.9816 4.43685 17.9867 4.47269 17.991 4.64932C17.986 4.82437 17.9689 4.99886 17.9398 5.17155L17.5003 8.33734C17.3637 9.31865 17.0693 9.60536 16.3739 10.3529L9.12456 18.1308C9.00765 18.2494 8.76615 18.3458 8.52465 18.3484C8.28315 18.3518 8.07664 18.2656 7.98191 18.1547C7.974 18.1458 7.96575 18.1373 7.95717 18.1291L2.00072 12.1713C1.99251 12.1627 1.98397 12.1544 1.97511 12.1465C1.86418 12.0527 1.77714 11.8453 1.78055 11.6038C1.78311 11.3632 1.87954 11.1208 1.99816 11.0039L9.77653 3.7559C10.5241 3.0596 10.8108 2.76606 11.7922 2.62953L14.9581 2.18922C15.2022 2.15509 15.3729 2.13461 15.4787 2.13802ZM14.8958 4.78073C15.151 4.78073 15.3481 4.9787 15.3481 5.23384C15.3481 5.48898 15.151 5.6861 14.8958 5.6861C14.6398 5.6861 14.4436 5.48898 14.4436 5.23384C14.4436 4.9787 14.6398 4.78073 14.8958 4.78073ZM7.20109 9.75213C7.11105 9.75204 7.02304 9.77882 6.94832 9.82904C6.8736 9.87927 6.81557 9.95065 6.78165 10.034C6.74774 10.1174 6.7395 10.2091 6.75797 10.2972C6.77644 10.3853 6.82079 10.4659 6.88535 10.5286L9.59988 13.2422C10.0266 13.6688 10.6666 13.0289 10.2399 12.6022L7.52536 9.88866C7.48318 9.8454 7.43274 9.81102 7.37705 9.78757C7.32135 9.76412 7.26152 9.75207 7.20109 9.75213ZM5.84425 11.108C5.75403 11.1078 5.6658 11.1345 5.59089 11.1848C5.51598 11.235 5.45781 11.3065 5.42387 11.3901C5.38992 11.4737 5.38174 11.5655 5.40039 11.6538C5.41904 11.742 5.46365 11.8227 5.5285 11.8854L8.24304 14.599C8.66972 15.0538 9.3379 14.3848 8.88306 13.959L6.16938 11.2463C6.12723 11.2026 6.07673 11.1679 6.02087 11.1441C5.96501 11.1204 5.90494 11.1081 5.84425 11.108ZM15.5572 12.5544L13.8539 17.6598C13.7959 17.8159 13.6166 18.0054 13.3982 18.1078C13.1797 18.2102 12.9604 18.2076 12.8239 18.1564L10.9789 17.4661L15.5572 12.5544Z" fill="#7F7F7F"/>
</svg>
