<svg width="62" height="58" viewBox="0 0 62 58" fill="none" xmlns="http://www.w3.org/2000/svg">
<path d="M58.5225 34.478L60.4287 33.6502C61.333 33.2576 61.7453 32.2116 61.3497 31.3142C60.9541 30.4166 59.9002 30.0071 58.9962 30.4L57.09 31.2278C56.1857 31.6205 55.7733 32.6664 56.169 33.5639C56.5649 34.4621 57.6192 34.8705 58.5225 34.478ZM60.4287 46.2465L58.5225 45.4187C57.6183 45.0261 56.5646 45.4352 56.169 46.3328C55.7733 47.2304 56.1857 48.2762 57.09 48.6689L58.9962 49.4967C59.9003 49.8894 60.9543 49.48 61.3497 48.5825C61.7453 47.685 61.333 46.6391 60.4287 46.2465ZM59.7125 38.1745H57.8062C56.8193 38.1745 56.0191 38.9687 56.0191 39.9483C56.0191 40.928 56.8193 41.7222 57.8062 41.7222H59.7125C60.6994 41.7222 61.4996 40.928 61.4996 39.9483C61.4996 38.9687 60.6994 38.1745 59.7125 38.1745ZM34.9862 29.3052C49.3777 22.221 48.415 22.6827 48.7516 22.5575V6.00858C48.7516 3.07462 46.3462 0.687012 43.3903 0.687012H5.86129C2.90543 0.687012 0.5 3.07462 0.5 6.00858V34.5085C0.5 37.4425 2.90543 39.8301 5.86129 39.8301H18.4901V36.9919C18.4901 32.7536 21.9642 29.3052 26.2342 29.3052H34.9862ZM18.2766 28.9405C17.0909 29.5291 15.6903 28.6711 15.6903 27.3539V13.163C15.6903 11.8447 17.091 10.988 18.2766 11.5764L32.5734 18.6718C33.8889 19.3247 33.8878 21.1927 32.5734 21.845L18.2766 28.9405Z" fill="white"/>
<path d="M19.2645 24.4837L27.7781 20.2585L19.2645 16.0332V24.4837ZM26.2342 32.8529C23.9349 32.8529 22.0643 34.7097 22.0643 36.9919V42.9048C22.0643 44.8797 23.4654 46.5349 25.3325 46.9453L23.8757 55.6215C23.6941 56.7024 24.5353 57.687 25.6385 57.687H32.7869C33.2066 57.687 33.613 57.5404 33.9347 57.2728C34.2564 57.0052 34.473 56.6338 34.5465 56.2236L36.1608 47.21L36.3611 47.3087V32.5881L35.8232 32.8529H26.2342ZM49.8639 25.9421L39.9353 30.8289V49.0676L49.8639 53.9545C51.0474 54.5371 52.4449 53.6818 52.4449 52.3653V27.5313C52.4449 26.2159 51.0495 25.3585 49.8639 25.9421Z" fill="white"/>
</svg>
