<svg width="17" height="17" viewBox="0 0 17 17" fill="none" xmlns="http://www.w3.org/2000/svg">
<path d="M12.4447 16.5049C12.3047 16.5049 12.1909 16.4961 12.1034 16.4786C12.0159 16.4611 11.9372 16.4174 11.8672 16.3474L8.34969 14.4574H8.19219L4.62219 16.3474C4.30719 16.5224 3.97469 16.5486 3.62469 16.4261C3.27469 16.3036 3.02969 16.0849 2.88969 15.7699C2.74969 15.5949 2.67969 15.3149 2.67969 14.9299L3.36219 10.9399V10.7824L0.422187 7.99988C0.177188 7.75488 0.0546875 7.44863 0.0546875 7.08113C0.0546875 6.71363 0.177188 6.40738 0.422187 6.16238C0.527187 5.98738 0.754687 5.84738 1.10469 5.74238L5.19969 5.11238C5.23469 5.11238 5.26969 5.09488 5.30469 5.05988L6.98469 1.48988C7.15969 1.17488 7.41344 0.956133 7.74594 0.833633C8.07844 0.711133 8.41094 0.754884 8.74344 0.964883C9.07594 1.17488 9.27719 1.34988 9.34719 1.48988L11.1322 5.11238L11.1847 5.16488C11.2197 5.19988 11.2547 5.21738 11.2897 5.21738L15.2272 5.79488C15.6122 5.82988 15.9184 5.99613 16.1459 6.29363C16.3734 6.59113 16.4347 6.93238 16.3297 7.31738C16.3297 7.45738 16.2947 7.59738 16.2247 7.73738C16.1547 7.87738 16.0497 7.99988 15.9097 8.10488L13.0747 10.8874V11.0449L13.7047 14.9824C13.7747 15.3674 13.7047 15.7086 13.4947 16.0061C13.2847 16.3036 13.0047 16.4699 12.6547 16.5049H12.3922H12.4447Z" fill="white"/>
</svg>
