<svg width="16" height="16" viewBox="0 0 16 16" fill="none" xmlns="http://www.w3.org/2000/svg">
<path d="M6.7725 1.44531V5.64531C6.7725 5.99531 6.65 6.28406 6.405 6.51156C6.16 6.73906 5.8625 6.85281 5.5125 6.85281H1.26C0.91 6.88781 0.6125 6.78281 0.3675 6.53781C0.1225 6.29281 0 6.01281 0 5.69781V1.44531C0 1.09531 0.1225 0.797813 0.3675 0.552813C0.6125 0.307813 0.91 0.185313 1.26 0.185313H5.46C5.81 0.185313 6.11625 0.307813 6.37875 0.552813C6.64125 0.797813 6.7725 1.09531 6.7725 1.44531ZM6.7725 10.4228V14.6228C6.7725 14.9728 6.65 15.2703 6.405 15.5153C6.16 15.7603 5.8625 15.8828 5.5125 15.8828H1.26C0.91 15.8828 0.6125 15.7603 0.3675 15.5153C0.1225 15.2703 0 14.9728 0 14.6228V10.4228C0 10.0728 0.1225 9.77531 0.3675 9.53031C0.6125 9.28531 0.91 9.16281 1.26 9.16281H5.46C5.81 9.16281 6.1075 9.28531 6.3525 9.53031C6.5975 9.77531 6.72 10.0728 6.72 10.4228H6.7725ZM15.75 1.44531V5.64531C15.75 5.99531 15.6275 6.28406 15.3825 6.51156C15.1375 6.73906 14.84 6.85281 14.49 6.85281H10.29C9.94 6.85281 9.65125 6.73031 9.42375 6.48531C9.19625 6.24031 9.0825 5.96031 9.0825 5.64531V1.44531C9.0475 1.09531 9.1525 0.797813 9.3975 0.552813C9.6425 0.307813 9.9225 0.185313 10.2375 0.185313H14.4375C14.7875 0.185313 15.085 0.307813 15.33 0.552813C15.575 0.797813 15.6975 1.09531 15.6975 1.44531H15.75ZM15.75 10.4228V14.6228C15.75 14.9728 15.6275 15.2703 15.3825 15.5153C15.1375 15.7603 14.84 15.8828 14.49 15.8828H10.29C9.94 15.8828 9.65125 15.7603 9.42375 15.5153C9.19625 15.2703 9.0825 14.9728 9.0825 14.6228V10.4228C9.0825 10.0728 9.205 9.77531 9.45 9.53031C9.695 9.28531 9.975 9.16281 10.29 9.16281H14.49C14.84 9.16281 15.1375 9.28531 15.3825 9.53031C15.6275 9.77531 15.75 10.0728 15.75 10.4228Z" fill="white"/>
</svg>
